%TF.GenerationSoftware,KiCad,Pcbnew,9.0.7*%
%TF.CreationDate,2026-04-14T21:13:42+05:30*%
%TF.ProjectId,Version1_IOB,56657273-696f-46e3-915f-494f422e6b69,rev?*%
%TF.SameCoordinates,PX22ca400PY5825eb0*%
%TF.FileFunction,Copper,L2,Inr*%
%TF.FilePolarity,Positive*%
%FSLAX46Y46*%
G04 Gerber Fmt 4.6, Leading zero omitted, Abs format (unit mm)*
G04 Created by KiCad (PCBNEW 9.0.7) date 2026-04-14 21:13:42*
%MOMM*%
%LPD*%
G01*
G04 APERTURE LIST*
%TA.AperFunction,ComponentPad*%
%ADD10C,0.700000*%
%TD*%
%TA.AperFunction,ComponentPad*%
%ADD11C,4.400000*%
%TD*%
%TA.AperFunction,ComponentPad*%
%ADD12C,1.600000*%
%TD*%
%TA.AperFunction,ComponentPad*%
%ADD13C,1.700000*%
%TD*%
%TA.AperFunction,HeatsinkPad*%
%ADD14O,2.100000X1.000000*%
%TD*%
%TA.AperFunction,HeatsinkPad*%
%ADD15O,1.800000X1.000000*%
%TD*%
%TA.AperFunction,ComponentPad*%
%ADD16O,1.300000X0.800000*%
%TD*%
%TA.AperFunction,ViaPad*%
%ADD17C,0.900000*%
%TD*%
%TA.AperFunction,ViaPad*%
%ADD18C,0.700000*%
%TD*%
%TA.AperFunction,ViaPad*%
%ADD19C,0.600000*%
%TD*%
G04 APERTURE END LIST*
D10*
%TO.N,GND*%
%TO.C,H2*%
X1753274Y3116726D03*
X2236548Y4283452D03*
X2236548Y1950000D03*
X3403274Y4766726D03*
D11*
X3403274Y3116726D03*
D10*
X3403274Y1466726D03*
X4570000Y4283452D03*
X4570000Y1950000D03*
X5053274Y3116726D03*
%TD*%
%TO.N,GND*%
%TO.C,H4*%
X47270000Y3100000D03*
X47753274Y4266726D03*
X47753274Y1933274D03*
X48920000Y4750000D03*
D11*
X48920000Y3100000D03*
D10*
X48920000Y1450000D03*
X50086726Y4266726D03*
X50086726Y1933274D03*
X50570000Y3100000D03*
%TD*%
D12*
%TO.N,GND*%
%TO.C,J5*%
X66869669Y10720000D03*
%TD*%
D13*
%TO.N,GND*%
%TO.C,J_UART1*%
X61939669Y30155000D03*
%TD*%
D14*
%TO.N,GND*%
%TO.C,J1*%
X6625000Y26250000D03*
D15*
X2445000Y26250000D03*
D14*
X6625000Y17610000D03*
D15*
X2445000Y17610000D03*
%TD*%
D10*
%TO.N,GND*%
%TO.C,H1*%
X10823274Y29296726D03*
X11306548Y30463452D03*
X11306548Y28130000D03*
X12473274Y30946726D03*
D11*
X12473274Y29296726D03*
D10*
X12473274Y27646726D03*
X13640000Y30463452D03*
X13640000Y28130000D03*
X14123274Y29296726D03*
%TD*%
%TO.N,GND*%
%TO.C,H3*%
X47776726Y29593274D03*
X48260000Y30760000D03*
X48260000Y28426548D03*
X49426726Y31243274D03*
D11*
X49426726Y29593274D03*
D10*
X49426726Y27943274D03*
X50593452Y30760000D03*
X50593452Y28426548D03*
X51076726Y29593274D03*
%TD*%
D16*
%TO.N,GND*%
%TO.C,J2*%
X5160000Y9355000D03*
%TD*%
D13*
%TO.N,GND*%
%TO.C,J_I2C1*%
X27900000Y4520000D03*
%TD*%
D17*
%TO.N,GND*%
X48680000Y15810000D03*
D18*
X51570000Y13500000D03*
D17*
X8520000Y1430000D03*
X61020000Y1430000D03*
X79020000Y29430000D03*
D18*
X33450000Y24630000D03*
D17*
X61020000Y27430000D03*
D18*
X42590000Y10880000D03*
D17*
X59020000Y5930000D03*
D18*
X30394265Y9624071D03*
X61060000Y18880000D03*
D17*
X44110000Y1250000D03*
D18*
X43600000Y21910000D03*
X34515000Y16730000D03*
D17*
X1020000Y7930000D03*
X43020000Y18930000D03*
X42520000Y29930000D03*
X62130000Y7970000D03*
X22520000Y8930000D03*
D18*
X39325000Y24330000D03*
X65770000Y9620000D03*
D17*
X25020000Y17430000D03*
D18*
X8650000Y18670000D03*
D17*
X20020000Y13930000D03*
X45520000Y31430000D03*
X30520000Y1430000D03*
X67520000Y31430000D03*
X40060000Y9540000D03*
X41020000Y26930000D03*
X44800000Y15790000D03*
X57020000Y7930000D03*
X41600000Y13700000D03*
X48520000Y18930000D03*
X8520000Y14430000D03*
X15520000Y1430000D03*
X50520000Y12930000D03*
D18*
X31180000Y20310000D03*
X51240000Y25190000D03*
D17*
X8520000Y16430000D03*
X62830000Y12230000D03*
X11020000Y1430000D03*
D18*
X10390000Y18961000D03*
D17*
X30520000Y4930000D03*
X56520000Y1430000D03*
X42020000Y5430000D03*
X76520000Y31430000D03*
X45020000Y18930000D03*
X54520000Y26430000D03*
X1210000Y24680000D03*
X65190000Y13250000D03*
X1020000Y6430000D03*
D18*
X26712500Y12885000D03*
X37230000Y27530000D03*
D17*
X40020000Y6430000D03*
D18*
X60910000Y25620000D03*
D17*
X26020000Y1430000D03*
D18*
X7875000Y27940000D03*
D17*
X46380000Y1290000D03*
X26020000Y26930000D03*
X15020000Y17930000D03*
X18520000Y26930000D03*
D18*
X47520000Y22160000D03*
D17*
X52020000Y31430000D03*
X17480000Y29490000D03*
D18*
X47600000Y25190000D03*
D17*
X43020000Y31430000D03*
X52520000Y24430000D03*
D18*
X28670000Y14040000D03*
D17*
X1020000Y1430000D03*
X8040000Y5670000D03*
X64420000Y21190000D03*
X72020000Y31430000D03*
X79020000Y5930000D03*
X79020000Y25430000D03*
X37020000Y10930000D03*
D18*
X45020000Y2030000D03*
D17*
X41520000Y1430000D03*
D18*
X3335000Y15990000D03*
D19*
X28859293Y30740707D03*
D18*
X62080000Y21447831D03*
X42470000Y26480000D03*
D17*
X54520000Y5930000D03*
D18*
X52395000Y27770000D03*
D17*
X17020000Y31430000D03*
X28020000Y1430000D03*
X6020000Y1430000D03*
D18*
X39520000Y22137500D03*
D19*
X28070000Y15840000D03*
D17*
X79020000Y31430000D03*
X1210000Y16180000D03*
X5540000Y5670000D03*
D18*
X21000000Y18890000D03*
D17*
X25520000Y24430000D03*
X10540000Y5670000D03*
X38520000Y15930000D03*
D18*
X32160000Y21340000D03*
X26870000Y24490000D03*
D17*
X21020000Y31430000D03*
X79020000Y21430000D03*
D19*
X35680000Y26850000D03*
D17*
X4000000Y21690000D03*
X49520000Y7930000D03*
D18*
X28835000Y18017500D03*
D17*
X22520000Y17430000D03*
X1020000Y13430000D03*
D18*
X45657500Y22702500D03*
D17*
X56520000Y5930000D03*
X15020000Y23430000D03*
X63020000Y27430000D03*
X12020000Y25930000D03*
X52020000Y5930000D03*
D18*
X39510000Y30050000D03*
D17*
X58020000Y27930000D03*
X52520000Y9930000D03*
X79020000Y12930000D03*
X79020000Y14930000D03*
X23020000Y1430000D03*
X48020000Y12930000D03*
D18*
X10382500Y12277500D03*
D17*
X79020000Y17430000D03*
X1210000Y27180000D03*
X46520000Y8430000D03*
D18*
X32376975Y12564999D03*
D17*
X35490000Y7870000D03*
X50520000Y18930000D03*
X79020000Y2430000D03*
X31520000Y7930000D03*
X79020000Y19430000D03*
X22300000Y29550000D03*
D18*
X31220000Y24680000D03*
D17*
X22520000Y31430000D03*
X24520000Y31430000D03*
D18*
X41705000Y18810000D03*
D17*
X34020000Y5430000D03*
D18*
X27060000Y8030000D03*
D17*
X35520000Y1430000D03*
X15020000Y31430000D03*
D18*
X43445000Y5320000D03*
D17*
X13520000Y24430000D03*
X38760000Y13620000D03*
X3520000Y11020000D03*
X15020000Y15430000D03*
X1220000Y31360000D03*
X22520000Y13930000D03*
X41020000Y31430000D03*
X79020000Y7930000D03*
D18*
X51210000Y22240000D03*
D17*
X3520000Y31150000D03*
D18*
X35690000Y20260000D03*
D17*
X32520000Y1430000D03*
D18*
X65790000Y11820000D03*
X9570000Y21950000D03*
D17*
X54520000Y1430000D03*
D18*
X62380000Y15120000D03*
D17*
X79020000Y27430000D03*
D18*
X8700000Y25320000D03*
X27545000Y21380000D03*
D17*
X1210000Y20180000D03*
X1020000Y4930000D03*
X15020000Y19930000D03*
X25020000Y13930000D03*
D18*
X10390000Y17940000D03*
D17*
X38020000Y1430000D03*
X21020000Y26930000D03*
X65090000Y1200000D03*
D18*
X28810000Y21392500D03*
D17*
X79020000Y10430000D03*
X75590000Y1200000D03*
X7020000Y12930000D03*
X43730000Y8420000D03*
X26520000Y31430000D03*
D18*
X26830000Y15790000D03*
X64510000Y23950000D03*
D17*
X57020000Y10430000D03*
D19*
X34400000Y26850000D03*
D17*
X49020000Y10430000D03*
X15040000Y5670000D03*
D18*
X11900000Y15420000D03*
X31190000Y22390000D03*
D17*
X13520000Y1430000D03*
X1020000Y9930000D03*
X79020000Y3930000D03*
X74020000Y31430000D03*
X59020000Y1430000D03*
D18*
X34830000Y21550000D03*
X54950000Y22840000D03*
D17*
X65090000Y25610000D03*
X79020000Y23430000D03*
D18*
X35700000Y22290000D03*
D17*
X66590000Y1200000D03*
X13520000Y25930000D03*
D18*
X10412500Y13367500D03*
D17*
X72590000Y1200000D03*
D18*
X20310000Y8570000D03*
D17*
X1130000Y29010000D03*
X46520000Y18930000D03*
X1020000Y11930000D03*
X41020000Y28430000D03*
X52020000Y1430000D03*
D18*
X34730000Y23670000D03*
X32060000Y23560000D03*
D17*
X19020000Y31430000D03*
D18*
X35620000Y24620000D03*
X64450000Y15230000D03*
D17*
X65020000Y3930000D03*
X20020000Y17430000D03*
D18*
X31860000Y16910000D03*
X29517500Y27265000D03*
D19*
X28280000Y28810000D03*
D17*
X15520000Y11930000D03*
X45020000Y12930000D03*
X15020000Y25930000D03*
D18*
X40600000Y21960000D03*
D17*
X20020000Y1430000D03*
D18*
X29520000Y28290000D03*
D17*
X13040000Y5670000D03*
X17520000Y1430000D03*
X63020000Y25430000D03*
X65020000Y31430000D03*
D18*
X45677500Y24622500D03*
%TD*%
%TA.AperFunction,Conductor*%
%TO.N,GND*%
G36*
X79917826Y32017826D02*
G01*
X79939500Y31965500D01*
X79939500Y574500D01*
X79917826Y522174D01*
X79865500Y500500D01*
X564500Y500500D01*
X512174Y522174D01*
X490500Y574500D01*
X490500Y4603767D01*
X19429500Y4603767D01*
X19429500Y4436234D01*
X19462182Y4271925D01*
X19462184Y4271918D01*
X19526296Y4117138D01*
X19577727Y4040167D01*
X19619374Y3977838D01*
X19737838Y3859374D01*
X19877137Y3766297D01*
X20031918Y3702184D01*
X20196233Y3669500D01*
X20196234Y3669500D01*
X20363766Y3669500D01*
X20363767Y3669500D01*
X20528082Y3702184D01*
X20682863Y3766297D01*
X20822162Y3859374D01*
X20940626Y3977838D01*
X21033703Y4117137D01*
X21097816Y4271918D01*
X21130500Y4436233D01*
X21130500Y4603767D01*
X21969500Y4603767D01*
X21969500Y4436234D01*
X22002182Y4271925D01*
X22002184Y4271918D01*
X22066296Y4117138D01*
X22117727Y4040167D01*
X22159374Y3977838D01*
X22277838Y3859374D01*
X22417137Y3766297D01*
X22571918Y3702184D01*
X22736233Y3669500D01*
X22736234Y3669500D01*
X22903766Y3669500D01*
X22903767Y3669500D01*
X23068082Y3702184D01*
X23222863Y3766297D01*
X23362162Y3859374D01*
X23480626Y3977838D01*
X23573703Y4117137D01*
X23637816Y4271918D01*
X23670500Y4436233D01*
X23670500Y4603767D01*
X24509500Y4603767D01*
X24509500Y4436234D01*
X24542182Y4271925D01*
X24542184Y4271918D01*
X24606296Y4117138D01*
X24657727Y4040167D01*
X24699374Y3977838D01*
X24817838Y3859374D01*
X24957137Y3766297D01*
X25111918Y3702184D01*
X25276233Y3669500D01*
X25276234Y3669500D01*
X25443766Y3669500D01*
X25443767Y3669500D01*
X25608082Y3702184D01*
X25762863Y3766297D01*
X25902162Y3859374D01*
X26020626Y3977838D01*
X26113703Y4117137D01*
X26177816Y4271918D01*
X26210500Y4436233D01*
X26210500Y4603767D01*
X26207594Y4618378D01*
X26650000Y4618378D01*
X26650000Y4421623D01*
X26680778Y4227294D01*
X26680781Y4227281D01*
X26741577Y4040172D01*
X26741579Y4040167D01*
X26830903Y3864858D01*
X26930709Y3727488D01*
X27469269Y4266049D01*
X27499901Y4212993D01*
X27592993Y4119901D01*
X27646046Y4089271D01*
X27107486Y3550711D01*
X27244857Y3450904D01*
X27420166Y3361580D01*
X27420171Y3361578D01*
X27607280Y3300782D01*
X27607293Y3300779D01*
X27801622Y3270000D01*
X27998378Y3270000D01*
X28192706Y3300779D01*
X28192719Y3300782D01*
X28379828Y3361578D01*
X28379833Y3361580D01*
X28555139Y3450903D01*
X28692512Y3550711D01*
X28153953Y4089271D01*
X28207007Y4119901D01*
X28300099Y4212993D01*
X28330729Y4266048D01*
X28869289Y3727488D01*
X28969097Y3864861D01*
X29010387Y3945895D01*
X32189500Y3945895D01*
X32189500Y3814106D01*
X32223606Y3686819D01*
X32223607Y3686816D01*
X32223608Y3686814D01*
X32289500Y3572686D01*
X32382686Y3479500D01*
X32496814Y3413608D01*
X32624105Y3379501D01*
X32624106Y3379500D01*
X32624108Y3379500D01*
X32755894Y3379500D01*
X32755894Y3379501D01*
X32883186Y3413608D01*
X32997314Y3479500D01*
X33090500Y3572686D01*
X33156392Y3686814D01*
X33190499Y3814106D01*
X33190500Y3814106D01*
X33190500Y3887842D01*
X67759169Y3887842D01*
X67759169Y3632159D01*
X67792542Y3378662D01*
X67858718Y3131691D01*
X67858720Y3131684D01*
X67956561Y2895474D01*
X67956564Y2895466D01*
X68084405Y2674039D01*
X68084409Y2674033D01*
X68240059Y2471187D01*
X68420856Y2290390D01*
X68623704Y2134739D01*
X68845134Y2006896D01*
X69081356Y1909050D01*
X69328329Y1842874D01*
X69581826Y1809500D01*
X69581828Y1809500D01*
X69837510Y1809500D01*
X69837512Y1809500D01*
X70091009Y1842874D01*
X70337982Y1909050D01*
X70574204Y2006896D01*
X70795634Y2134739D01*
X70998482Y2290390D01*
X71179279Y2471187D01*
X71334930Y2674035D01*
X71462773Y2895465D01*
X71560619Y3131687D01*
X71626795Y3378660D01*
X71660169Y3632157D01*
X71660169Y3887843D01*
X71626795Y4141340D01*
X71560619Y4388313D01*
X71462773Y4624535D01*
X71411702Y4712993D01*
X71334932Y4845962D01*
X71334928Y4845968D01*
X71179278Y5048814D01*
X70998482Y5229610D01*
X70795636Y5385260D01*
X70795630Y5385264D01*
X70574203Y5513105D01*
X70574195Y5513108D01*
X70337985Y5610949D01*
X70337983Y5610950D01*
X70337982Y5610950D01*
X70304891Y5619817D01*
X70091007Y5677127D01*
X69904258Y5701713D01*
X69837512Y5710500D01*
X69581826Y5710500D01*
X69522845Y5702735D01*
X69328330Y5677127D01*
X69081359Y5610951D01*
X69081352Y5610949D01*
X68845142Y5513108D01*
X68845134Y5513105D01*
X68623707Y5385264D01*
X68623701Y5385260D01*
X68420855Y5229610D01*
X68240059Y5048814D01*
X68084409Y4845968D01*
X68084405Y4845962D01*
X67956564Y4624535D01*
X67956561Y4624527D01*
X67858720Y4388317D01*
X67858718Y4388310D01*
X67792542Y4141339D01*
X67759169Y3887842D01*
X33190500Y3887842D01*
X33190500Y3945894D01*
X33190499Y3945895D01*
X33156393Y4073182D01*
X33156392Y4073186D01*
X33090500Y4187314D01*
X32997314Y4280500D01*
X32916762Y4327007D01*
X32883190Y4346390D01*
X32883181Y4346394D01*
X32755894Y4380500D01*
X32755892Y4380500D01*
X32624108Y4380500D01*
X32624106Y4380500D01*
X32496818Y4346394D01*
X32496809Y4346390D01*
X32382685Y4280500D01*
X32289500Y4187315D01*
X32223610Y4073191D01*
X32223606Y4073182D01*
X32189500Y3945895D01*
X29010387Y3945895D01*
X29029974Y3984337D01*
X29058420Y4040167D01*
X29058422Y4040172D01*
X29119218Y4227281D01*
X29119221Y4227294D01*
X29150000Y4421623D01*
X29150000Y4618378D01*
X29119221Y4812707D01*
X29119218Y4812720D01*
X29058422Y4999829D01*
X29058420Y4999834D01*
X28969096Y5175143D01*
X28869289Y5312514D01*
X28330729Y4773955D01*
X28300099Y4827007D01*
X28207007Y4920099D01*
X28153951Y4950731D01*
X28692512Y5489291D01*
X28555142Y5589097D01*
X28379833Y5678421D01*
X28379828Y5678423D01*
X28192719Y5739219D01*
X28192706Y5739222D01*
X27998378Y5770000D01*
X27801622Y5770000D01*
X27607293Y5739222D01*
X27607280Y5739219D01*
X27420171Y5678423D01*
X27420166Y5678421D01*
X27244857Y5589097D01*
X27107486Y5489291D01*
X27646046Y4950730D01*
X27592993Y4920099D01*
X27499901Y4827007D01*
X27469270Y4773954D01*
X26930709Y5312514D01*
X26830903Y5175143D01*
X26741579Y4999834D01*
X26741577Y4999829D01*
X26680781Y4812720D01*
X26680778Y4812707D01*
X26650000Y4618378D01*
X26207594Y4618378D01*
X26177816Y4768082D01*
X26113703Y4922863D01*
X26020626Y5062162D01*
X25902162Y5180626D01*
X25762863Y5273703D01*
X25762864Y5273703D01*
X25762862Y5273704D01*
X25608082Y5337816D01*
X25608075Y5337818D01*
X25484288Y5362440D01*
X25443767Y5370500D01*
X25276233Y5370500D01*
X25243728Y5364035D01*
X25111924Y5337818D01*
X25111917Y5337816D01*
X24957137Y5273704D01*
X24817841Y5180629D01*
X24699371Y5062159D01*
X24606296Y4922863D01*
X24542184Y4768083D01*
X24542182Y4768076D01*
X24509500Y4603767D01*
X23670500Y4603767D01*
X23637816Y4768082D01*
X23573703Y4922863D01*
X23480626Y5062162D01*
X23362162Y5180626D01*
X23222863Y5273703D01*
X23222864Y5273703D01*
X23222862Y5273704D01*
X23068082Y5337816D01*
X23068075Y5337818D01*
X22944288Y5362440D01*
X22903767Y5370500D01*
X22736233Y5370500D01*
X22703728Y5364035D01*
X22571924Y5337818D01*
X22571917Y5337816D01*
X22417137Y5273704D01*
X22277841Y5180629D01*
X22159371Y5062159D01*
X22066296Y4922863D01*
X22002184Y4768083D01*
X22002182Y4768076D01*
X21969500Y4603767D01*
X21130500Y4603767D01*
X21097816Y4768082D01*
X21033703Y4922863D01*
X20940626Y5062162D01*
X20822162Y5180626D01*
X20682863Y5273703D01*
X20682864Y5273703D01*
X20682862Y5273704D01*
X20528082Y5337816D01*
X20528075Y5337818D01*
X20404288Y5362440D01*
X20363767Y5370500D01*
X20196233Y5370500D01*
X20163728Y5364035D01*
X20031924Y5337818D01*
X20031917Y5337816D01*
X19877137Y5273704D01*
X19737841Y5180629D01*
X19619371Y5062159D01*
X19526296Y4922863D01*
X19462184Y4768083D01*
X19462182Y4768076D01*
X19429500Y4603767D01*
X490500Y4603767D01*
X490500Y6905895D01*
X18859500Y6905895D01*
X18859500Y6774106D01*
X18893606Y6646819D01*
X18893607Y6646816D01*
X18893608Y6646814D01*
X18959500Y6532686D01*
X19052686Y6439500D01*
X19166814Y6373608D01*
X19294105Y6339501D01*
X19294106Y6339500D01*
X19294108Y6339500D01*
X19425894Y6339500D01*
X19425894Y6339501D01*
X19553186Y6373608D01*
X19667314Y6439500D01*
X19760500Y6532686D01*
X19826392Y6646814D01*
X19860499Y6774106D01*
X19860500Y6774106D01*
X19860500Y6905894D01*
X19860499Y6905895D01*
X19826393Y7033182D01*
X19826392Y7033186D01*
X19760500Y7147314D01*
X19667314Y7240500D01*
X19553190Y7306390D01*
X19553181Y7306394D01*
X19425894Y7340500D01*
X19425892Y7340500D01*
X19294108Y7340500D01*
X19294106Y7340500D01*
X19166818Y7306394D01*
X19166809Y7306390D01*
X19052685Y7240500D01*
X18959500Y7147315D01*
X18893610Y7033191D01*
X18893606Y7033182D01*
X18859500Y6905895D01*
X490500Y6905895D01*
X490500Y9480001D01*
X4119190Y9480001D01*
X4119191Y9480000D01*
X4941178Y9480000D01*
X4910000Y9404728D01*
X4910000Y9305272D01*
X4941178Y9230000D01*
X4119190Y9230000D01*
X4140741Y9121656D01*
X4140743Y9121649D01*
X4201047Y8976062D01*
X4288598Y8845031D01*
X4400030Y8733599D01*
X4531061Y8646048D01*
X4676648Y8585744D01*
X4676655Y8585742D01*
X4831208Y8555000D01*
X5035000Y8555000D01*
X5035000Y9136179D01*
X5110272Y9105000D01*
X5209728Y9105000D01*
X5285000Y9136179D01*
X5285000Y8555000D01*
X5488792Y8555000D01*
X5643344Y8585742D01*
X5643351Y8585744D01*
X5788938Y8646048D01*
X5919969Y8733599D01*
X5919971Y8733600D01*
X6031400Y8845029D01*
X6031401Y8845031D01*
X6118953Y8976063D01*
X6125805Y8992604D01*
X26534500Y8992604D01*
X26534500Y8867397D01*
X26566904Y8746465D01*
X26574333Y8733599D01*
X26629505Y8638036D01*
X26718036Y8549505D01*
X26826464Y8486905D01*
X26826463Y8486905D01*
X26896286Y8468196D01*
X26947396Y8454501D01*
X26947397Y8454500D01*
X26947399Y8454500D01*
X27072603Y8454500D01*
X27072603Y8454501D01*
X27193536Y8486905D01*
X27301964Y8549505D01*
X27390495Y8638036D01*
X27453095Y8746464D01*
X27485499Y8867397D01*
X27485500Y8867397D01*
X27485500Y8992603D01*
X27485499Y8992604D01*
X27476612Y9025769D01*
X27453095Y9113536D01*
X27390495Y9221964D01*
X27301964Y9310495D01*
X27301963Y9310496D01*
X27222584Y9356324D01*
X27193536Y9373095D01*
X27193535Y9373096D01*
X27193536Y9373096D01*
X27072603Y9405500D01*
X27072601Y9405500D01*
X26947399Y9405500D01*
X26947397Y9405500D01*
X26826464Y9373096D01*
X26718036Y9310496D01*
X26629504Y9221964D01*
X26566904Y9113536D01*
X26534500Y8992604D01*
X6125805Y8992604D01*
X6139542Y9025769D01*
X6139542Y9025770D01*
X6179256Y9121649D01*
X6179258Y9121656D01*
X6200809Y9230000D01*
X5378822Y9230000D01*
X5410000Y9305272D01*
X5410000Y9404728D01*
X5378822Y9480000D01*
X6200809Y9480000D01*
X6200809Y9480001D01*
X6179258Y9588345D01*
X6179255Y9588356D01*
X6133370Y9699133D01*
X6123647Y9722604D01*
X29044500Y9722604D01*
X29044500Y9597397D01*
X29076904Y9476465D01*
X29136584Y9373096D01*
X29139505Y9368036D01*
X29228036Y9279505D01*
X29336464Y9216905D01*
X29336463Y9216905D01*
X29406286Y9198196D01*
X29457396Y9184501D01*
X29457397Y9184500D01*
X29457399Y9184500D01*
X29582603Y9184500D01*
X29582603Y9184501D01*
X29703536Y9216905D01*
X29811964Y9279505D01*
X29900495Y9368036D01*
X29963095Y9476464D01*
X29995499Y9597397D01*
X29995500Y9597397D01*
X29995500Y9722603D01*
X29995499Y9722604D01*
X29975952Y9795556D01*
X29963095Y9843536D01*
X29900495Y9951964D01*
X29811963Y10040496D01*
X29703534Y10103096D01*
X29703536Y10103096D01*
X29582603Y10135500D01*
X29582601Y10135500D01*
X29457399Y10135500D01*
X29457397Y10135500D01*
X29336464Y10103096D01*
X29228036Y10040496D01*
X29139504Y9951964D01*
X29076904Y9843536D01*
X29044500Y9722604D01*
X6123647Y9722604D01*
X6118952Y9733939D01*
X6031401Y9864970D01*
X5919969Y9976402D01*
X5788938Y10063953D01*
X5664451Y10115517D01*
X5624403Y10155566D01*
X5624403Y10212203D01*
X5637805Y10232258D01*
X5637569Y10232439D01*
X5640342Y10236053D01*
X5640449Y10236214D01*
X5640520Y10236284D01*
X5719577Y10373216D01*
X5760499Y10525941D01*
X5760500Y10525941D01*
X5760500Y10684059D01*
X5760499Y10684060D01*
X5729917Y10798196D01*
X5725563Y10814443D01*
X65669669Y10814443D01*
X65669669Y10625558D01*
X65699216Y10439002D01*
X65699219Y10438989D01*
X65757583Y10259363D01*
X65757585Y10259359D01*
X65843335Y10091067D01*
X65843338Y10091061D01*
X65936174Y9963284D01*
X66438938Y10466049D01*
X66469570Y10412993D01*
X66562662Y10319901D01*
X66615715Y10289271D01*
X66112951Y9786506D01*
X66240729Y9693670D01*
X66240735Y9693667D01*
X66409027Y9607917D01*
X66409031Y9607915D01*
X66588657Y9549551D01*
X66588670Y9549548D01*
X66775226Y9520000D01*
X66964112Y9520000D01*
X67150667Y9549548D01*
X67150680Y9549551D01*
X67330306Y9607915D01*
X67330310Y9607917D01*
X67498602Y9693667D01*
X67498608Y9693670D01*
X67626385Y9786506D01*
X67123622Y10289271D01*
X67176676Y10319901D01*
X67269768Y10412993D01*
X67300398Y10466048D01*
X67803163Y9963284D01*
X67895999Y10091061D01*
X67896002Y10091067D01*
X67981752Y10259359D01*
X67981754Y10259363D01*
X68040118Y10438989D01*
X68040121Y10439002D01*
X68069669Y10625558D01*
X68069669Y10814443D01*
X68040121Y11000999D01*
X68040118Y11001012D01*
X67981754Y11180638D01*
X67981752Y11180642D01*
X67896002Y11348934D01*
X67895999Y11348940D01*
X67803163Y11476718D01*
X67300398Y10973954D01*
X67269768Y11027007D01*
X67176676Y11120099D01*
X67123620Y11150731D01*
X67626385Y11653495D01*
X67498608Y11746331D01*
X67498602Y11746334D01*
X67330310Y11832084D01*
X67330306Y11832086D01*
X67150680Y11890450D01*
X67150667Y11890453D01*
X66964112Y11920000D01*
X66775226Y11920000D01*
X66588670Y11890453D01*
X66588657Y11890450D01*
X66409034Y11832087D01*
X66240736Y11746335D01*
X66112951Y11653495D01*
X66615716Y11150730D01*
X66562662Y11120099D01*
X66469570Y11027007D01*
X66438939Y10973953D01*
X65936174Y11476718D01*
X65843334Y11348933D01*
X65757582Y11180635D01*
X65699219Y11001012D01*
X65699216Y11000999D01*
X65669669Y10814443D01*
X5725563Y10814443D01*
X5719578Y10836780D01*
X5719577Y10836784D01*
X5640520Y10973716D01*
X5528716Y11085520D01*
X5391784Y11164577D01*
X5391781Y11164578D01*
X5389467Y11165914D01*
X5354989Y11210847D01*
X5362381Y11267000D01*
X5389467Y11294086D01*
X5391781Y11295423D01*
X5391784Y11295423D01*
X5528716Y11374480D01*
X5640520Y11486284D01*
X5719577Y11623216D01*
X5760499Y11775941D01*
X5760500Y11775941D01*
X5760500Y11934059D01*
X5760499Y11934060D01*
X5741003Y12006819D01*
X5719577Y12086784D01*
X5669573Y12173395D01*
X13612000Y12173395D01*
X13612000Y12041606D01*
X13646106Y11914319D01*
X13646110Y11914310D01*
X13679246Y11856918D01*
X13712000Y11800186D01*
X13805186Y11707000D01*
X13919314Y11641108D01*
X14046605Y11607001D01*
X14046606Y11607000D01*
X14046608Y11607000D01*
X14178394Y11607000D01*
X14178394Y11607001D01*
X14305686Y11641108D01*
X14419814Y11707000D01*
X14513000Y11800186D01*
X14578892Y11914314D01*
X14612999Y12041606D01*
X14613000Y12041606D01*
X14613000Y12173392D01*
X14592047Y12251590D01*
X14592047Y12251592D01*
X14588214Y12265895D01*
X42299500Y12265895D01*
X42299500Y12134106D01*
X42333606Y12006819D01*
X42333607Y12006816D01*
X42333608Y12006814D01*
X42399500Y11892686D01*
X42492686Y11799500D01*
X42606814Y11733608D01*
X42734105Y11699501D01*
X42734106Y11699500D01*
X42734108Y11699500D01*
X42865894Y11699500D01*
X42865894Y11699501D01*
X42993186Y11733608D01*
X43107314Y11799500D01*
X43200500Y11892686D01*
X43266392Y12006814D01*
X43300499Y12134106D01*
X43300500Y12134106D01*
X43300500Y12188767D01*
X68859169Y12188767D01*
X68859169Y12021234D01*
X68891851Y11856925D01*
X68891853Y11856918D01*
X68955965Y11702138D01*
X69049040Y11562842D01*
X69049043Y11562838D01*
X69167507Y11444374D01*
X69306806Y11351297D01*
X69461587Y11287184D01*
X69625902Y11254500D01*
X69625903Y11254500D01*
X69793435Y11254500D01*
X69793436Y11254500D01*
X69957751Y11287184D01*
X70112532Y11351297D01*
X70251831Y11444374D01*
X70370295Y11562838D01*
X70463372Y11702137D01*
X70527485Y11856918D01*
X70560169Y12021233D01*
X70560169Y12188767D01*
X70527485Y12353082D01*
X70463372Y12507863D01*
X70370295Y12647162D01*
X70251831Y12765626D01*
X70204877Y12797000D01*
X70112531Y12858704D01*
X69957751Y12922816D01*
X69957744Y12922818D01*
X69831936Y12947842D01*
X69793436Y12955500D01*
X69625902Y12955500D01*
X69593397Y12949035D01*
X69461593Y12922818D01*
X69461586Y12922816D01*
X69306806Y12858704D01*
X69167510Y12765629D01*
X69049040Y12647159D01*
X68955965Y12507863D01*
X68891853Y12353083D01*
X68891851Y12353076D01*
X68859169Y12188767D01*
X43300500Y12188767D01*
X43300500Y12265894D01*
X43300499Y12265895D01*
X43266393Y12393182D01*
X43266392Y12393186D01*
X43200500Y12507314D01*
X43107314Y12600500D01*
X43065778Y12624481D01*
X42993190Y12666390D01*
X42993181Y12666394D01*
X42865894Y12700500D01*
X42865892Y12700500D01*
X42734108Y12700500D01*
X42734106Y12700500D01*
X42606818Y12666394D01*
X42606809Y12666390D01*
X42492685Y12600500D01*
X42399500Y12507315D01*
X42333610Y12393191D01*
X42333606Y12393182D01*
X42299500Y12265895D01*
X14588214Y12265895D01*
X14578893Y12300682D01*
X14578892Y12300686D01*
X14513000Y12414814D01*
X14419814Y12508000D01*
X14404226Y12517000D01*
X14305690Y12573890D01*
X14305681Y12573894D01*
X14178394Y12608000D01*
X14178392Y12608000D01*
X14046608Y12608000D01*
X14046606Y12608000D01*
X13919318Y12573894D01*
X13919309Y12573890D01*
X13805185Y12508000D01*
X13712000Y12414815D01*
X13646110Y12300691D01*
X13646106Y12300682D01*
X13612000Y12173395D01*
X5669573Y12173395D01*
X5640520Y12223716D01*
X5528716Y12335520D01*
X5391784Y12414577D01*
X5391781Y12414578D01*
X5389467Y12415914D01*
X5354989Y12460847D01*
X5362381Y12517000D01*
X5389467Y12544086D01*
X5391781Y12545423D01*
X5391784Y12545423D01*
X5528716Y12624480D01*
X5640520Y12736284D01*
X5719577Y12873216D01*
X5760499Y13025941D01*
X5760500Y13025941D01*
X5760500Y13184059D01*
X5760499Y13184060D01*
X5740018Y13260495D01*
X5719577Y13336784D01*
X5704213Y13363395D01*
X13602000Y13363395D01*
X13602000Y13231606D01*
X13636106Y13104319D01*
X13636110Y13104310D01*
X13646025Y13087137D01*
X13702000Y12990186D01*
X13795186Y12897000D01*
X13909314Y12831108D01*
X14036605Y12797001D01*
X14036606Y12797000D01*
X14036608Y12797000D01*
X14168394Y12797000D01*
X14168394Y12797001D01*
X14295686Y12831108D01*
X14409814Y12897000D01*
X14455418Y12942604D01*
X31004500Y12942604D01*
X31004500Y12817397D01*
X31036904Y12696465D01*
X31078464Y12624481D01*
X31099505Y12588036D01*
X31188036Y12499505D01*
X31296464Y12436905D01*
X31296463Y12436905D01*
X31366286Y12418196D01*
X31417396Y12404501D01*
X31417397Y12404500D01*
X31417399Y12404500D01*
X31542603Y12404500D01*
X31542603Y12404501D01*
X31663536Y12436905D01*
X31771964Y12499505D01*
X31860495Y12588036D01*
X31923095Y12696464D01*
X31955499Y12817397D01*
X31955500Y12817397D01*
X31955500Y12942603D01*
X31955499Y12942604D01*
X31954095Y12947842D01*
X31923095Y13063536D01*
X31860495Y13171964D01*
X31771964Y13260495D01*
X31771963Y13260496D01*
X31663534Y13323096D01*
X31663536Y13323096D01*
X31542603Y13355500D01*
X31542601Y13355500D01*
X31417399Y13355500D01*
X31417397Y13355500D01*
X31296464Y13323096D01*
X31188036Y13260496D01*
X31099504Y13171964D01*
X31036904Y13063536D01*
X31004500Y12942604D01*
X14455418Y12942604D01*
X14503000Y12990186D01*
X14568892Y13104314D01*
X14602999Y13231606D01*
X14603000Y13231606D01*
X14603000Y13363394D01*
X14602999Y13363395D01*
X14591520Y13406234D01*
X14568892Y13490686D01*
X14503000Y13604814D01*
X14409814Y13698000D01*
X14340390Y13738082D01*
X14295690Y13763890D01*
X14295681Y13763894D01*
X14168394Y13798000D01*
X14168392Y13798000D01*
X14036608Y13798000D01*
X14036606Y13798000D01*
X13909318Y13763894D01*
X13909309Y13763890D01*
X13795185Y13698000D01*
X13702000Y13604815D01*
X13636110Y13490691D01*
X13636106Y13490682D01*
X13602000Y13363395D01*
X5704213Y13363395D01*
X5640520Y13473716D01*
X5528716Y13585520D01*
X5391784Y13664577D01*
X5391781Y13664578D01*
X5391779Y13664579D01*
X5239059Y13705500D01*
X5239057Y13705500D01*
X5080943Y13705500D01*
X5080941Y13705500D01*
X4928220Y13664579D01*
X4928214Y13664576D01*
X4791283Y13585520D01*
X4679480Y13473717D01*
X4600424Y13336786D01*
X4600421Y13336780D01*
X4559500Y13184060D01*
X4559500Y13025941D01*
X4600421Y12873221D01*
X4600422Y12873219D01*
X4600423Y12873216D01*
X4679480Y12736284D01*
X4791284Y12624480D01*
X4928216Y12545423D01*
X4930532Y12544086D01*
X4965010Y12499153D01*
X4957618Y12443000D01*
X4930532Y12415914D01*
X4791283Y12335520D01*
X4679480Y12223717D01*
X4600424Y12086786D01*
X4600421Y12086780D01*
X4559500Y11934060D01*
X4559500Y11775941D01*
X4600421Y11623221D01*
X4600422Y11623219D01*
X4600423Y11623216D01*
X4679480Y11486284D01*
X4791284Y11374480D01*
X4928216Y11295423D01*
X4930532Y11294086D01*
X4965010Y11249153D01*
X4957618Y11193000D01*
X4930532Y11165914D01*
X4791283Y11085520D01*
X4679480Y10973717D01*
X4600424Y10836786D01*
X4600421Y10836780D01*
X4559500Y10684060D01*
X4559500Y10525941D01*
X4600421Y10373221D01*
X4600422Y10373219D01*
X4600423Y10373216D01*
X4679479Y10236286D01*
X4679480Y10236284D01*
X4679554Y10236210D01*
X4679574Y10236161D01*
X4682433Y10232435D01*
X4681434Y10231670D01*
X4701228Y10183884D01*
X4679554Y10131558D01*
X4655547Y10115517D01*
X4531061Y10063953D01*
X4400030Y9976402D01*
X4400029Y9976400D01*
X4288600Y9864971D01*
X4288598Y9864970D01*
X4201047Y9733939D01*
X4140743Y9588352D01*
X4140741Y9588345D01*
X4119190Y9480001D01*
X490500Y9480001D01*
X490500Y14012604D01*
X29544500Y14012604D01*
X29544500Y13887397D01*
X29576904Y13766465D01*
X29635729Y13664577D01*
X29639505Y13658036D01*
X29728036Y13569505D01*
X29836464Y13506905D01*
X29836463Y13506905D01*
X29896974Y13490691D01*
X29957396Y13474501D01*
X29957397Y13474500D01*
X29957399Y13474500D01*
X30082603Y13474500D01*
X30082603Y13474501D01*
X30203536Y13506905D01*
X30311964Y13569505D01*
X30316226Y13573767D01*
X66019169Y13573767D01*
X66019169Y13406234D01*
X66051851Y13241925D01*
X66051853Y13241918D01*
X66115965Y13087138D01*
X66156856Y13025941D01*
X66209043Y12947838D01*
X66327507Y12829374D01*
X66466806Y12736297D01*
X66621587Y12672184D01*
X66785902Y12639500D01*
X66785903Y12639500D01*
X66953435Y12639500D01*
X66953436Y12639500D01*
X67117751Y12672184D01*
X67272532Y12736297D01*
X67411831Y12829374D01*
X67530295Y12947838D01*
X67623372Y13087137D01*
X67687485Y13241918D01*
X67720169Y13406233D01*
X67720169Y13573767D01*
X67687485Y13738082D01*
X67623372Y13892863D01*
X67530295Y14032162D01*
X67411831Y14150626D01*
X67272532Y14243703D01*
X67272533Y14243703D01*
X67272531Y14243704D01*
X67117751Y14307816D01*
X67117744Y14307818D01*
X66991936Y14332842D01*
X66953436Y14340500D01*
X66785902Y14340500D01*
X66753397Y14334035D01*
X66621593Y14307818D01*
X66621586Y14307816D01*
X66466806Y14243704D01*
X66327510Y14150629D01*
X66209040Y14032159D01*
X66115965Y13892863D01*
X66051853Y13738083D01*
X66051851Y13738076D01*
X66019169Y13573767D01*
X30316226Y13573767D01*
X30400495Y13658036D01*
X30463095Y13766464D01*
X30495499Y13887397D01*
X30495500Y13887397D01*
X30495500Y14012603D01*
X30495499Y14012604D01*
X30492311Y14024500D01*
X30463095Y14133536D01*
X30400495Y14241964D01*
X30311964Y14330495D01*
X30311963Y14330496D01*
X30203534Y14393096D01*
X30203536Y14393096D01*
X30082603Y14425500D01*
X30082601Y14425500D01*
X29957399Y14425500D01*
X29957397Y14425500D01*
X29836464Y14393096D01*
X29728036Y14330496D01*
X29639504Y14241964D01*
X29576904Y14133536D01*
X29544500Y14012604D01*
X490500Y14012604D01*
X490500Y14958767D01*
X68859169Y14958767D01*
X68859169Y14791234D01*
X68891851Y14626925D01*
X68891853Y14626918D01*
X68955965Y14472138D01*
X69008780Y14393095D01*
X69049043Y14332838D01*
X69167507Y14214374D01*
X69306806Y14121297D01*
X69461587Y14057184D01*
X69625902Y14024500D01*
X69625903Y14024500D01*
X69793435Y14024500D01*
X69793436Y14024500D01*
X69957751Y14057184D01*
X70112532Y14121297D01*
X70251831Y14214374D01*
X70370295Y14332838D01*
X70463372Y14472137D01*
X70527485Y14626918D01*
X70560169Y14791233D01*
X70560169Y14958767D01*
X70527485Y15123082D01*
X70463372Y15277863D01*
X70370295Y15417162D01*
X70251831Y15535626D01*
X70171386Y15589378D01*
X70112531Y15628704D01*
X69957751Y15692816D01*
X69957744Y15692818D01*
X69831936Y15717842D01*
X69793436Y15725500D01*
X69625902Y15725500D01*
X69593397Y15719035D01*
X69461593Y15692818D01*
X69461586Y15692816D01*
X69306806Y15628704D01*
X69167510Y15535629D01*
X69049040Y15417159D01*
X68955965Y15277863D01*
X68891853Y15123083D01*
X68891851Y15123076D01*
X68859169Y14958767D01*
X490500Y14958767D01*
X490500Y15848459D01*
X31746510Y15848459D01*
X31746510Y15716670D01*
X31780616Y15589383D01*
X31780617Y15589380D01*
X31780618Y15589378D01*
X31846510Y15475250D01*
X31939696Y15382064D01*
X32053824Y15316172D01*
X32181115Y15282065D01*
X32181116Y15282064D01*
X32181118Y15282064D01*
X32312904Y15282064D01*
X32312904Y15282065D01*
X32440196Y15316172D01*
X32554324Y15382064D01*
X32647510Y15475250D01*
X32713402Y15589378D01*
X32747509Y15716670D01*
X32747510Y15716670D01*
X32747510Y15848458D01*
X32747509Y15848459D01*
X32746376Y15852686D01*
X32713402Y15975750D01*
X32647510Y16089878D01*
X32554324Y16183064D01*
X32480144Y16225892D01*
X32480139Y16225895D01*
X61649500Y16225895D01*
X61649500Y16094106D01*
X61683606Y15966819D01*
X61683607Y15966816D01*
X61683608Y15966814D01*
X61749500Y15852686D01*
X61842686Y15759500D01*
X61956814Y15693608D01*
X62084105Y15659501D01*
X62084106Y15659500D01*
X62084108Y15659500D01*
X62215894Y15659500D01*
X62215894Y15659501D01*
X62343186Y15693608D01*
X62457314Y15759500D01*
X62550500Y15852686D01*
X62616392Y15966814D01*
X62650499Y16094106D01*
X62650500Y16094106D01*
X62650500Y16225894D01*
X62650499Y16225895D01*
X62643615Y16251589D01*
X62639782Y16265895D01*
X63059500Y16265895D01*
X63059500Y16134106D01*
X63093606Y16006819D01*
X63093607Y16006816D01*
X63093608Y16006814D01*
X63159500Y15892686D01*
X63252686Y15799500D01*
X63366814Y15733608D01*
X63494105Y15699501D01*
X63494106Y15699500D01*
X63494108Y15699500D01*
X63625894Y15699500D01*
X63625894Y15699501D01*
X63753186Y15733608D01*
X63867314Y15799500D01*
X63960500Y15892686D01*
X64026392Y16006814D01*
X64060499Y16134106D01*
X64060500Y16134106D01*
X64060500Y16265894D01*
X64060499Y16265895D01*
X64043792Y16328249D01*
X64039634Y16343767D01*
X66019169Y16343767D01*
X66019169Y16176234D01*
X66051851Y16011925D01*
X66051853Y16011918D01*
X66115965Y15857138D01*
X66198506Y15733607D01*
X66209043Y15717838D01*
X66327507Y15599374D01*
X66466806Y15506297D01*
X66621587Y15442184D01*
X66785902Y15409500D01*
X66785903Y15409500D01*
X66953435Y15409500D01*
X66953436Y15409500D01*
X67117751Y15442184D01*
X67272532Y15506297D01*
X67411831Y15599374D01*
X67530295Y15717838D01*
X67623372Y15857137D01*
X67687485Y16011918D01*
X67720169Y16176233D01*
X67720169Y16343767D01*
X67687485Y16508082D01*
X67623372Y16662863D01*
X67530295Y16802162D01*
X67411831Y16920626D01*
X67272532Y17013703D01*
X67272533Y17013703D01*
X67272531Y17013704D01*
X67117751Y17077816D01*
X67117744Y17077818D01*
X66991936Y17102842D01*
X66953436Y17110500D01*
X66785902Y17110500D01*
X66753397Y17104035D01*
X66621593Y17077818D01*
X66621586Y17077816D01*
X66466806Y17013704D01*
X66327510Y16920629D01*
X66209040Y16802159D01*
X66115965Y16662863D01*
X66051853Y16508083D01*
X66051851Y16508076D01*
X66019169Y16343767D01*
X64039634Y16343767D01*
X64026393Y16393182D01*
X64026392Y16393186D01*
X63960500Y16507314D01*
X63867314Y16600500D01*
X63753190Y16666390D01*
X63753181Y16666394D01*
X63625894Y16700500D01*
X63625892Y16700500D01*
X63494108Y16700500D01*
X63494106Y16700500D01*
X63366818Y16666394D01*
X63366809Y16666390D01*
X63252685Y16600500D01*
X63159500Y16507315D01*
X63093610Y16393191D01*
X63093606Y16393182D01*
X63059500Y16265895D01*
X62639782Y16265895D01*
X62616393Y16353182D01*
X62616392Y16353186D01*
X62550500Y16467314D01*
X62457314Y16560500D01*
X62388032Y16600500D01*
X62343190Y16626390D01*
X62343181Y16626394D01*
X62215894Y16660500D01*
X62215892Y16660500D01*
X62084108Y16660500D01*
X62084106Y16660500D01*
X61956818Y16626394D01*
X61956809Y16626390D01*
X61842685Y16560500D01*
X61749500Y16467315D01*
X61683610Y16353191D01*
X61683606Y16353182D01*
X61649500Y16225895D01*
X32480139Y16225895D01*
X32440200Y16248954D01*
X32440191Y16248958D01*
X32312904Y16283064D01*
X32312902Y16283064D01*
X32181118Y16283064D01*
X32181116Y16283064D01*
X32053828Y16248958D01*
X32053819Y16248954D01*
X31939695Y16183064D01*
X31846510Y16089879D01*
X31780620Y15975755D01*
X31780616Y15975746D01*
X31746510Y15848459D01*
X490500Y15848459D01*
X490500Y17735001D01*
X1152231Y17735001D01*
X1152232Y17735000D01*
X1770758Y17735000D01*
X1765444Y17725796D01*
X1745000Y17649496D01*
X1745000Y17570504D01*
X1765444Y17494204D01*
X1770758Y17485000D01*
X1152231Y17485000D01*
X1179584Y17347487D01*
X1179587Y17347476D01*
X1247427Y17183695D01*
X1345923Y17036284D01*
X1471283Y16910924D01*
X1618695Y16812428D01*
X1618694Y16812428D01*
X1782475Y16744588D01*
X1782486Y16744585D01*
X1956359Y16710000D01*
X2320000Y16710000D01*
X2320000Y17310000D01*
X2570000Y17310000D01*
X2570000Y16710000D01*
X2933641Y16710000D01*
X3107513Y16744585D01*
X3107524Y16744588D01*
X3271305Y16812428D01*
X3418716Y16910924D01*
X3418718Y16910925D01*
X3544075Y17036282D01*
X3544076Y17036284D01*
X3642572Y17183695D01*
X3710412Y17347476D01*
X3710415Y17347487D01*
X3737768Y17485000D01*
X3119242Y17485000D01*
X3124556Y17494204D01*
X3145000Y17570504D01*
X3145000Y17649496D01*
X3124556Y17725796D01*
X3119242Y17735000D01*
X3737768Y17735000D01*
X3737768Y17735001D01*
X3710415Y17872514D01*
X3710412Y17872525D01*
X3648322Y18022424D01*
X3642572Y18036306D01*
X3636165Y18045895D01*
X25889500Y18045895D01*
X25889500Y17914106D01*
X25923606Y17786819D01*
X25923610Y17786810D01*
X25958837Y17725796D01*
X25989500Y17672686D01*
X26082686Y17579500D01*
X26196814Y17513608D01*
X26324105Y17479501D01*
X26324106Y17479500D01*
X26324108Y17479500D01*
X26455894Y17479500D01*
X26455894Y17479501D01*
X26583186Y17513608D01*
X26697314Y17579500D01*
X26790500Y17672686D01*
X26850088Y17775895D01*
X33919500Y17775895D01*
X33919500Y17644106D01*
X33953606Y17516819D01*
X33953610Y17516810D01*
X33966662Y17494204D01*
X34019500Y17402686D01*
X34112686Y17309500D01*
X34226814Y17243608D01*
X34354105Y17209501D01*
X34354106Y17209500D01*
X34354108Y17209500D01*
X34485894Y17209500D01*
X34485894Y17209501D01*
X34613186Y17243608D01*
X34727314Y17309500D01*
X34820500Y17402686D01*
X34886392Y17516814D01*
X34920499Y17644106D01*
X34920500Y17644106D01*
X34920500Y17728767D01*
X68859169Y17728767D01*
X68859169Y17561234D01*
X68891851Y17396925D01*
X68891853Y17396918D01*
X68955965Y17242138D01*
X68977773Y17209500D01*
X69049043Y17102838D01*
X69167507Y16984374D01*
X69306806Y16891297D01*
X69461587Y16827184D01*
X69625902Y16794500D01*
X69625903Y16794500D01*
X69793435Y16794500D01*
X69793436Y16794500D01*
X69957751Y16827184D01*
X70112532Y16891297D01*
X70251831Y16984374D01*
X70370295Y17102838D01*
X70463372Y17242137D01*
X70527485Y17396918D01*
X70560169Y17561233D01*
X70560169Y17728767D01*
X70527485Y17893082D01*
X70463372Y18047863D01*
X70370295Y18187162D01*
X70251831Y18305626D01*
X70251827Y18305629D01*
X70112531Y18398704D01*
X69957751Y18462816D01*
X69957744Y18462818D01*
X69831936Y18487842D01*
X69793436Y18495500D01*
X69625902Y18495500D01*
X69593397Y18489035D01*
X69461593Y18462818D01*
X69461586Y18462816D01*
X69306806Y18398704D01*
X69167510Y18305629D01*
X69049040Y18187159D01*
X68955965Y18047863D01*
X68891853Y17893083D01*
X68891851Y17893076D01*
X68859169Y17728767D01*
X34920500Y17728767D01*
X34920500Y17775894D01*
X34920499Y17775895D01*
X34917574Y17786810D01*
X34886392Y17903186D01*
X34820500Y18017314D01*
X34727314Y18110500D01*
X34618739Y18173186D01*
X34613190Y18176390D01*
X34613181Y18176394D01*
X34485894Y18210500D01*
X34485892Y18210500D01*
X34354108Y18210500D01*
X34354106Y18210500D01*
X34226818Y18176394D01*
X34226809Y18176390D01*
X34112685Y18110500D01*
X34019500Y18017315D01*
X33953610Y17903191D01*
X33953606Y17903182D01*
X33919500Y17775895D01*
X26850088Y17775895D01*
X26856392Y17786814D01*
X26890499Y17914106D01*
X26890500Y17914106D01*
X26890500Y18045894D01*
X26890499Y18045895D01*
X26873188Y18110500D01*
X26856392Y18173186D01*
X26790500Y18287314D01*
X26697314Y18380500D01*
X26665784Y18398704D01*
X26583190Y18446390D01*
X26583181Y18446394D01*
X26455894Y18480500D01*
X26455892Y18480500D01*
X26324108Y18480500D01*
X26324106Y18480500D01*
X26196818Y18446394D01*
X26196809Y18446390D01*
X26082685Y18380500D01*
X25989500Y18287315D01*
X25923610Y18173191D01*
X25923606Y18173182D01*
X25889500Y18045895D01*
X3636165Y18045895D01*
X3544076Y18183717D01*
X3418716Y18309077D01*
X3271304Y18407573D01*
X3271305Y18407573D01*
X3107524Y18475413D01*
X3107513Y18475416D01*
X2933641Y18510000D01*
X2570000Y18510000D01*
X2570000Y17910000D01*
X2320000Y17910000D01*
X2320000Y18510000D01*
X1956359Y18510000D01*
X1782486Y18475416D01*
X1782475Y18475413D01*
X1618694Y18407573D01*
X1471283Y18309077D01*
X1471282Y18309075D01*
X1345925Y18183718D01*
X1345923Y18183717D01*
X1247427Y18036306D01*
X1179587Y17872525D01*
X1179584Y17872514D01*
X1152231Y17735001D01*
X490500Y17735001D01*
X490500Y19117086D01*
X5539500Y19117086D01*
X5539500Y18962915D01*
X5579399Y18814010D01*
X5579401Y18814005D01*
X5656481Y18680499D01*
X5656482Y18680498D01*
X5656484Y18680495D01*
X5765495Y18571484D01*
X5899006Y18494401D01*
X5899007Y18494401D01*
X5899009Y18494400D01*
X5969858Y18475416D01*
X6047914Y18454501D01*
X6047915Y18454500D01*
X6047917Y18454500D01*
X6202085Y18454500D01*
X6202085Y18454501D01*
X6350994Y18494401D01*
X6484505Y18571484D01*
X6593516Y18680495D01*
X6670599Y18814006D01*
X6710499Y18962915D01*
X6710500Y18962915D01*
X6710500Y19117085D01*
X6710499Y19117086D01*
X6705281Y19136558D01*
X6670599Y19265994D01*
X6670598Y19265996D01*
X6593518Y19399502D01*
X6593517Y19399503D01*
X6593516Y19399505D01*
X6484505Y19508516D01*
X6484502Y19508518D01*
X6484501Y19508519D01*
X6431725Y19538989D01*
X6350995Y19585599D01*
X6350990Y19585601D01*
X6299342Y19599440D01*
X19208200Y19599440D01*
X19208200Y19450561D01*
X19237243Y19304548D01*
X19237245Y19304541D01*
X19294218Y19166995D01*
X19374524Y19046810D01*
X19376932Y19043206D01*
X19482206Y18937932D01*
X19605994Y18855219D01*
X19743541Y18798245D01*
X19889560Y18769200D01*
X19889561Y18769200D01*
X20038439Y18769200D01*
X20038440Y18769200D01*
X20184459Y18798245D01*
X20322006Y18855219D01*
X20445794Y18937932D01*
X20551068Y19043206D01*
X20633781Y19166994D01*
X20690755Y19304541D01*
X20719800Y19450560D01*
X20719800Y19599440D01*
X21240200Y19599440D01*
X21240200Y19450561D01*
X21269243Y19304548D01*
X21269245Y19304541D01*
X21326218Y19166995D01*
X21406524Y19046810D01*
X21408932Y19043206D01*
X21514206Y18937932D01*
X21637994Y18855219D01*
X21775541Y18798245D01*
X21921560Y18769200D01*
X21921561Y18769200D01*
X22070439Y18769200D01*
X22070440Y18769200D01*
X22216459Y18798245D01*
X22354006Y18855219D01*
X22477794Y18937932D01*
X22583068Y19043206D01*
X22665781Y19166994D01*
X22722755Y19304541D01*
X22723024Y19305895D01*
X26039500Y19305895D01*
X26039500Y19174106D01*
X26073606Y19046819D01*
X26073610Y19046810D01*
X26075691Y19043206D01*
X26139500Y18932686D01*
X26232686Y18839500D01*
X26346814Y18773608D01*
X26474105Y18739501D01*
X26474106Y18739500D01*
X26474108Y18739500D01*
X26605894Y18739500D01*
X26605894Y18739501D01*
X26733186Y18773608D01*
X26847314Y18839500D01*
X26940500Y18932686D01*
X27006392Y19046814D01*
X27024332Y19113767D01*
X66019169Y19113767D01*
X66019169Y18946234D01*
X66051851Y18781925D01*
X66051853Y18781918D01*
X66115965Y18627138D01*
X66204658Y18494400D01*
X66209043Y18487838D01*
X66327507Y18369374D01*
X66466806Y18276297D01*
X66621587Y18212184D01*
X66785902Y18179500D01*
X66785903Y18179500D01*
X66953435Y18179500D01*
X66953436Y18179500D01*
X67117751Y18212184D01*
X67272532Y18276297D01*
X67411831Y18369374D01*
X67530295Y18487838D01*
X67623372Y18627137D01*
X67687485Y18781918D01*
X67720169Y18946233D01*
X67720169Y19113767D01*
X67687485Y19278082D01*
X67623372Y19432863D01*
X67530295Y19572162D01*
X67411831Y19690626D01*
X67329768Y19745459D01*
X67272531Y19783704D01*
X67117751Y19847816D01*
X67117744Y19847818D01*
X66991936Y19872842D01*
X66953436Y19880500D01*
X66785902Y19880500D01*
X66753397Y19874035D01*
X66621593Y19847818D01*
X66621586Y19847816D01*
X66466806Y19783704D01*
X66327510Y19690629D01*
X66209040Y19572159D01*
X66115965Y19432863D01*
X66051853Y19278083D01*
X66051851Y19278076D01*
X66019169Y19113767D01*
X27024332Y19113767D01*
X27040499Y19174106D01*
X27040500Y19174106D01*
X27040500Y19305894D01*
X27040499Y19305895D01*
X27015417Y19399502D01*
X27006392Y19433186D01*
X26940500Y19547314D01*
X26847314Y19640500D01*
X26811293Y19661297D01*
X26733190Y19706390D01*
X26733181Y19706394D01*
X26605894Y19740500D01*
X26605892Y19740500D01*
X26474108Y19740500D01*
X26474106Y19740500D01*
X26346818Y19706394D01*
X26346809Y19706390D01*
X26232685Y19640500D01*
X26139500Y19547315D01*
X26073610Y19433191D01*
X26073606Y19433182D01*
X26039500Y19305895D01*
X22723024Y19305895D01*
X22751800Y19450560D01*
X22751800Y19599440D01*
X22722755Y19745459D01*
X22665781Y19883006D01*
X22583068Y20006794D01*
X22477794Y20112068D01*
X22395706Y20166918D01*
X22354005Y20194782D01*
X22216459Y20251755D01*
X22216452Y20251757D01*
X22106450Y20273638D01*
X22070440Y20280800D01*
X21921560Y20280800D01*
X21892674Y20275055D01*
X21775547Y20251757D01*
X21775540Y20251755D01*
X21637994Y20194782D01*
X21514209Y20112071D01*
X21408929Y20006791D01*
X21326218Y19883006D01*
X21269245Y19745460D01*
X21269243Y19745453D01*
X21240200Y19599440D01*
X20719800Y19599440D01*
X20690755Y19745459D01*
X20633781Y19883006D01*
X20551068Y20006794D01*
X20445794Y20112068D01*
X20363706Y20166918D01*
X20322005Y20194782D01*
X20184459Y20251755D01*
X20184452Y20251757D01*
X20074450Y20273638D01*
X20038440Y20280800D01*
X19889560Y20280800D01*
X19860674Y20275055D01*
X19743547Y20251757D01*
X19743540Y20251755D01*
X19605994Y20194782D01*
X19482209Y20112071D01*
X19376929Y20006791D01*
X19294218Y19883006D01*
X19237245Y19745460D01*
X19237243Y19745453D01*
X19208200Y19599440D01*
X6299342Y19599440D01*
X6202085Y19625500D01*
X6202083Y19625500D01*
X6047917Y19625500D01*
X6047915Y19625500D01*
X5899009Y19585601D01*
X5899004Y19585599D01*
X5765498Y19508519D01*
X5656481Y19399502D01*
X5579401Y19265996D01*
X5579399Y19265991D01*
X5539500Y19117086D01*
X490500Y19117086D01*
X490500Y21543958D01*
X16992050Y21543958D01*
X16992050Y21316043D01*
X17027703Y21090941D01*
X17027706Y21090928D01*
X17098130Y20874183D01*
X17098132Y20874179D01*
X17201600Y20671113D01*
X17201603Y20671107D01*
X17326816Y20498767D01*
X17335566Y20486724D01*
X17496724Y20325566D01*
X17681109Y20191602D01*
X17837197Y20112071D01*
X17884178Y20088133D01*
X17884182Y20088131D01*
X18100927Y20017707D01*
X18100933Y20017706D01*
X18100938Y20017704D01*
X18169820Y20006794D01*
X18326042Y19982050D01*
X18326044Y19982050D01*
X18553958Y19982050D01*
X18643998Y19996312D01*
X18779062Y20017704D01*
X18779069Y20017707D01*
X18779072Y20017707D01*
X18995817Y20088131D01*
X18995817Y20088132D01*
X18995820Y20088132D01*
X19198891Y20191602D01*
X19383276Y20325566D01*
X19544434Y20486724D01*
X19678398Y20671109D01*
X19781868Y20874180D01*
X19816960Y20982184D01*
X19852293Y21090928D01*
X19852293Y21090931D01*
X19852296Y21090938D01*
X19887950Y21316044D01*
X19887950Y21543956D01*
X19887950Y21543958D01*
X22072050Y21543958D01*
X22072050Y21316043D01*
X22107703Y21090941D01*
X22107706Y21090928D01*
X22178130Y20874183D01*
X22178132Y20874179D01*
X22281600Y20671113D01*
X22281603Y20671107D01*
X22406816Y20498767D01*
X22415566Y20486724D01*
X22576724Y20325566D01*
X22761109Y20191602D01*
X22917197Y20112071D01*
X22964178Y20088133D01*
X22964182Y20088131D01*
X23180927Y20017707D01*
X23180933Y20017706D01*
X23180938Y20017704D01*
X23249820Y20006794D01*
X23406042Y19982050D01*
X23406044Y19982050D01*
X23633958Y19982050D01*
X23723998Y19996312D01*
X23859062Y20017704D01*
X23859069Y20017707D01*
X23859072Y20017707D01*
X24075817Y20088131D01*
X24075817Y20088132D01*
X24075820Y20088132D01*
X24278891Y20191602D01*
X24463276Y20325566D01*
X24624434Y20486724D01*
X24633184Y20498767D01*
X68859169Y20498767D01*
X68859169Y20331234D01*
X68891851Y20166925D01*
X68891853Y20166918D01*
X68955965Y20012138D01*
X69042249Y19883006D01*
X69049043Y19872838D01*
X69167507Y19754374D01*
X69306806Y19661297D01*
X69461587Y19597184D01*
X69625902Y19564500D01*
X69625903Y19564500D01*
X69793435Y19564500D01*
X69793436Y19564500D01*
X69957751Y19597184D01*
X70112532Y19661297D01*
X70251831Y19754374D01*
X70370295Y19872838D01*
X70463372Y20012137D01*
X70527485Y20166918D01*
X70560169Y20331233D01*
X70560169Y20498767D01*
X70527485Y20663082D01*
X70463372Y20817863D01*
X70370295Y20957162D01*
X70251831Y21075626D01*
X70251827Y21075629D01*
X70112531Y21168704D01*
X69957751Y21232816D01*
X69957744Y21232818D01*
X69831936Y21257842D01*
X69793436Y21265500D01*
X69625902Y21265500D01*
X69593397Y21259035D01*
X69461593Y21232818D01*
X69461586Y21232816D01*
X69306806Y21168704D01*
X69167510Y21075629D01*
X69049040Y20957159D01*
X68955965Y20817863D01*
X68891853Y20663083D01*
X68891851Y20663076D01*
X68859169Y20498767D01*
X24633184Y20498767D01*
X24758398Y20671109D01*
X24861868Y20874180D01*
X24896960Y20982184D01*
X24932293Y21090928D01*
X24932293Y21090931D01*
X24932296Y21090938D01*
X24967950Y21316044D01*
X24967950Y21543956D01*
X24961528Y21584500D01*
X24933227Y21763182D01*
X24932296Y21769062D01*
X24932294Y21769067D01*
X24932293Y21769073D01*
X24861870Y21985815D01*
X24861868Y21985818D01*
X24861868Y21985820D01*
X24759925Y22185895D01*
X38059500Y22185895D01*
X38059500Y22054106D01*
X38093606Y21926819D01*
X38093607Y21926816D01*
X38093608Y21926814D01*
X38159500Y21812686D01*
X38252686Y21719500D01*
X38366814Y21653608D01*
X38494105Y21619501D01*
X38494106Y21619500D01*
X38494108Y21619500D01*
X38625894Y21619500D01*
X38625894Y21619501D01*
X38753186Y21653608D01*
X38867314Y21719500D01*
X38960500Y21812686D01*
X39026392Y21926814D01*
X39059639Y22050895D01*
X57689831Y22050895D01*
X57689831Y21919106D01*
X57723937Y21791819D01*
X57723941Y21791810D01*
X57740467Y21763186D01*
X57789831Y21677686D01*
X57883017Y21584500D01*
X57997145Y21518608D01*
X58124436Y21484501D01*
X58124437Y21484500D01*
X58124439Y21484500D01*
X58256225Y21484500D01*
X58256225Y21484501D01*
X58383517Y21518608D01*
X58497645Y21584500D01*
X58549040Y21635895D01*
X58969500Y21635895D01*
X58969500Y21504106D01*
X59003606Y21376819D01*
X59003610Y21376810D01*
X59041043Y21311975D01*
X59069500Y21262686D01*
X59162686Y21169500D01*
X59276814Y21103608D01*
X59404105Y21069501D01*
X59404106Y21069500D01*
X59404108Y21069500D01*
X59535894Y21069500D01*
X59535894Y21069501D01*
X59663186Y21103608D01*
X59777314Y21169500D01*
X59870500Y21262686D01*
X59936392Y21376814D01*
X59970499Y21504106D01*
X59970500Y21504106D01*
X59970500Y21571060D01*
X60629831Y21571060D01*
X60629831Y21439271D01*
X60663937Y21311984D01*
X60663938Y21311981D01*
X60663939Y21311979D01*
X60729831Y21197851D01*
X60823017Y21104665D01*
X60937145Y21038773D01*
X61064436Y21004666D01*
X61064437Y21004665D01*
X61064439Y21004665D01*
X61196225Y21004665D01*
X61196225Y21004666D01*
X61323517Y21038773D01*
X61437645Y21104665D01*
X61530831Y21197851D01*
X61596723Y21311979D01*
X61630830Y21439271D01*
X61630831Y21439271D01*
X61630831Y21571059D01*
X61630830Y21571060D01*
X61617850Y21619501D01*
X61596723Y21698351D01*
X61530831Y21812479D01*
X61459543Y21883767D01*
X66019169Y21883767D01*
X66019169Y21716234D01*
X66051851Y21551925D01*
X66051853Y21551918D01*
X66115965Y21397138D01*
X66209040Y21257842D01*
X66209043Y21257838D01*
X66327507Y21139374D01*
X66466806Y21046297D01*
X66621587Y20982184D01*
X66785902Y20949500D01*
X66785903Y20949500D01*
X66953435Y20949500D01*
X66953436Y20949500D01*
X67117751Y20982184D01*
X67272532Y21046297D01*
X67411831Y21139374D01*
X67530295Y21257838D01*
X67623372Y21397137D01*
X67687485Y21551918D01*
X67720169Y21716233D01*
X67720169Y21883767D01*
X67687485Y22048082D01*
X67623372Y22202863D01*
X67530295Y22342162D01*
X67411831Y22460626D01*
X67322224Y22520500D01*
X67272531Y22553704D01*
X67117751Y22617816D01*
X67117744Y22617818D01*
X66993957Y22642440D01*
X66953436Y22650500D01*
X66785902Y22650500D01*
X66753397Y22644035D01*
X66621593Y22617818D01*
X66621586Y22617816D01*
X66466806Y22553704D01*
X66327510Y22460629D01*
X66209040Y22342159D01*
X66115965Y22202863D01*
X66051853Y22048083D01*
X66051851Y22048076D01*
X66019169Y21883767D01*
X61459543Y21883767D01*
X61437645Y21905665D01*
X61325348Y21970500D01*
X61323521Y21971555D01*
X61323512Y21971559D01*
X61196225Y22005665D01*
X61196223Y22005665D01*
X61064439Y22005665D01*
X61064437Y22005665D01*
X60937149Y21971559D01*
X60937140Y21971555D01*
X60823016Y21905665D01*
X60729831Y21812480D01*
X60663941Y21698356D01*
X60663937Y21698347D01*
X60629831Y21571060D01*
X59970500Y21571060D01*
X59970500Y21635894D01*
X59970499Y21635895D01*
X59948097Y21719500D01*
X59936392Y21763186D01*
X59870500Y21877314D01*
X59777314Y21970500D01*
X59716407Y22005665D01*
X59663190Y22036390D01*
X59663181Y22036394D01*
X59535894Y22070500D01*
X59535892Y22070500D01*
X59404108Y22070500D01*
X59404106Y22070500D01*
X59276818Y22036394D01*
X59276809Y22036390D01*
X59162685Y21970500D01*
X59069500Y21877315D01*
X59003610Y21763191D01*
X59003606Y21763182D01*
X58969500Y21635895D01*
X58549040Y21635895D01*
X58590831Y21677686D01*
X58656723Y21791814D01*
X58690830Y21919106D01*
X58690831Y21919106D01*
X58690831Y22050894D01*
X58690830Y22050895D01*
X58656724Y22178182D01*
X58656723Y22178186D01*
X58590831Y22292314D01*
X58497645Y22385500D01*
X58383521Y22451390D01*
X58383512Y22451394D01*
X58256225Y22485500D01*
X58256223Y22485500D01*
X58124439Y22485500D01*
X58124437Y22485500D01*
X57997149Y22451394D01*
X57997140Y22451390D01*
X57883016Y22385500D01*
X57789831Y22292315D01*
X57723941Y22178191D01*
X57723937Y22178182D01*
X57689831Y22050895D01*
X39059639Y22050895D01*
X39060499Y22054106D01*
X39060500Y22054106D01*
X39060500Y22185894D01*
X39060499Y22185895D01*
X39059695Y22188894D01*
X39026392Y22313186D01*
X38960500Y22427314D01*
X38867314Y22520500D01*
X38809803Y22553704D01*
X38753190Y22586390D01*
X38753181Y22586394D01*
X38625894Y22620500D01*
X38625892Y22620500D01*
X38494108Y22620500D01*
X38494106Y22620500D01*
X38366818Y22586394D01*
X38366809Y22586390D01*
X38252685Y22520500D01*
X38159500Y22427315D01*
X38093610Y22313191D01*
X38093606Y22313182D01*
X38059500Y22185895D01*
X24759925Y22185895D01*
X24758398Y22188891D01*
X24668088Y22313191D01*
X24624437Y22373272D01*
X24624436Y22373273D01*
X24624434Y22373276D01*
X24463276Y22534434D01*
X24463273Y22534437D01*
X24463271Y22534438D01*
X24278893Y22668397D01*
X24278887Y22668400D01*
X24075821Y22771868D01*
X24075817Y22771870D01*
X23859072Y22842294D01*
X23859059Y22842297D01*
X23633958Y22877950D01*
X23633956Y22877950D01*
X23406044Y22877950D01*
X23406042Y22877950D01*
X23180940Y22842297D01*
X23180927Y22842294D01*
X22964182Y22771870D01*
X22964178Y22771868D01*
X22761112Y22668400D01*
X22761106Y22668397D01*
X22576728Y22534438D01*
X22415562Y22373272D01*
X22281603Y22188894D01*
X22281600Y22188888D01*
X22178132Y21985822D01*
X22178130Y21985818D01*
X22107706Y21769073D01*
X22107703Y21769060D01*
X22072050Y21543958D01*
X19887950Y21543958D01*
X19881528Y21584500D01*
X19853227Y21763182D01*
X19852296Y21769062D01*
X19852294Y21769067D01*
X19852293Y21769073D01*
X19781869Y21985818D01*
X19781867Y21985822D01*
X19748711Y22050894D01*
X19678398Y22188891D01*
X19588088Y22313191D01*
X19544437Y22373272D01*
X19544436Y22373273D01*
X19544434Y22373276D01*
X19383276Y22534434D01*
X19383273Y22534437D01*
X19383271Y22534438D01*
X19198893Y22668397D01*
X19198887Y22668400D01*
X18995821Y22771868D01*
X18995817Y22771870D01*
X18779072Y22842294D01*
X18779059Y22842297D01*
X18553958Y22877950D01*
X18553956Y22877950D01*
X18326044Y22877950D01*
X18326042Y22877950D01*
X18100940Y22842297D01*
X18100927Y22842294D01*
X17884182Y22771870D01*
X17884178Y22771868D01*
X17681112Y22668400D01*
X17681106Y22668397D01*
X17496728Y22534438D01*
X17335562Y22373272D01*
X17201603Y22188894D01*
X17201600Y22188888D01*
X17098132Y21985822D01*
X17098130Y21985818D01*
X17027706Y21769073D01*
X17027703Y21769060D01*
X16992050Y21543958D01*
X490500Y21543958D01*
X490500Y23125895D01*
X62539500Y23125895D01*
X62539500Y22994106D01*
X62573606Y22866819D01*
X62573610Y22866810D01*
X62628424Y22771870D01*
X62639500Y22752686D01*
X62732686Y22659500D01*
X62846814Y22593608D01*
X62974105Y22559501D01*
X62974106Y22559500D01*
X62974108Y22559500D01*
X63105894Y22559500D01*
X63105894Y22559501D01*
X63233186Y22593608D01*
X63347314Y22659500D01*
X63440500Y22752686D01*
X63506392Y22866814D01*
X63540499Y22994106D01*
X63540500Y22994106D01*
X63540500Y23125894D01*
X63540499Y23125895D01*
X63506393Y23253182D01*
X63506392Y23253186D01*
X63440500Y23367314D01*
X63347314Y23460500D01*
X63233190Y23526390D01*
X63233181Y23526394D01*
X63105894Y23560500D01*
X63105892Y23560500D01*
X62974108Y23560500D01*
X62974106Y23560500D01*
X62846818Y23526394D01*
X62846809Y23526390D01*
X62732685Y23460500D01*
X62639500Y23367315D01*
X62573610Y23253191D01*
X62573606Y23253182D01*
X62539500Y23125895D01*
X490500Y23125895D01*
X490500Y24897086D01*
X5539500Y24897086D01*
X5539500Y24742915D01*
X5579399Y24594010D01*
X5579401Y24594005D01*
X5656481Y24460499D01*
X5656482Y24460498D01*
X5656484Y24460495D01*
X5765495Y24351484D01*
X5765497Y24351483D01*
X5765498Y24351482D01*
X5899004Y24274402D01*
X5899006Y24274401D01*
X5899007Y24274401D01*
X5899009Y24274400D01*
X5969545Y24255500D01*
X6047914Y24234501D01*
X6047915Y24234500D01*
X6047917Y24234500D01*
X6202085Y24234500D01*
X6202085Y24234501D01*
X6350994Y24274401D01*
X6484505Y24351484D01*
X6593516Y24460495D01*
X6670599Y24594006D01*
X6675376Y24611836D01*
X6704080Y24718958D01*
X16992050Y24718958D01*
X16992050Y24491043D01*
X17027703Y24265941D01*
X17027706Y24265928D01*
X17098130Y24049183D01*
X17098132Y24049179D01*
X17201600Y23846113D01*
X17201603Y23846107D01*
X17295117Y23717397D01*
X17335566Y23661724D01*
X17496724Y23500566D01*
X17496727Y23500564D01*
X17496728Y23500563D01*
X17680127Y23367315D01*
X17681109Y23366602D01*
X17739393Y23336905D01*
X17884178Y23263133D01*
X17884182Y23263131D01*
X18100927Y23192707D01*
X18100933Y23192706D01*
X18100938Y23192704D01*
X18213491Y23174877D01*
X18326042Y23157050D01*
X18326044Y23157050D01*
X18553958Y23157050D01*
X18643998Y23171312D01*
X18779062Y23192704D01*
X18779069Y23192707D01*
X18779072Y23192707D01*
X18995817Y23263131D01*
X18995817Y23263132D01*
X18995820Y23263132D01*
X19198891Y23366602D01*
X19383276Y23500566D01*
X19544434Y23661724D01*
X19678398Y23846109D01*
X19781868Y24049180D01*
X19784049Y24055892D01*
X19852293Y24265928D01*
X19852293Y24265931D01*
X19852296Y24265938D01*
X19887950Y24491044D01*
X19887950Y24679440D01*
X20224200Y24679440D01*
X20224200Y24530561D01*
X20253243Y24384548D01*
X20253245Y24384541D01*
X20310218Y24246995D01*
X20318567Y24234500D01*
X20392932Y24123206D01*
X20498206Y24017932D01*
X20621994Y23935219D01*
X20759541Y23878245D01*
X20905560Y23849200D01*
X20905561Y23849200D01*
X21054439Y23849200D01*
X21054440Y23849200D01*
X21200459Y23878245D01*
X21338006Y23935219D01*
X21461794Y24017932D01*
X21567068Y24123206D01*
X21649781Y24246994D01*
X21706755Y24384541D01*
X21735800Y24530560D01*
X21735800Y24679440D01*
X21727939Y24718958D01*
X22072050Y24718958D01*
X22072050Y24491043D01*
X22107703Y24265941D01*
X22107706Y24265928D01*
X22178130Y24049183D01*
X22178132Y24049179D01*
X22281600Y23846113D01*
X22281603Y23846107D01*
X22375117Y23717397D01*
X22415566Y23661724D01*
X22576724Y23500566D01*
X22576727Y23500564D01*
X22576728Y23500563D01*
X22760127Y23367315D01*
X22761109Y23366602D01*
X22819393Y23336905D01*
X22964178Y23263133D01*
X22964182Y23263131D01*
X23180927Y23192707D01*
X23180933Y23192706D01*
X23180938Y23192704D01*
X23293491Y23174877D01*
X23406042Y23157050D01*
X23406044Y23157050D01*
X23633958Y23157050D01*
X23723998Y23171312D01*
X23859062Y23192704D01*
X23859069Y23192707D01*
X23859072Y23192707D01*
X23884966Y23201120D01*
X24075817Y23263131D01*
X24075817Y23263132D01*
X24075820Y23263132D01*
X24278891Y23366602D01*
X24463276Y23500566D01*
X24624434Y23661724D01*
X24755851Y23842604D01*
X55714500Y23842604D01*
X55714500Y23717397D01*
X55746904Y23596465D01*
X55808660Y23489500D01*
X55809505Y23488036D01*
X55898036Y23399505D01*
X56006464Y23336905D01*
X56006463Y23336905D01*
X56076286Y23318196D01*
X56127396Y23304501D01*
X56127397Y23304500D01*
X56127399Y23304500D01*
X56252603Y23304500D01*
X56252603Y23304501D01*
X56373536Y23336905D01*
X56481964Y23399505D01*
X56570495Y23488036D01*
X56633095Y23596464D01*
X56665499Y23717397D01*
X56665500Y23717397D01*
X56665500Y23842603D01*
X56665499Y23842604D01*
X56664560Y23846107D01*
X56655198Y23881047D01*
X56633096Y23963534D01*
X56601691Y24017930D01*
X56579772Y24055895D01*
X59999500Y24055895D01*
X59999500Y23924106D01*
X60033606Y23796819D01*
X60033610Y23796810D01*
X60099500Y23682686D01*
X60192686Y23589500D01*
X60306814Y23523608D01*
X60434105Y23489501D01*
X60434106Y23489500D01*
X60434108Y23489500D01*
X60565894Y23489500D01*
X60565894Y23489501D01*
X60693186Y23523608D01*
X60807314Y23589500D01*
X60900500Y23682686D01*
X60966392Y23796814D01*
X61000499Y23924106D01*
X61000500Y23924106D01*
X61000500Y24055894D01*
X61000499Y24055895D01*
X60996853Y24069501D01*
X60966392Y24183186D01*
X60900500Y24297314D01*
X60807314Y24390500D01*
X60693190Y24456390D01*
X60693181Y24456394D01*
X60565894Y24490500D01*
X60565892Y24490500D01*
X60434108Y24490500D01*
X60434106Y24490500D01*
X60306818Y24456394D01*
X60306809Y24456390D01*
X60192685Y24390500D01*
X60099500Y24297315D01*
X60033610Y24183191D01*
X60033606Y24183182D01*
X59999500Y24055895D01*
X56579772Y24055895D01*
X56570495Y24071964D01*
X56481964Y24160495D01*
X56481963Y24160496D01*
X56373534Y24223096D01*
X56373536Y24223096D01*
X56252603Y24255500D01*
X56252601Y24255500D01*
X56127399Y24255500D01*
X56127397Y24255500D01*
X56006464Y24223096D01*
X55898036Y24160496D01*
X55809504Y24071964D01*
X55746904Y23963536D01*
X55714500Y23842604D01*
X24755851Y23842604D01*
X24758398Y23846109D01*
X24861868Y24049180D01*
X24864049Y24055892D01*
X24932293Y24265928D01*
X24932293Y24265931D01*
X24932296Y24265938D01*
X24967950Y24491044D01*
X24967950Y24635895D01*
X27319500Y24635895D01*
X27319500Y24504106D01*
X27353606Y24376819D01*
X27353607Y24376816D01*
X27353608Y24376814D01*
X27419500Y24262686D01*
X27512686Y24169500D01*
X27626814Y24103608D01*
X27754105Y24069501D01*
X27754106Y24069500D01*
X27754108Y24069500D01*
X27885894Y24069500D01*
X27885894Y24069501D01*
X28013186Y24103608D01*
X28127314Y24169500D01*
X28220500Y24262686D01*
X28286392Y24376814D01*
X28320499Y24504106D01*
X28320500Y24504106D01*
X28320500Y24635894D01*
X28320499Y24635895D01*
X28292334Y24741008D01*
X28286392Y24763186D01*
X28220500Y24877314D01*
X28127314Y24970500D01*
X28013190Y25036390D01*
X28013181Y25036394D01*
X27885894Y25070500D01*
X27885892Y25070500D01*
X27754108Y25070500D01*
X27754106Y25070500D01*
X27626818Y25036394D01*
X27626809Y25036390D01*
X27512685Y24970500D01*
X27419500Y24877315D01*
X27353610Y24763191D01*
X27353606Y24763182D01*
X27319500Y24635895D01*
X24967950Y24635895D01*
X24967950Y24718956D01*
X24932296Y24944062D01*
X24932294Y24944067D01*
X24932293Y24944073D01*
X24861870Y25160815D01*
X24861868Y25160818D01*
X24861868Y25160820D01*
X24758398Y25363891D01*
X24758396Y25363894D01*
X24758395Y25363896D01*
X24751494Y25373395D01*
X38874500Y25373395D01*
X38874500Y25241606D01*
X38908606Y25114319D01*
X38908610Y25114310D01*
X38974500Y25000186D01*
X39067686Y24907000D01*
X39181814Y24841108D01*
X39309105Y24807001D01*
X39309106Y24807000D01*
X39309108Y24807000D01*
X39440894Y24807000D01*
X39440894Y24807001D01*
X39568186Y24841108D01*
X39682314Y24907000D01*
X39775500Y25000186D01*
X39841392Y25114314D01*
X39875499Y25241606D01*
X39875500Y25241606D01*
X39875500Y25373394D01*
X39875499Y25373395D01*
X39854322Y25452428D01*
X39841392Y25500686D01*
X39775500Y25614814D01*
X39682314Y25708000D01*
X39679823Y25709438D01*
X39568190Y25773890D01*
X39568181Y25773894D01*
X39440894Y25808000D01*
X39440892Y25808000D01*
X39309108Y25808000D01*
X39309106Y25808000D01*
X39181818Y25773894D01*
X39181809Y25773890D01*
X39067685Y25708000D01*
X38974500Y25614815D01*
X38908610Y25500691D01*
X38908606Y25500682D01*
X38874500Y25373395D01*
X24751494Y25373395D01*
X24624437Y25548272D01*
X24624436Y25548273D01*
X24624434Y25548276D01*
X24463276Y25709434D01*
X24463273Y25709437D01*
X24463271Y25709438D01*
X24278893Y25843397D01*
X24278887Y25843400D01*
X24075821Y25946868D01*
X24075817Y25946870D01*
X23859072Y26017294D01*
X23859059Y26017297D01*
X23633958Y26052950D01*
X23633956Y26052950D01*
X23406044Y26052950D01*
X23406042Y26052950D01*
X23180940Y26017297D01*
X23180927Y26017294D01*
X22964182Y25946870D01*
X22964178Y25946868D01*
X22761112Y25843400D01*
X22761106Y25843397D01*
X22576728Y25709438D01*
X22415562Y25548272D01*
X22281603Y25363894D01*
X22281600Y25363888D01*
X22178132Y25160822D01*
X22178130Y25160818D01*
X22107706Y24944073D01*
X22107703Y24944060D01*
X22072050Y24718958D01*
X21727939Y24718958D01*
X21706756Y24825454D01*
X21706755Y24825455D01*
X21706755Y24825459D01*
X21649781Y24963006D01*
X21567068Y25086794D01*
X21461794Y25192068D01*
X21338006Y25274781D01*
X21338007Y25274781D01*
X21338005Y25274782D01*
X21200459Y25331755D01*
X21200452Y25331757D01*
X21090450Y25353638D01*
X21054440Y25360800D01*
X20905560Y25360800D01*
X20876674Y25355055D01*
X20759547Y25331757D01*
X20759540Y25331755D01*
X20621994Y25274782D01*
X20498209Y25192071D01*
X20392929Y25086791D01*
X20310218Y24963006D01*
X20253245Y24825460D01*
X20253243Y24825453D01*
X20224200Y24679440D01*
X19887950Y24679440D01*
X19887950Y24718956D01*
X19852296Y24944062D01*
X19852294Y24944067D01*
X19852293Y24944073D01*
X19781869Y25160818D01*
X19781867Y25160822D01*
X19772349Y25179502D01*
X19678398Y25363891D01*
X19678394Y25363896D01*
X19544437Y25548272D01*
X19544436Y25548273D01*
X19544434Y25548276D01*
X19383276Y25709434D01*
X19383273Y25709437D01*
X19383271Y25709438D01*
X19198893Y25843397D01*
X19198887Y25843400D01*
X18995821Y25946868D01*
X18995817Y25946870D01*
X18831176Y26000364D01*
X18779072Y26017294D01*
X18779059Y26017297D01*
X18553958Y26052950D01*
X18553956Y26052950D01*
X18326044Y26052950D01*
X18326042Y26052950D01*
X18100940Y26017297D01*
X18100927Y26017294D01*
X17884182Y25946870D01*
X17884178Y25946868D01*
X17681112Y25843400D01*
X17681106Y25843397D01*
X17496728Y25709438D01*
X17335562Y25548272D01*
X17201603Y25363894D01*
X17201600Y25363888D01*
X17098132Y25160822D01*
X17098130Y25160818D01*
X17027706Y24944073D01*
X17027703Y24944060D01*
X16992050Y24718958D01*
X6704080Y24718958D01*
X6709989Y24741008D01*
X6709990Y24741012D01*
X6710500Y24742916D01*
X6710500Y24897085D01*
X6710499Y24897086D01*
X6670600Y25045991D01*
X6670598Y25045996D01*
X6593518Y25179502D01*
X6593517Y25179503D01*
X6593516Y25179505D01*
X6484505Y25288516D01*
X6484502Y25288518D01*
X6484501Y25288519D01*
X6350995Y25365599D01*
X6350990Y25365601D01*
X6202085Y25405500D01*
X6202083Y25405500D01*
X6047917Y25405500D01*
X6047915Y25405500D01*
X5899009Y25365601D01*
X5899004Y25365599D01*
X5765498Y25288519D01*
X5656481Y25179502D01*
X5579401Y25045996D01*
X5579399Y25045991D01*
X5539500Y24897086D01*
X490500Y24897086D01*
X490500Y26375001D01*
X1152231Y26375001D01*
X1152232Y26375000D01*
X1770758Y26375000D01*
X1765444Y26365796D01*
X1745000Y26289496D01*
X1745000Y26210504D01*
X1765444Y26134204D01*
X1770758Y26125000D01*
X1152231Y26125000D01*
X1179584Y25987487D01*
X1179587Y25987476D01*
X1247427Y25823695D01*
X1345923Y25676284D01*
X1471283Y25550924D01*
X1618695Y25452428D01*
X1618694Y25452428D01*
X1782475Y25384588D01*
X1782486Y25384585D01*
X1956359Y25350000D01*
X2320000Y25350000D01*
X2320000Y25950000D01*
X2570000Y25950000D01*
X2570000Y25350000D01*
X2933641Y25350000D01*
X3107513Y25384585D01*
X3107524Y25384588D01*
X3271305Y25452428D01*
X3418716Y25550924D01*
X3418718Y25550925D01*
X3544075Y25676282D01*
X3544076Y25676284D01*
X3642572Y25823695D01*
X3710412Y25987476D01*
X3710415Y25987487D01*
X3726011Y26065895D01*
X19619500Y26065895D01*
X19619500Y25934106D01*
X19653606Y25806819D01*
X19653610Y25806810D01*
X19709833Y25709429D01*
X19719500Y25692686D01*
X19812686Y25599500D01*
X19926814Y25533608D01*
X20054105Y25499501D01*
X20054106Y25499500D01*
X20054108Y25499500D01*
X20185894Y25499500D01*
X20185894Y25499501D01*
X20313186Y25533608D01*
X20427314Y25599500D01*
X20520500Y25692686D01*
X20586392Y25806814D01*
X20620499Y25934106D01*
X20620500Y25934106D01*
X20620500Y26065894D01*
X20620499Y26065895D01*
X20586393Y26193182D01*
X20586392Y26193186D01*
X20520500Y26307314D01*
X20427314Y26400500D01*
X20313190Y26466390D01*
X20313181Y26466394D01*
X20185894Y26500500D01*
X20185892Y26500500D01*
X20054108Y26500500D01*
X20054106Y26500500D01*
X19926818Y26466394D01*
X19926809Y26466390D01*
X19812685Y26400500D01*
X19719500Y26307315D01*
X19653610Y26193191D01*
X19653606Y26193182D01*
X19619500Y26065895D01*
X3726011Y26065895D01*
X3737768Y26125000D01*
X3119242Y26125000D01*
X3124556Y26134204D01*
X3145000Y26210504D01*
X3145000Y26289496D01*
X3124556Y26365796D01*
X3119242Y26375000D01*
X3737768Y26375000D01*
X3737768Y26375001D01*
X3710415Y26512514D01*
X3710412Y26512525D01*
X3642572Y26676306D01*
X3544076Y26823717D01*
X3418716Y26949077D01*
X3271304Y27047573D01*
X3271305Y27047573D01*
X3107524Y27115413D01*
X3107513Y27115416D01*
X2933641Y27150000D01*
X2570000Y27150000D01*
X2570000Y26550000D01*
X2320000Y26550000D01*
X2320000Y27150000D01*
X1956359Y27150000D01*
X1782486Y27115416D01*
X1782475Y27115413D01*
X1618694Y27047573D01*
X1471283Y26949077D01*
X1471282Y26949075D01*
X1345925Y26823718D01*
X1345923Y26823717D01*
X1247427Y26676306D01*
X1179587Y26512525D01*
X1179584Y26512514D01*
X1152231Y26375001D01*
X490500Y26375001D01*
X490500Y27642604D01*
X42924500Y27642604D01*
X42924500Y27517397D01*
X42956904Y27396465D01*
X43010515Y27303608D01*
X43019505Y27288036D01*
X43108036Y27199505D01*
X43216464Y27136905D01*
X43216463Y27136905D01*
X43286286Y27118196D01*
X43337396Y27104501D01*
X43337397Y27104500D01*
X43337399Y27104500D01*
X43462603Y27104500D01*
X43462603Y27104501D01*
X43583536Y27136905D01*
X43691964Y27199505D01*
X43780495Y27288036D01*
X43843095Y27396464D01*
X43875499Y27517397D01*
X43875500Y27517397D01*
X43875500Y27642603D01*
X43875499Y27642604D01*
X43843096Y27763534D01*
X43819882Y27803742D01*
X43819881Y27803744D01*
X43801319Y27835895D01*
X54449500Y27835895D01*
X54449500Y27704106D01*
X54483606Y27576819D01*
X54483610Y27576810D01*
X54544592Y27471187D01*
X54549500Y27462686D01*
X54642686Y27369500D01*
X54756814Y27303608D01*
X54884105Y27269501D01*
X54884106Y27269500D01*
X54884108Y27269500D01*
X55015894Y27269500D01*
X55015894Y27269501D01*
X55143186Y27303608D01*
X55257314Y27369500D01*
X55350500Y27462686D01*
X55416392Y27576814D01*
X55450499Y27704106D01*
X55450500Y27704106D01*
X55450500Y27835894D01*
X55450499Y27835895D01*
X55440834Y27871964D01*
X55416392Y27963186D01*
X55350500Y28077314D01*
X55257314Y28170500D01*
X55143190Y28236390D01*
X55143181Y28236394D01*
X55015894Y28270500D01*
X55015892Y28270500D01*
X54884108Y28270500D01*
X54884106Y28270500D01*
X54756818Y28236394D01*
X54756809Y28236390D01*
X54642685Y28170500D01*
X54549500Y28077315D01*
X54483610Y27963191D01*
X54483606Y27963182D01*
X54449500Y27835895D01*
X43801319Y27835895D01*
X43780495Y27871964D01*
X43691963Y27960496D01*
X43583534Y28023096D01*
X43583536Y28023096D01*
X43462603Y28055500D01*
X43462601Y28055500D01*
X43337399Y28055500D01*
X43337397Y28055500D01*
X43216464Y28023096D01*
X43108036Y27960496D01*
X43019504Y27871964D01*
X42956904Y27763536D01*
X42924500Y27642604D01*
X490500Y27642604D01*
X490500Y28887842D01*
X67759169Y28887842D01*
X67759169Y28632159D01*
X67792542Y28378662D01*
X67858718Y28131691D01*
X67858720Y28131684D01*
X67956561Y27895474D01*
X67956564Y27895466D01*
X68084405Y27674039D01*
X68084409Y27674033D01*
X68159008Y27576814D01*
X68240059Y27471187D01*
X68420856Y27290390D01*
X68509129Y27222656D01*
X68623701Y27134741D01*
X68623707Y27134737D01*
X68845134Y27006896D01*
X69081356Y26909050D01*
X69328329Y26842874D01*
X69581826Y26809500D01*
X69581828Y26809500D01*
X69837510Y26809500D01*
X69837512Y26809500D01*
X70091009Y26842874D01*
X70337982Y26909050D01*
X70574204Y27006896D01*
X70795634Y27134739D01*
X70998482Y27290390D01*
X71179279Y27471187D01*
X71334930Y27674035D01*
X71462773Y27895465D01*
X71560619Y28131687D01*
X71626795Y28378660D01*
X71660169Y28632157D01*
X71660169Y28887843D01*
X71626795Y29141340D01*
X71560619Y29388313D01*
X71462773Y29624535D01*
X71334930Y29845965D01*
X71322410Y29862281D01*
X71179278Y30048814D01*
X70998482Y30229610D01*
X70795636Y30385260D01*
X70795630Y30385264D01*
X70574203Y30513105D01*
X70574195Y30513108D01*
X70337985Y30610949D01*
X70337983Y30610950D01*
X70337982Y30610950D01*
X70300755Y30620925D01*
X70091007Y30677127D01*
X69904258Y30701713D01*
X69837512Y30710500D01*
X69581826Y30710500D01*
X69522845Y30702735D01*
X69328330Y30677127D01*
X69081359Y30610951D01*
X69081352Y30610949D01*
X68845142Y30513108D01*
X68845134Y30513105D01*
X68623707Y30385264D01*
X68623701Y30385260D01*
X68420855Y30229610D01*
X68240059Y30048814D01*
X68084409Y29845968D01*
X68084405Y29845962D01*
X67956564Y29624535D01*
X67956561Y29624527D01*
X67858720Y29388317D01*
X67858718Y29388310D01*
X67792542Y29141339D01*
X67759169Y28887842D01*
X490500Y28887842D01*
X490500Y30238767D01*
X53469169Y30238767D01*
X53469169Y30071234D01*
X53501851Y29906925D01*
X53501853Y29906918D01*
X53565965Y29752138D01*
X53659040Y29612842D01*
X53659043Y29612838D01*
X53777507Y29494374D01*
X53916806Y29401297D01*
X54071587Y29337184D01*
X54235902Y29304500D01*
X54235903Y29304500D01*
X54403435Y29304500D01*
X54403436Y29304500D01*
X54567751Y29337184D01*
X54722532Y29401297D01*
X54861831Y29494374D01*
X54980295Y29612838D01*
X55073372Y29752137D01*
X55137485Y29906918D01*
X55170169Y30071233D01*
X55170169Y30238767D01*
X56009169Y30238767D01*
X56009169Y30071234D01*
X56041851Y29906925D01*
X56041853Y29906918D01*
X56105965Y29752138D01*
X56199040Y29612842D01*
X56199043Y29612838D01*
X56317507Y29494374D01*
X56456806Y29401297D01*
X56611587Y29337184D01*
X56775902Y29304500D01*
X56775903Y29304500D01*
X56943435Y29304500D01*
X56943436Y29304500D01*
X57107751Y29337184D01*
X57262532Y29401297D01*
X57401831Y29494374D01*
X57520295Y29612838D01*
X57613372Y29752137D01*
X57677485Y29906918D01*
X57710169Y30071233D01*
X57710169Y30238767D01*
X58549169Y30238767D01*
X58549169Y30071234D01*
X58581851Y29906925D01*
X58581853Y29906918D01*
X58645965Y29752138D01*
X58739040Y29612842D01*
X58739043Y29612838D01*
X58857507Y29494374D01*
X58996806Y29401297D01*
X59151587Y29337184D01*
X59315902Y29304500D01*
X59315903Y29304500D01*
X59483435Y29304500D01*
X59483436Y29304500D01*
X59647751Y29337184D01*
X59802532Y29401297D01*
X59941831Y29494374D01*
X60060295Y29612838D01*
X60153372Y29752137D01*
X60217485Y29906918D01*
X60250169Y30071233D01*
X60250169Y30238767D01*
X60247263Y30253378D01*
X60689669Y30253378D01*
X60689669Y30056623D01*
X60720447Y29862294D01*
X60720450Y29862281D01*
X60781246Y29675172D01*
X60781248Y29675167D01*
X60870572Y29499858D01*
X60970378Y29362488D01*
X61508938Y29901049D01*
X61539570Y29847993D01*
X61632662Y29754901D01*
X61685715Y29724271D01*
X61147155Y29185711D01*
X61284526Y29085904D01*
X61459835Y28996580D01*
X61459840Y28996578D01*
X61646949Y28935782D01*
X61646962Y28935779D01*
X61841291Y28905000D01*
X62038047Y28905000D01*
X62232375Y28935779D01*
X62232388Y28935782D01*
X62308903Y28960644D01*
X62308905Y28960644D01*
X62419501Y28996580D01*
X62419502Y28996580D01*
X62594808Y29085903D01*
X62732181Y29185711D01*
X62193622Y29724271D01*
X62246676Y29754901D01*
X62339768Y29847993D01*
X62370398Y29901048D01*
X62908958Y29362488D01*
X63008766Y29499861D01*
X63098089Y29675167D01*
X63098091Y29675172D01*
X63158887Y29862281D01*
X63158890Y29862294D01*
X63189669Y30056623D01*
X63189669Y30253378D01*
X63158890Y30447707D01*
X63158887Y30447720D01*
X63098091Y30634829D01*
X63098089Y30634834D01*
X63008765Y30810143D01*
X62908958Y30947514D01*
X62370398Y30408955D01*
X62339768Y30462007D01*
X62246676Y30555099D01*
X62193620Y30585731D01*
X62732181Y31124291D01*
X62594811Y31224097D01*
X62419502Y31313421D01*
X62419497Y31313423D01*
X62232388Y31374219D01*
X62232375Y31374222D01*
X62038047Y31405000D01*
X61841291Y31405000D01*
X61646962Y31374222D01*
X61646949Y31374219D01*
X61459840Y31313423D01*
X61459835Y31313421D01*
X61284526Y31224097D01*
X61147155Y31124291D01*
X61685715Y30585730D01*
X61632662Y30555099D01*
X61539570Y30462007D01*
X61508939Y30408954D01*
X60970378Y30947514D01*
X60870572Y30810143D01*
X60781248Y30634834D01*
X60781246Y30634829D01*
X60720450Y30447720D01*
X60720447Y30447707D01*
X60689669Y30253378D01*
X60247263Y30253378D01*
X60217485Y30403082D01*
X60153372Y30557863D01*
X60060295Y30697162D01*
X59941831Y30815626D01*
X59941827Y30815629D01*
X59802531Y30908704D01*
X59647751Y30972816D01*
X59647744Y30972818D01*
X59523957Y30997440D01*
X59483436Y31005500D01*
X59315902Y31005500D01*
X59283397Y30999035D01*
X59151593Y30972818D01*
X59151586Y30972816D01*
X58996806Y30908704D01*
X58857510Y30815629D01*
X58739040Y30697159D01*
X58645965Y30557863D01*
X58581853Y30403083D01*
X58581851Y30403076D01*
X58549169Y30238767D01*
X57710169Y30238767D01*
X57677485Y30403082D01*
X57613372Y30557863D01*
X57520295Y30697162D01*
X57401831Y30815626D01*
X57401827Y30815629D01*
X57262531Y30908704D01*
X57107751Y30972816D01*
X57107744Y30972818D01*
X56983957Y30997440D01*
X56943436Y31005500D01*
X56775902Y31005500D01*
X56743397Y30999035D01*
X56611593Y30972818D01*
X56611586Y30972816D01*
X56456806Y30908704D01*
X56317510Y30815629D01*
X56199040Y30697159D01*
X56105965Y30557863D01*
X56041853Y30403083D01*
X56041851Y30403076D01*
X56009169Y30238767D01*
X55170169Y30238767D01*
X55137485Y30403082D01*
X55073372Y30557863D01*
X54980295Y30697162D01*
X54861831Y30815626D01*
X54861827Y30815629D01*
X54722531Y30908704D01*
X54567751Y30972816D01*
X54567744Y30972818D01*
X54443957Y30997440D01*
X54403436Y31005500D01*
X54235902Y31005500D01*
X54203397Y30999035D01*
X54071593Y30972818D01*
X54071586Y30972816D01*
X53916806Y30908704D01*
X53777510Y30815629D01*
X53659040Y30697159D01*
X53565965Y30557863D01*
X53501853Y30403083D01*
X53501851Y30403076D01*
X53469169Y30238767D01*
X490500Y30238767D01*
X490500Y31145895D01*
X29319500Y31145895D01*
X29319500Y31014106D01*
X29353606Y30886819D01*
X29353610Y30886810D01*
X29397874Y30810143D01*
X29419500Y30772686D01*
X29512686Y30679500D01*
X29626814Y30613608D01*
X29754105Y30579501D01*
X29754106Y30579500D01*
X29754108Y30579500D01*
X29885894Y30579500D01*
X29885894Y30579501D01*
X30013186Y30613608D01*
X30127314Y30679500D01*
X30220500Y30772686D01*
X30286392Y30886814D01*
X30320499Y31014106D01*
X30320500Y31014106D01*
X30320500Y31115895D01*
X30599500Y31115895D01*
X30599500Y30984106D01*
X30633606Y30856819D01*
X30633610Y30856810D01*
X30682179Y30772686D01*
X30699500Y30742686D01*
X30792686Y30649500D01*
X30906814Y30583608D01*
X31034105Y30549501D01*
X31034106Y30549500D01*
X31034108Y30549500D01*
X31165894Y30549500D01*
X31165894Y30549501D01*
X31293186Y30583608D01*
X31407314Y30649500D01*
X31500500Y30742686D01*
X31566392Y30856814D01*
X31600499Y30984106D01*
X31600500Y30984106D01*
X31600500Y31115894D01*
X31600499Y31115895D01*
X31598249Y31124291D01*
X31566392Y31243186D01*
X31500500Y31357314D01*
X31407314Y31450500D01*
X31355353Y31480500D01*
X31293190Y31516390D01*
X31293181Y31516394D01*
X31165894Y31550500D01*
X31165892Y31550500D01*
X31034108Y31550500D01*
X31034106Y31550500D01*
X30906818Y31516394D01*
X30906809Y31516390D01*
X30792685Y31450500D01*
X30699500Y31357315D01*
X30633610Y31243191D01*
X30633606Y31243182D01*
X30599500Y31115895D01*
X30320500Y31115895D01*
X30320500Y31145894D01*
X30320499Y31145895D01*
X30286393Y31273182D01*
X30286392Y31273186D01*
X30220500Y31387314D01*
X30127314Y31480500D01*
X30065151Y31516390D01*
X30013190Y31546390D01*
X30013181Y31546394D01*
X29885894Y31580500D01*
X29885892Y31580500D01*
X29754108Y31580500D01*
X29754106Y31580500D01*
X29626818Y31546394D01*
X29626809Y31546390D01*
X29512685Y31480500D01*
X29419500Y31387315D01*
X29353610Y31273191D01*
X29353606Y31273182D01*
X29319500Y31145895D01*
X490500Y31145895D01*
X490500Y31965500D01*
X512174Y32017826D01*
X564500Y32039500D01*
X79865500Y32039500D01*
X79917826Y32017826D01*
G37*
%TD.AperFunction*%
%TD*%
M02*
