M48
; DRILL file {KiCad 9.0.7} date 2026-04-14T21:15:20+0530
; FORMAT={-:-/ absolute / metric / decimal}
; #@! TF.CreationDate,2026-04-14T21:15:20+05:30
; #@! TF.GenerationSoftware,Kicad,Pcbnew,9.0.7
; #@! TF.FileFunction,Plated,1,4,PTH
FMAT,2
METRIC
; #@! TA.AperFunction,Plated,PTH,ViaDrill
T1C0.250
; #@! TA.AperFunction,Plated,PTH,ViaDrill
T2C0.300
; #@! TA.AperFunction,Plated,PTH,ViaDrill
T3C0.400
; #@! TA.AperFunction,Plated,PTH,ComponentDrill
T4C0.400
; #@! TA.AperFunction,Plated,PTH,ComponentDrill
T5C0.500
; #@! TA.AperFunction,Plated,PTH,ComponentDrill
T6C0.600
; #@! TA.AperFunction,Plated,PTH,ComponentDrill
T7C1.000
; #@! TA.AperFunction,Plated,PTH,ComponentDrill
T8C2.200
; #@! TA.AperFunction,Plated,PTH,ComponentDrill
T9C3.200
%
G90
G05
T1
X27.01Y8.93
X29.52Y9.66
X30.02Y13.95
X31.48Y12.88
X43.4Y27.58
X56.19Y23.78
T2
X3.335Y15.99
X7.875Y27.94
X8.65Y18.67
X8.7Y25.32
X9.57Y21.95
X10.383Y12.277
X10.39Y18.961
X10.39Y17.94
X10.412Y13.367
X11.9Y15.42
X14.102Y13.297
X14.112Y12.107
X19.36Y6.84
X20.12Y26.0
X20.31Y8.57
X21.0Y18.89
X26.39Y17.98
X26.54Y19.24
X26.712Y12.885
X26.83Y15.79
X26.87Y24.49
X27.06Y8.03
X27.545Y21.38
X27.82Y24.57
X28.07Y15.84
X28.28Y28.81
X28.67Y14.04
X28.81Y21.392
X28.835Y18.017
X28.859Y30.741
X29.517Y27.265
X29.52Y28.29
X29.82Y31.08
X30.394Y9.624
X31.1Y31.05
X31.18Y20.31
X31.19Y22.39
X31.22Y24.68
X31.86Y16.91
X32.06Y23.56
X32.16Y21.34
X32.247Y15.783
X32.377Y12.565
X32.69Y3.88
X33.45Y24.63
X34.4Y26.85
X34.42Y17.71
X34.515Y16.73
X34.73Y23.67
X34.83Y21.55
X35.62Y24.62
X35.68Y26.85
X35.69Y20.26
X35.7Y22.29
X37.23Y27.53
X38.56Y22.12
X39.325Y24.33
X39.375Y25.307
X39.51Y30.05
X39.52Y22.137
X40.6Y21.96
X41.705Y18.81
X42.47Y26.48
X42.59Y10.88
X42.8Y12.2
X43.445Y5.32
X43.6Y21.91
X45.02Y2.03
X45.657Y22.703
X45.677Y24.622
X47.52Y22.16
X47.6Y25.19
X51.21Y22.24
X51.24Y25.19
X51.57Y13.5
X52.395Y27.77
X54.95Y27.77
X54.95Y22.84
X58.19Y21.985
X59.47Y21.57
X60.5Y23.99
X60.91Y25.62
X61.06Y18.88
X61.13Y21.505
X62.08Y21.448
X62.15Y16.16
X62.38Y15.12
X63.04Y23.06
X63.56Y16.2
X64.45Y15.23
X64.51Y23.95
X65.77Y9.62
X65.79Y11.82
T3
X1.02Y13.43
X1.02Y11.93
X1.02Y9.93
X1.02Y7.93
X1.02Y6.43
X1.02Y4.93
X1.02Y1.43
X1.13Y29.01
X1.21Y27.18
X1.21Y24.68
X1.21Y20.18
X1.21Y16.18
X1.22Y31.36
X3.52Y31.15
X3.52Y11.02
X4.0Y21.69
X5.54Y5.67
X6.02Y1.43
X7.02Y12.93
X8.04Y5.67
X8.52Y16.43
X8.52Y14.43
X8.52Y1.43
X10.54Y5.67
X11.02Y1.43
X12.02Y25.93
X13.04Y5.67
X13.52Y25.93
X13.52Y24.43
X13.52Y1.43
X15.02Y31.43
X15.02Y25.93
X15.02Y23.43
X15.02Y19.93
X15.02Y17.93
X15.02Y15.43
X15.04Y5.67
X15.52Y11.93
X15.52Y1.43
X17.02Y31.43
X17.48Y29.49
X17.52Y1.43
X18.52Y26.93
X19.02Y31.43
X20.02Y17.43
X20.02Y13.93
X20.02Y1.43
X21.02Y31.43
X21.02Y26.93
X22.3Y29.55
X22.52Y31.43
X22.52Y17.43
X22.52Y13.93
X22.52Y8.93
X23.02Y1.43
X24.52Y31.43
X25.02Y17.43
X25.02Y13.93
X25.52Y24.43
X26.02Y26.93
X26.02Y1.43
X26.52Y31.43
X28.02Y1.43
X30.52Y4.93
X30.52Y1.43
X31.52Y7.93
X32.52Y1.43
X34.02Y5.43
X35.49Y7.87
X35.52Y1.43
X37.02Y10.93
X38.02Y1.43
X38.52Y15.93
X38.76Y13.62
X40.02Y6.43
X40.06Y9.54
X41.02Y31.43
X41.02Y28.43
X41.02Y26.93
X41.52Y1.43
X41.6Y13.7
X42.02Y5.43
X42.52Y29.93
X43.02Y31.43
X43.02Y18.93
X43.73Y8.42
X44.11Y1.25
X44.8Y15.79
X45.02Y18.93
X45.02Y12.93
X45.52Y31.43
X46.38Y1.29
X46.52Y18.93
X46.52Y8.43
X48.02Y12.93
X48.52Y18.93
X48.68Y15.81
X49.02Y10.43
X49.52Y7.93
X50.52Y18.93
X50.52Y12.93
X52.02Y31.43
X52.02Y5.93
X52.02Y1.43
X52.52Y24.43
X52.52Y9.93
X54.52Y26.43
X54.52Y5.93
X54.52Y1.43
X56.52Y5.93
X56.52Y1.43
X57.02Y10.43
X57.02Y7.93
X58.02Y27.93
X59.02Y5.93
X59.02Y1.43
X61.02Y27.43
X61.02Y1.43
X62.13Y7.97
X62.83Y12.23
X63.02Y27.43
X63.02Y25.43
X64.42Y21.19
X65.02Y31.43
X65.02Y3.93
X65.09Y25.61
X65.09Y1.2
X65.19Y13.25
X66.59Y1.2
X67.52Y31.43
X72.02Y31.43
X72.59Y1.2
X74.02Y31.43
X75.59Y1.2
X76.52Y31.43
X79.02Y31.43
X79.02Y29.43
X79.02Y27.43
X79.02Y25.43
X79.02Y23.43
X79.02Y21.43
X79.02Y19.43
X79.02Y17.43
X79.02Y14.93
X79.02Y12.93
X79.02Y10.43
X79.02Y7.93
X79.02Y5.93
X79.02Y3.93
X79.02Y2.43
T4
X1.753Y3.117
X2.237Y4.283
X2.237Y1.95
X3.403Y4.767
X3.403Y1.467
X4.57Y4.283
X4.57Y1.95
X5.053Y3.117
X10.823Y29.297
X11.307Y30.463
X11.307Y28.13
X12.473Y30.947
X12.473Y27.647
X13.64Y30.463
X13.64Y28.13
X14.123Y29.297
X47.27Y3.1
X47.753Y4.267
X47.753Y1.933
X47.777Y29.593
X48.26Y30.76
X48.26Y28.427
X48.92Y4.75
X48.92Y1.45
X49.427Y31.243
X49.427Y27.943
X50.087Y4.267
X50.087Y1.933
X50.57Y3.1
X50.593Y30.76
X50.593Y28.427
X51.077Y29.593
T5
X5.16Y13.105
X5.16Y11.855
X5.16Y10.605
X5.16Y9.355
T7
X20.28Y4.52
X22.82Y4.52
X25.36Y4.52
X27.9Y4.52
X54.32Y30.155
X56.86Y30.155
X59.4Y30.155
X61.94Y30.155
X66.87Y21.8
X66.87Y19.03
X66.87Y16.26
X66.87Y13.49
X66.87Y10.72
X69.71Y20.415
X69.71Y17.645
X69.71Y14.875
X69.71Y12.105
T8
X3.403Y3.117
X12.473Y29.297
X48.92Y3.1
X49.427Y29.593
T9
X69.71Y28.76
X69.71Y3.76
T6
G00X2.845Y26.25
M15
G01X2.045Y26.25
M16
G05
G00X2.845Y17.61
M15
G01X2.045Y17.61
M16
G05
G00X7.175Y26.25
M15
G01X6.075Y26.25
M16
G05
G00X7.175Y17.61
M15
G01X6.075Y17.61
M16
G05
M30
