%TF.GenerationSoftware,KiCad,Pcbnew,9.0.7*%
%TF.CreationDate,2026-04-14T21:13:42+05:30*%
%TF.ProjectId,Version1_IOB,56657273-696f-46e3-915f-494f422e6b69,rev?*%
%TF.SameCoordinates,PX22ca400PY5825eb0*%
%TF.FileFunction,Soldermask,Bot*%
%TF.FilePolarity,Negative*%
%FSLAX46Y46*%
G04 Gerber Fmt 4.6, Leading zero omitted, Abs format (unit mm)*
G04 Created by KiCad (PCBNEW 9.0.7) date 2026-04-14 21:13:42*
%MOMM*%
%LPD*%
G01*
G04 APERTURE LIST*
G04 Aperture macros list*
%AMRoundRect*
0 Rectangle with rounded corners*
0 $1 Rounding radius*
0 $2 $3 $4 $5 $6 $7 $8 $9 X,Y pos of 4 corners*
0 Add a 4 corners polygon primitive as box body*
4,1,4,$2,$3,$4,$5,$6,$7,$8,$9,$2,$3,0*
0 Add four circle primitives for the rounded corners*
1,1,$1+$1,$2,$3*
1,1,$1+$1,$4,$5*
1,1,$1+$1,$6,$7*
1,1,$1+$1,$8,$9*
0 Add four rect primitives between the rounded corners*
20,1,$1+$1,$2,$3,$4,$5,0*
20,1,$1+$1,$4,$5,$6,$7,0*
20,1,$1+$1,$6,$7,$8,$9,0*
20,1,$1+$1,$8,$9,$2,$3,0*%
G04 Aperture macros list end*
%ADD10C,0.700000*%
%ADD11C,4.400000*%
%ADD12C,4.000000*%
%ADD13R,1.600000X1.600000*%
%ADD14C,1.600000*%
%ADD15R,1.700000X1.700000*%
%ADD16C,1.700000*%
%ADD17C,0.650000*%
%ADD18O,2.100000X1.000000*%
%ADD19O,1.800000X1.000000*%
%ADD20RoundRect,0.200000X-0.450000X0.200000X-0.450000X-0.200000X0.450000X-0.200000X0.450000X0.200000X0*%
%ADD21O,1.300000X0.800000*%
%ADD22C,2.374900*%
%ADD23C,0.990600*%
G04 APERTURE END LIST*
D10*
%TO.C,H2*%
X1753274Y3116726D03*
X2236548Y4283452D03*
X2236548Y1950000D03*
X3403274Y4766726D03*
D11*
X3403274Y3116726D03*
D10*
X3403274Y1466726D03*
X4570000Y4283452D03*
X4570000Y1950000D03*
X5053274Y3116726D03*
%TD*%
%TO.C,H4*%
X47270000Y3100000D03*
X47753274Y4266726D03*
X47753274Y1933274D03*
X48920000Y4750000D03*
D11*
X48920000Y3100000D03*
D10*
X48920000Y1450000D03*
X50086726Y4266726D03*
X50086726Y1933274D03*
X50570000Y3100000D03*
%TD*%
D12*
%TO.C,J5*%
X69709669Y3760000D03*
X69709669Y28760000D03*
D13*
X66869669Y21800000D03*
D14*
X66869669Y19030000D03*
X66869669Y16260000D03*
X66869669Y13490000D03*
X66869669Y10720000D03*
X69709669Y20415000D03*
X69709669Y17645000D03*
X69709669Y14875000D03*
X69709669Y12105000D03*
%TD*%
D15*
%TO.C,J_UART1*%
X54319669Y30155000D03*
D16*
X56859669Y30155000D03*
X59399669Y30155000D03*
X61939669Y30155000D03*
%TD*%
D17*
%TO.C,J1*%
X6125000Y24820000D03*
X6125000Y19040000D03*
D18*
X6625000Y26250000D03*
D19*
X2445000Y26250000D03*
D18*
X6625000Y17610000D03*
D19*
X2445000Y17610000D03*
%TD*%
D10*
%TO.C,H1*%
X10823274Y29296726D03*
X11306548Y30463452D03*
X11306548Y28130000D03*
X12473274Y30946726D03*
D11*
X12473274Y29296726D03*
D10*
X12473274Y27646726D03*
X13640000Y30463452D03*
X13640000Y28130000D03*
X14123274Y29296726D03*
%TD*%
%TO.C,H3*%
X47776726Y29593274D03*
X48260000Y30760000D03*
X48260000Y28426548D03*
X49426726Y31243274D03*
D11*
X49426726Y29593274D03*
D10*
X49426726Y27943274D03*
X50593452Y30760000D03*
X50593452Y28426548D03*
X51076726Y29593274D03*
%TD*%
D20*
%TO.C,J2*%
X5160000Y13105000D03*
D21*
X5160000Y11855000D03*
X5160000Y10605000D03*
X5160000Y9355000D03*
%TD*%
D15*
%TO.C,J_I2C1*%
X20280000Y4520000D03*
D16*
X22820000Y4520000D03*
X25360000Y4520000D03*
X27900000Y4520000D03*
%TD*%
D22*
%TO.C,J3*%
X23520000Y24605000D03*
D23*
X20980000Y24605000D03*
D22*
X18440000Y24605000D03*
X23520000Y21430000D03*
X18440000Y21430000D03*
D23*
X21996000Y19525000D03*
X19964000Y19525000D03*
%TD*%
M02*
