%TF.GenerationSoftware,KiCad,Pcbnew,9.0.7*%
%TF.CreationDate,2026-04-14T21:13:42+05:30*%
%TF.ProjectId,Version1_IOB,56657273-696f-46e3-915f-494f422e6b69,rev?*%
%TF.SameCoordinates,PX22ca400PY5825eb0*%
%TF.FileFunction,Legend,Top*%
%TF.FilePolarity,Positive*%
%FSLAX46Y46*%
G04 Gerber Fmt 4.6, Leading zero omitted, Abs format (unit mm)*
G04 Created by KiCad (PCBNEW 9.0.7) date 2026-04-14 21:13:42*
%MOMM*%
%LPD*%
G01*
G04 APERTURE LIST*
%ADD10C,0.150000*%
%ADD11C,0.100000*%
%ADD12C,0.120000*%
G04 APERTURE END LIST*
D10*
X27073333Y24820420D02*
X27025714Y24772800D01*
X27025714Y24772800D02*
X26882857Y24725181D01*
X26882857Y24725181D02*
X26787619Y24725181D01*
X26787619Y24725181D02*
X26644762Y24772800D01*
X26644762Y24772800D02*
X26549524Y24868039D01*
X26549524Y24868039D02*
X26501905Y24963277D01*
X26501905Y24963277D02*
X26454286Y25153753D01*
X26454286Y25153753D02*
X26454286Y25296610D01*
X26454286Y25296610D02*
X26501905Y25487086D01*
X26501905Y25487086D02*
X26549524Y25582324D01*
X26549524Y25582324D02*
X26644762Y25677562D01*
X26644762Y25677562D02*
X26787619Y25725181D01*
X26787619Y25725181D02*
X26882857Y25725181D01*
X26882857Y25725181D02*
X27025714Y25677562D01*
X27025714Y25677562D02*
X27073333Y25629943D01*
X27930476Y25391848D02*
X27930476Y24725181D01*
X27692381Y25772800D02*
X27454286Y25058515D01*
X27454286Y25058515D02*
X28073333Y25058515D01*
X55186811Y27445420D02*
X55139192Y27397800D01*
X55139192Y27397800D02*
X54996335Y27350181D01*
X54996335Y27350181D02*
X54901097Y27350181D01*
X54901097Y27350181D02*
X54758240Y27397800D01*
X54758240Y27397800D02*
X54663002Y27493039D01*
X54663002Y27493039D02*
X54615383Y27588277D01*
X54615383Y27588277D02*
X54567764Y27778753D01*
X54567764Y27778753D02*
X54567764Y27921610D01*
X54567764Y27921610D02*
X54615383Y28112086D01*
X54615383Y28112086D02*
X54663002Y28207324D01*
X54663002Y28207324D02*
X54758240Y28302562D01*
X54758240Y28302562D02*
X54901097Y28350181D01*
X54901097Y28350181D02*
X54996335Y28350181D01*
X54996335Y28350181D02*
X55139192Y28302562D01*
X55139192Y28302562D02*
X55186811Y28254943D01*
X55567764Y28254943D02*
X55615383Y28302562D01*
X55615383Y28302562D02*
X55710621Y28350181D01*
X55710621Y28350181D02*
X55948716Y28350181D01*
X55948716Y28350181D02*
X56043954Y28302562D01*
X56043954Y28302562D02*
X56091573Y28254943D01*
X56091573Y28254943D02*
X56139192Y28159705D01*
X56139192Y28159705D02*
X56139192Y28064467D01*
X56139192Y28064467D02*
X56091573Y27921610D01*
X56091573Y27921610D02*
X55520145Y27350181D01*
X55520145Y27350181D02*
X56139192Y27350181D01*
X57091573Y27350181D02*
X56520145Y27350181D01*
X56805859Y27350181D02*
X56805859Y28350181D01*
X56805859Y28350181D02*
X56710621Y28207324D01*
X56710621Y28207324D02*
X56615383Y28112086D01*
X56615383Y28112086D02*
X56520145Y28064467D01*
X38234819Y14723334D02*
X37758628Y14390001D01*
X38234819Y14151906D02*
X37234819Y14151906D01*
X37234819Y14151906D02*
X37234819Y14532858D01*
X37234819Y14532858D02*
X37282438Y14628096D01*
X37282438Y14628096D02*
X37330057Y14675715D01*
X37330057Y14675715D02*
X37425295Y14723334D01*
X37425295Y14723334D02*
X37568152Y14723334D01*
X37568152Y14723334D02*
X37663390Y14675715D01*
X37663390Y14675715D02*
X37711009Y14628096D01*
X37711009Y14628096D02*
X37758628Y14532858D01*
X37758628Y14532858D02*
X37758628Y14151906D01*
X37568152Y15580477D02*
X38234819Y15580477D01*
X37187200Y15342382D02*
X37901485Y15104287D01*
X37901485Y15104287D02*
X37901485Y15723334D01*
X28893333Y18270420D02*
X28845714Y18222800D01*
X28845714Y18222800D02*
X28702857Y18175181D01*
X28702857Y18175181D02*
X28607619Y18175181D01*
X28607619Y18175181D02*
X28464762Y18222800D01*
X28464762Y18222800D02*
X28369524Y18318039D01*
X28369524Y18318039D02*
X28321905Y18413277D01*
X28321905Y18413277D02*
X28274286Y18603753D01*
X28274286Y18603753D02*
X28274286Y18746610D01*
X28274286Y18746610D02*
X28321905Y18937086D01*
X28321905Y18937086D02*
X28369524Y19032324D01*
X28369524Y19032324D02*
X28464762Y19127562D01*
X28464762Y19127562D02*
X28607619Y19175181D01*
X28607619Y19175181D02*
X28702857Y19175181D01*
X28702857Y19175181D02*
X28845714Y19127562D01*
X28845714Y19127562D02*
X28893333Y19079943D01*
X29750476Y19175181D02*
X29560000Y19175181D01*
X29560000Y19175181D02*
X29464762Y19127562D01*
X29464762Y19127562D02*
X29417143Y19079943D01*
X29417143Y19079943D02*
X29321905Y18937086D01*
X29321905Y18937086D02*
X29274286Y18746610D01*
X29274286Y18746610D02*
X29274286Y18365658D01*
X29274286Y18365658D02*
X29321905Y18270420D01*
X29321905Y18270420D02*
X29369524Y18222800D01*
X29369524Y18222800D02*
X29464762Y18175181D01*
X29464762Y18175181D02*
X29655238Y18175181D01*
X29655238Y18175181D02*
X29750476Y18222800D01*
X29750476Y18222800D02*
X29798095Y18270420D01*
X29798095Y18270420D02*
X29845714Y18365658D01*
X29845714Y18365658D02*
X29845714Y18603753D01*
X29845714Y18603753D02*
X29798095Y18698991D01*
X29798095Y18698991D02*
X29750476Y18746610D01*
X29750476Y18746610D02*
X29655238Y18794229D01*
X29655238Y18794229D02*
X29464762Y18794229D01*
X29464762Y18794229D02*
X29369524Y18746610D01*
X29369524Y18746610D02*
X29321905Y18698991D01*
X29321905Y18698991D02*
X29274286Y18603753D01*
X36734819Y14603334D02*
X36258628Y14270001D01*
X36734819Y14031906D02*
X35734819Y14031906D01*
X35734819Y14031906D02*
X35734819Y14412858D01*
X35734819Y14412858D02*
X35782438Y14508096D01*
X35782438Y14508096D02*
X35830057Y14555715D01*
X35830057Y14555715D02*
X35925295Y14603334D01*
X35925295Y14603334D02*
X36068152Y14603334D01*
X36068152Y14603334D02*
X36163390Y14555715D01*
X36163390Y14555715D02*
X36211009Y14508096D01*
X36211009Y14508096D02*
X36258628Y14412858D01*
X36258628Y14412858D02*
X36258628Y14031906D01*
X35734819Y14936668D02*
X35734819Y15555715D01*
X35734819Y15555715D02*
X36115771Y15222382D01*
X36115771Y15222382D02*
X36115771Y15365239D01*
X36115771Y15365239D02*
X36163390Y15460477D01*
X36163390Y15460477D02*
X36211009Y15508096D01*
X36211009Y15508096D02*
X36306247Y15555715D01*
X36306247Y15555715D02*
X36544342Y15555715D01*
X36544342Y15555715D02*
X36639580Y15508096D01*
X36639580Y15508096D02*
X36687200Y15460477D01*
X36687200Y15460477D02*
X36734819Y15365239D01*
X36734819Y15365239D02*
X36734819Y15079525D01*
X36734819Y15079525D02*
X36687200Y14984287D01*
X36687200Y14984287D02*
X36639580Y14936668D01*
X25304819Y7263334D02*
X24828628Y6930001D01*
X25304819Y6691906D02*
X24304819Y6691906D01*
X24304819Y6691906D02*
X24304819Y7072858D01*
X24304819Y7072858D02*
X24352438Y7168096D01*
X24352438Y7168096D02*
X24400057Y7215715D01*
X24400057Y7215715D02*
X24495295Y7263334D01*
X24495295Y7263334D02*
X24638152Y7263334D01*
X24638152Y7263334D02*
X24733390Y7215715D01*
X24733390Y7215715D02*
X24781009Y7168096D01*
X24781009Y7168096D02*
X24828628Y7072858D01*
X24828628Y7072858D02*
X24828628Y6691906D01*
X25304819Y7739525D02*
X25304819Y7930001D01*
X25304819Y7930001D02*
X25257200Y8025239D01*
X25257200Y8025239D02*
X25209580Y8072858D01*
X25209580Y8072858D02*
X25066723Y8168096D01*
X25066723Y8168096D02*
X24876247Y8215715D01*
X24876247Y8215715D02*
X24495295Y8215715D01*
X24495295Y8215715D02*
X24400057Y8168096D01*
X24400057Y8168096D02*
X24352438Y8120477D01*
X24352438Y8120477D02*
X24304819Y8025239D01*
X24304819Y8025239D02*
X24304819Y7834763D01*
X24304819Y7834763D02*
X24352438Y7739525D01*
X24352438Y7739525D02*
X24400057Y7691906D01*
X24400057Y7691906D02*
X24495295Y7644287D01*
X24495295Y7644287D02*
X24733390Y7644287D01*
X24733390Y7644287D02*
X24828628Y7691906D01*
X24828628Y7691906D02*
X24876247Y7739525D01*
X24876247Y7739525D02*
X24923866Y7834763D01*
X24923866Y7834763D02*
X24923866Y8025239D01*
X24923866Y8025239D02*
X24876247Y8120477D01*
X24876247Y8120477D02*
X24828628Y8168096D01*
X24828628Y8168096D02*
X24733390Y8215715D01*
X41903333Y21875181D02*
X41427143Y21875181D01*
X41427143Y21875181D02*
X41427143Y22875181D01*
X42141429Y22875181D02*
X42760476Y22875181D01*
X42760476Y22875181D02*
X42427143Y22494229D01*
X42427143Y22494229D02*
X42570000Y22494229D01*
X42570000Y22494229D02*
X42665238Y22446610D01*
X42665238Y22446610D02*
X42712857Y22398991D01*
X42712857Y22398991D02*
X42760476Y22303753D01*
X42760476Y22303753D02*
X42760476Y22065658D01*
X42760476Y22065658D02*
X42712857Y21970420D01*
X42712857Y21970420D02*
X42665238Y21922800D01*
X42665238Y21922800D02*
X42570000Y21875181D01*
X42570000Y21875181D02*
X42284286Y21875181D01*
X42284286Y21875181D02*
X42189048Y21922800D01*
X42189048Y21922800D02*
X42141429Y21970420D01*
X48877142Y13820420D02*
X48829523Y13772800D01*
X48829523Y13772800D02*
X48686666Y13725181D01*
X48686666Y13725181D02*
X48591428Y13725181D01*
X48591428Y13725181D02*
X48448571Y13772800D01*
X48448571Y13772800D02*
X48353333Y13868039D01*
X48353333Y13868039D02*
X48305714Y13963277D01*
X48305714Y13963277D02*
X48258095Y14153753D01*
X48258095Y14153753D02*
X48258095Y14296610D01*
X48258095Y14296610D02*
X48305714Y14487086D01*
X48305714Y14487086D02*
X48353333Y14582324D01*
X48353333Y14582324D02*
X48448571Y14677562D01*
X48448571Y14677562D02*
X48591428Y14725181D01*
X48591428Y14725181D02*
X48686666Y14725181D01*
X48686666Y14725181D02*
X48829523Y14677562D01*
X48829523Y14677562D02*
X48877142Y14629943D01*
X49258095Y14629943D02*
X49305714Y14677562D01*
X49305714Y14677562D02*
X49400952Y14725181D01*
X49400952Y14725181D02*
X49639047Y14725181D01*
X49639047Y14725181D02*
X49734285Y14677562D01*
X49734285Y14677562D02*
X49781904Y14629943D01*
X49781904Y14629943D02*
X49829523Y14534705D01*
X49829523Y14534705D02*
X49829523Y14439467D01*
X49829523Y14439467D02*
X49781904Y14296610D01*
X49781904Y14296610D02*
X49210476Y13725181D01*
X49210476Y13725181D02*
X49829523Y13725181D01*
X50686666Y14725181D02*
X50496190Y14725181D01*
X50496190Y14725181D02*
X50400952Y14677562D01*
X50400952Y14677562D02*
X50353333Y14629943D01*
X50353333Y14629943D02*
X50258095Y14487086D01*
X50258095Y14487086D02*
X50210476Y14296610D01*
X50210476Y14296610D02*
X50210476Y13915658D01*
X50210476Y13915658D02*
X50258095Y13820420D01*
X50258095Y13820420D02*
X50305714Y13772800D01*
X50305714Y13772800D02*
X50400952Y13725181D01*
X50400952Y13725181D02*
X50591428Y13725181D01*
X50591428Y13725181D02*
X50686666Y13772800D01*
X50686666Y13772800D02*
X50734285Y13820420D01*
X50734285Y13820420D02*
X50781904Y13915658D01*
X50781904Y13915658D02*
X50781904Y14153753D01*
X50781904Y14153753D02*
X50734285Y14248991D01*
X50734285Y14248991D02*
X50686666Y14296610D01*
X50686666Y14296610D02*
X50591428Y14344229D01*
X50591428Y14344229D02*
X50400952Y14344229D01*
X50400952Y14344229D02*
X50305714Y14296610D01*
X50305714Y14296610D02*
X50258095Y14248991D01*
X50258095Y14248991D02*
X50210476Y14153753D01*
X3255238Y29518991D02*
X2921905Y29518991D01*
X2921905Y28995181D02*
X2921905Y29995181D01*
X2921905Y29995181D02*
X3398095Y29995181D01*
X3779048Y28995181D02*
X3779048Y29995181D01*
X3779048Y29995181D02*
X4112381Y29280896D01*
X4112381Y29280896D02*
X4445714Y29995181D01*
X4445714Y29995181D02*
X4445714Y28995181D01*
X5445714Y28995181D02*
X4874286Y28995181D01*
X5160000Y28995181D02*
X5160000Y29995181D01*
X5160000Y29995181D02*
X5064762Y29852324D01*
X5064762Y29852324D02*
X4969524Y29757086D01*
X4969524Y29757086D02*
X4874286Y29709467D01*
X32023333Y31055181D02*
X31547143Y31055181D01*
X31547143Y31055181D02*
X31547143Y32055181D01*
X32880476Y31055181D02*
X32309048Y31055181D01*
X32594762Y31055181D02*
X32594762Y32055181D01*
X32594762Y32055181D02*
X32499524Y31912324D01*
X32499524Y31912324D02*
X32404286Y31817086D01*
X32404286Y31817086D02*
X32309048Y31769467D01*
X2641369Y5811907D02*
X2641369Y6811907D01*
X2641369Y6335717D02*
X3212797Y6335717D01*
X3212797Y5811907D02*
X3212797Y6811907D01*
X3641369Y6716669D02*
X3688988Y6764288D01*
X3688988Y6764288D02*
X3784226Y6811907D01*
X3784226Y6811907D02*
X4022321Y6811907D01*
X4022321Y6811907D02*
X4117559Y6764288D01*
X4117559Y6764288D02*
X4165178Y6716669D01*
X4165178Y6716669D02*
X4212797Y6621431D01*
X4212797Y6621431D02*
X4212797Y6526193D01*
X4212797Y6526193D02*
X4165178Y6383336D01*
X4165178Y6383336D02*
X3593750Y5811907D01*
X3593750Y5811907D02*
X4212797Y5811907D01*
X46606666Y26415181D02*
X46606666Y25700896D01*
X46606666Y25700896D02*
X46559047Y25558039D01*
X46559047Y25558039D02*
X46463809Y25462800D01*
X46463809Y25462800D02*
X46320952Y25415181D01*
X46320952Y25415181D02*
X46225714Y25415181D01*
X47511428Y26081848D02*
X47511428Y25415181D01*
X47273333Y26462800D02*
X47035238Y25748515D01*
X47035238Y25748515D02*
X47654285Y25748515D01*
X9135833Y13287920D02*
X9088214Y13240300D01*
X9088214Y13240300D02*
X8945357Y13192681D01*
X8945357Y13192681D02*
X8850119Y13192681D01*
X8850119Y13192681D02*
X8707262Y13240300D01*
X8707262Y13240300D02*
X8612024Y13335539D01*
X8612024Y13335539D02*
X8564405Y13430777D01*
X8564405Y13430777D02*
X8516786Y13621253D01*
X8516786Y13621253D02*
X8516786Y13764110D01*
X8516786Y13764110D02*
X8564405Y13954586D01*
X8564405Y13954586D02*
X8612024Y14049824D01*
X8612024Y14049824D02*
X8707262Y14145062D01*
X8707262Y14145062D02*
X8850119Y14192681D01*
X8850119Y14192681D02*
X8945357Y14192681D01*
X8945357Y14192681D02*
X9088214Y14145062D01*
X9088214Y14145062D02*
X9135833Y14097443D01*
X9516786Y14097443D02*
X9564405Y14145062D01*
X9564405Y14145062D02*
X9659643Y14192681D01*
X9659643Y14192681D02*
X9897738Y14192681D01*
X9897738Y14192681D02*
X9992976Y14145062D01*
X9992976Y14145062D02*
X10040595Y14097443D01*
X10040595Y14097443D02*
X10088214Y14002205D01*
X10088214Y14002205D02*
X10088214Y13906967D01*
X10088214Y13906967D02*
X10040595Y13764110D01*
X10040595Y13764110D02*
X9469167Y13192681D01*
X9469167Y13192681D02*
X10088214Y13192681D01*
X48158095Y5795181D02*
X48158095Y6795181D01*
X48158095Y6318991D02*
X48729523Y6318991D01*
X48729523Y5795181D02*
X48729523Y6795181D01*
X49634285Y6461848D02*
X49634285Y5795181D01*
X49396190Y6842800D02*
X49158095Y6128515D01*
X49158095Y6128515D02*
X49777142Y6128515D01*
X63604819Y13646667D02*
X64319104Y13646667D01*
X64319104Y13646667D02*
X64461961Y13599048D01*
X64461961Y13599048D02*
X64557200Y13503810D01*
X64557200Y13503810D02*
X64604819Y13360953D01*
X64604819Y13360953D02*
X64604819Y13265715D01*
X63604819Y14599048D02*
X63604819Y14122858D01*
X63604819Y14122858D02*
X64081009Y14075239D01*
X64081009Y14075239D02*
X64033390Y14122858D01*
X64033390Y14122858D02*
X63985771Y14218096D01*
X63985771Y14218096D02*
X63985771Y14456191D01*
X63985771Y14456191D02*
X64033390Y14551429D01*
X64033390Y14551429D02*
X64081009Y14599048D01*
X64081009Y14599048D02*
X64176247Y14646667D01*
X64176247Y14646667D02*
X64414342Y14646667D01*
X64414342Y14646667D02*
X64509580Y14599048D01*
X64509580Y14599048D02*
X64557200Y14551429D01*
X64557200Y14551429D02*
X64604819Y14456191D01*
X64604819Y14456191D02*
X64604819Y14218096D01*
X64604819Y14218096D02*
X64557200Y14122858D01*
X64557200Y14122858D02*
X64509580Y14075239D01*
X28773333Y27830420D02*
X28725714Y27782800D01*
X28725714Y27782800D02*
X28582857Y27735181D01*
X28582857Y27735181D02*
X28487619Y27735181D01*
X28487619Y27735181D02*
X28344762Y27782800D01*
X28344762Y27782800D02*
X28249524Y27878039D01*
X28249524Y27878039D02*
X28201905Y27973277D01*
X28201905Y27973277D02*
X28154286Y28163753D01*
X28154286Y28163753D02*
X28154286Y28306610D01*
X28154286Y28306610D02*
X28201905Y28497086D01*
X28201905Y28497086D02*
X28249524Y28592324D01*
X28249524Y28592324D02*
X28344762Y28687562D01*
X28344762Y28687562D02*
X28487619Y28735181D01*
X28487619Y28735181D02*
X28582857Y28735181D01*
X28582857Y28735181D02*
X28725714Y28687562D01*
X28725714Y28687562D02*
X28773333Y28639943D01*
X29106667Y28735181D02*
X29773333Y28735181D01*
X29773333Y28735181D02*
X29344762Y27735181D01*
X43955238Y31538991D02*
X43621905Y31538991D01*
X43621905Y31015181D02*
X43621905Y32015181D01*
X43621905Y32015181D02*
X44098095Y32015181D01*
X44479048Y31015181D02*
X44479048Y32015181D01*
X44479048Y32015181D02*
X44812381Y31300896D01*
X44812381Y31300896D02*
X45145714Y32015181D01*
X45145714Y32015181D02*
X45145714Y31015181D01*
X45574286Y31919943D02*
X45621905Y31967562D01*
X45621905Y31967562D02*
X45717143Y32015181D01*
X45717143Y32015181D02*
X45955238Y32015181D01*
X45955238Y32015181D02*
X46050476Y31967562D01*
X46050476Y31967562D02*
X46098095Y31919943D01*
X46098095Y31919943D02*
X46145714Y31824705D01*
X46145714Y31824705D02*
X46145714Y31729467D01*
X46145714Y31729467D02*
X46098095Y31586610D01*
X46098095Y31586610D02*
X45526667Y31015181D01*
X45526667Y31015181D02*
X46145714Y31015181D01*
X29370476Y14235181D02*
X30037142Y13235181D01*
X30037142Y14235181D02*
X29370476Y13235181D01*
X30941904Y13235181D02*
X30370476Y13235181D01*
X30656190Y13235181D02*
X30656190Y14235181D01*
X30656190Y14235181D02*
X30560952Y14092324D01*
X30560952Y14092324D02*
X30465714Y13997086D01*
X30465714Y13997086D02*
X30370476Y13949467D01*
X11281905Y23875181D02*
X11281905Y24875181D01*
X11281905Y24875181D02*
X11520000Y24875181D01*
X11520000Y24875181D02*
X11662857Y24827562D01*
X11662857Y24827562D02*
X11758095Y24732324D01*
X11758095Y24732324D02*
X11805714Y24637086D01*
X11805714Y24637086D02*
X11853333Y24446610D01*
X11853333Y24446610D02*
X11853333Y24303753D01*
X11853333Y24303753D02*
X11805714Y24113277D01*
X11805714Y24113277D02*
X11758095Y24018039D01*
X11758095Y24018039D02*
X11662857Y23922800D01*
X11662857Y23922800D02*
X11520000Y23875181D01*
X11520000Y23875181D02*
X11281905Y23875181D01*
X12805714Y23875181D02*
X12234286Y23875181D01*
X12520000Y23875181D02*
X12520000Y24875181D01*
X12520000Y24875181D02*
X12424762Y24732324D01*
X12424762Y24732324D02*
X12329524Y24637086D01*
X12329524Y24637086D02*
X12234286Y24589467D01*
X40927142Y25100420D02*
X40879523Y25052800D01*
X40879523Y25052800D02*
X40736666Y25005181D01*
X40736666Y25005181D02*
X40641428Y25005181D01*
X40641428Y25005181D02*
X40498571Y25052800D01*
X40498571Y25052800D02*
X40403333Y25148039D01*
X40403333Y25148039D02*
X40355714Y25243277D01*
X40355714Y25243277D02*
X40308095Y25433753D01*
X40308095Y25433753D02*
X40308095Y25576610D01*
X40308095Y25576610D02*
X40355714Y25767086D01*
X40355714Y25767086D02*
X40403333Y25862324D01*
X40403333Y25862324D02*
X40498571Y25957562D01*
X40498571Y25957562D02*
X40641428Y26005181D01*
X40641428Y26005181D02*
X40736666Y26005181D01*
X40736666Y26005181D02*
X40879523Y25957562D01*
X40879523Y25957562D02*
X40927142Y25909943D01*
X41879523Y25005181D02*
X41308095Y25005181D01*
X41593809Y25005181D02*
X41593809Y26005181D01*
X41593809Y26005181D02*
X41498571Y25862324D01*
X41498571Y25862324D02*
X41403333Y25767086D01*
X41403333Y25767086D02*
X41308095Y25719467D01*
X42260476Y25909943D02*
X42308095Y25957562D01*
X42308095Y25957562D02*
X42403333Y26005181D01*
X42403333Y26005181D02*
X42641428Y26005181D01*
X42641428Y26005181D02*
X42736666Y25957562D01*
X42736666Y25957562D02*
X42784285Y25909943D01*
X42784285Y25909943D02*
X42831904Y25814705D01*
X42831904Y25814705D02*
X42831904Y25719467D01*
X42831904Y25719467D02*
X42784285Y25576610D01*
X42784285Y25576610D02*
X42212857Y25005181D01*
X42212857Y25005181D02*
X42831904Y25005181D01*
X27817142Y26480420D02*
X27769523Y26432800D01*
X27769523Y26432800D02*
X27626666Y26385181D01*
X27626666Y26385181D02*
X27531428Y26385181D01*
X27531428Y26385181D02*
X27388571Y26432800D01*
X27388571Y26432800D02*
X27293333Y26528039D01*
X27293333Y26528039D02*
X27245714Y26623277D01*
X27245714Y26623277D02*
X27198095Y26813753D01*
X27198095Y26813753D02*
X27198095Y26956610D01*
X27198095Y26956610D02*
X27245714Y27147086D01*
X27245714Y27147086D02*
X27293333Y27242324D01*
X27293333Y27242324D02*
X27388571Y27337562D01*
X27388571Y27337562D02*
X27531428Y27385181D01*
X27531428Y27385181D02*
X27626666Y27385181D01*
X27626666Y27385181D02*
X27769523Y27337562D01*
X27769523Y27337562D02*
X27817142Y27289943D01*
X28769523Y26385181D02*
X28198095Y26385181D01*
X28483809Y26385181D02*
X28483809Y27385181D01*
X28483809Y27385181D02*
X28388571Y27242324D01*
X28388571Y27242324D02*
X28293333Y27147086D01*
X28293333Y27147086D02*
X28198095Y27099467D01*
X29721904Y26385181D02*
X29150476Y26385181D01*
X29436190Y26385181D02*
X29436190Y27385181D01*
X29436190Y27385181D02*
X29340952Y27242324D01*
X29340952Y27242324D02*
X29245714Y27147086D01*
X29245714Y27147086D02*
X29150476Y27099467D01*
X61137142Y21580420D02*
X61089523Y21532800D01*
X61089523Y21532800D02*
X60946666Y21485181D01*
X60946666Y21485181D02*
X60851428Y21485181D01*
X60851428Y21485181D02*
X60708571Y21532800D01*
X60708571Y21532800D02*
X60613333Y21628039D01*
X60613333Y21628039D02*
X60565714Y21723277D01*
X60565714Y21723277D02*
X60518095Y21913753D01*
X60518095Y21913753D02*
X60518095Y22056610D01*
X60518095Y22056610D02*
X60565714Y22247086D01*
X60565714Y22247086D02*
X60613333Y22342324D01*
X60613333Y22342324D02*
X60708571Y22437562D01*
X60708571Y22437562D02*
X60851428Y22485181D01*
X60851428Y22485181D02*
X60946666Y22485181D01*
X60946666Y22485181D02*
X61089523Y22437562D01*
X61089523Y22437562D02*
X61137142Y22389943D01*
X61518095Y22389943D02*
X61565714Y22437562D01*
X61565714Y22437562D02*
X61660952Y22485181D01*
X61660952Y22485181D02*
X61899047Y22485181D01*
X61899047Y22485181D02*
X61994285Y22437562D01*
X61994285Y22437562D02*
X62041904Y22389943D01*
X62041904Y22389943D02*
X62089523Y22294705D01*
X62089523Y22294705D02*
X62089523Y22199467D01*
X62089523Y22199467D02*
X62041904Y22056610D01*
X62041904Y22056610D02*
X61470476Y21485181D01*
X61470476Y21485181D02*
X62089523Y21485181D01*
X62422857Y22485181D02*
X63041904Y22485181D01*
X63041904Y22485181D02*
X62708571Y22104229D01*
X62708571Y22104229D02*
X62851428Y22104229D01*
X62851428Y22104229D02*
X62946666Y22056610D01*
X62946666Y22056610D02*
X62994285Y22008991D01*
X62994285Y22008991D02*
X63041904Y21913753D01*
X63041904Y21913753D02*
X63041904Y21675658D01*
X63041904Y21675658D02*
X62994285Y21580420D01*
X62994285Y21580420D02*
X62946666Y21532800D01*
X62946666Y21532800D02*
X62851428Y21485181D01*
X62851428Y21485181D02*
X62565714Y21485181D01*
X62565714Y21485181D02*
X62470476Y21532800D01*
X62470476Y21532800D02*
X62422857Y21580420D01*
X26579580Y17353334D02*
X26627200Y17305715D01*
X26627200Y17305715D02*
X26674819Y17162858D01*
X26674819Y17162858D02*
X26674819Y17067620D01*
X26674819Y17067620D02*
X26627200Y16924763D01*
X26627200Y16924763D02*
X26531961Y16829525D01*
X26531961Y16829525D02*
X26436723Y16781906D01*
X26436723Y16781906D02*
X26246247Y16734287D01*
X26246247Y16734287D02*
X26103390Y16734287D01*
X26103390Y16734287D02*
X25912914Y16781906D01*
X25912914Y16781906D02*
X25817676Y16829525D01*
X25817676Y16829525D02*
X25722438Y16924763D01*
X25722438Y16924763D02*
X25674819Y17067620D01*
X25674819Y17067620D02*
X25674819Y17162858D01*
X25674819Y17162858D02*
X25722438Y17305715D01*
X25722438Y17305715D02*
X25770057Y17353334D01*
X25674819Y17686668D02*
X25674819Y18305715D01*
X25674819Y18305715D02*
X26055771Y17972382D01*
X26055771Y17972382D02*
X26055771Y18115239D01*
X26055771Y18115239D02*
X26103390Y18210477D01*
X26103390Y18210477D02*
X26151009Y18258096D01*
X26151009Y18258096D02*
X26246247Y18305715D01*
X26246247Y18305715D02*
X26484342Y18305715D01*
X26484342Y18305715D02*
X26579580Y18258096D01*
X26579580Y18258096D02*
X26627200Y18210477D01*
X26627200Y18210477D02*
X26674819Y18115239D01*
X26674819Y18115239D02*
X26674819Y17829525D01*
X26674819Y17829525D02*
X26627200Y17734287D01*
X26627200Y17734287D02*
X26579580Y17686668D01*
X57762380Y28575181D02*
X57762380Y27860896D01*
X57762380Y27860896D02*
X57714761Y27718039D01*
X57714761Y27718039D02*
X57619523Y27622800D01*
X57619523Y27622800D02*
X57476666Y27575181D01*
X57476666Y27575181D02*
X57381428Y27575181D01*
X58000476Y27479943D02*
X58762380Y27479943D01*
X59000476Y28575181D02*
X59000476Y27765658D01*
X59000476Y27765658D02*
X59048095Y27670420D01*
X59048095Y27670420D02*
X59095714Y27622800D01*
X59095714Y27622800D02*
X59190952Y27575181D01*
X59190952Y27575181D02*
X59381428Y27575181D01*
X59381428Y27575181D02*
X59476666Y27622800D01*
X59476666Y27622800D02*
X59524285Y27670420D01*
X59524285Y27670420D02*
X59571904Y27765658D01*
X59571904Y27765658D02*
X59571904Y28575181D01*
X60000476Y27860896D02*
X60476666Y27860896D01*
X59905238Y27575181D02*
X60238571Y28575181D01*
X60238571Y28575181D02*
X60571904Y27575181D01*
X61476666Y27575181D02*
X61143333Y28051372D01*
X60905238Y27575181D02*
X60905238Y28575181D01*
X60905238Y28575181D02*
X61286190Y28575181D01*
X61286190Y28575181D02*
X61381428Y28527562D01*
X61381428Y28527562D02*
X61429047Y28479943D01*
X61429047Y28479943D02*
X61476666Y28384705D01*
X61476666Y28384705D02*
X61476666Y28241848D01*
X61476666Y28241848D02*
X61429047Y28146610D01*
X61429047Y28146610D02*
X61381428Y28098991D01*
X61381428Y28098991D02*
X61286190Y28051372D01*
X61286190Y28051372D02*
X60905238Y28051372D01*
X61762381Y28575181D02*
X62333809Y28575181D01*
X62048095Y27575181D02*
X62048095Y28575181D01*
X63190952Y27575181D02*
X62619524Y27575181D01*
X62905238Y27575181D02*
X62905238Y28575181D01*
X62905238Y28575181D02*
X62810000Y28432324D01*
X62810000Y28432324D02*
X62714762Y28337086D01*
X62714762Y28337086D02*
X62619524Y28289467D01*
X44473333Y5965181D02*
X44140000Y6441372D01*
X43901905Y5965181D02*
X43901905Y6965181D01*
X43901905Y6965181D02*
X44282857Y6965181D01*
X44282857Y6965181D02*
X44378095Y6917562D01*
X44378095Y6917562D02*
X44425714Y6869943D01*
X44425714Y6869943D02*
X44473333Y6774705D01*
X44473333Y6774705D02*
X44473333Y6631848D01*
X44473333Y6631848D02*
X44425714Y6536610D01*
X44425714Y6536610D02*
X44378095Y6488991D01*
X44378095Y6488991D02*
X44282857Y6441372D01*
X44282857Y6441372D02*
X43901905Y6441372D01*
X45330476Y6965181D02*
X45140000Y6965181D01*
X45140000Y6965181D02*
X45044762Y6917562D01*
X45044762Y6917562D02*
X44997143Y6869943D01*
X44997143Y6869943D02*
X44901905Y6727086D01*
X44901905Y6727086D02*
X44854286Y6536610D01*
X44854286Y6536610D02*
X44854286Y6155658D01*
X44854286Y6155658D02*
X44901905Y6060420D01*
X44901905Y6060420D02*
X44949524Y6012800D01*
X44949524Y6012800D02*
X45044762Y5965181D01*
X45044762Y5965181D02*
X45235238Y5965181D01*
X45235238Y5965181D02*
X45330476Y6012800D01*
X45330476Y6012800D02*
X45378095Y6060420D01*
X45378095Y6060420D02*
X45425714Y6155658D01*
X45425714Y6155658D02*
X45425714Y6393753D01*
X45425714Y6393753D02*
X45378095Y6488991D01*
X45378095Y6488991D02*
X45330476Y6536610D01*
X45330476Y6536610D02*
X45235238Y6584229D01*
X45235238Y6584229D02*
X45044762Y6584229D01*
X45044762Y6584229D02*
X44949524Y6536610D01*
X44949524Y6536610D02*
X44901905Y6488991D01*
X44901905Y6488991D02*
X44854286Y6393753D01*
X8826666Y26735181D02*
X8826666Y26020896D01*
X8826666Y26020896D02*
X8779047Y25878039D01*
X8779047Y25878039D02*
X8683809Y25782800D01*
X8683809Y25782800D02*
X8540952Y25735181D01*
X8540952Y25735181D02*
X8445714Y25735181D01*
X9826666Y25735181D02*
X9255238Y25735181D01*
X9540952Y25735181D02*
X9540952Y26735181D01*
X9540952Y26735181D02*
X9445714Y26592324D01*
X9445714Y26592324D02*
X9350476Y26497086D01*
X9350476Y26497086D02*
X9255238Y26449467D01*
X3173333Y27745181D02*
X2840000Y28221372D01*
X2601905Y27745181D02*
X2601905Y28745181D01*
X2601905Y28745181D02*
X2982857Y28745181D01*
X2982857Y28745181D02*
X3078095Y28697562D01*
X3078095Y28697562D02*
X3125714Y28649943D01*
X3125714Y28649943D02*
X3173333Y28554705D01*
X3173333Y28554705D02*
X3173333Y28411848D01*
X3173333Y28411848D02*
X3125714Y28316610D01*
X3125714Y28316610D02*
X3078095Y28268991D01*
X3078095Y28268991D02*
X2982857Y28221372D01*
X2982857Y28221372D02*
X2601905Y28221372D01*
X4125714Y27745181D02*
X3554286Y27745181D01*
X3840000Y27745181D02*
X3840000Y28745181D01*
X3840000Y28745181D02*
X3744762Y28602324D01*
X3744762Y28602324D02*
X3649524Y28507086D01*
X3649524Y28507086D02*
X3554286Y28459467D01*
X37830476Y30965181D02*
X38497142Y29965181D01*
X38497142Y30965181D02*
X37830476Y29965181D01*
X38830476Y30869943D02*
X38878095Y30917562D01*
X38878095Y30917562D02*
X38973333Y30965181D01*
X38973333Y30965181D02*
X39211428Y30965181D01*
X39211428Y30965181D02*
X39306666Y30917562D01*
X39306666Y30917562D02*
X39354285Y30869943D01*
X39354285Y30869943D02*
X39401904Y30774705D01*
X39401904Y30774705D02*
X39401904Y30679467D01*
X39401904Y30679467D02*
X39354285Y30536610D01*
X39354285Y30536610D02*
X38782857Y29965181D01*
X38782857Y29965181D02*
X39401904Y29965181D01*
X53201097Y10765181D02*
X53201097Y9955658D01*
X53201097Y9955658D02*
X53248716Y9860420D01*
X53248716Y9860420D02*
X53296335Y9812800D01*
X53296335Y9812800D02*
X53391573Y9765181D01*
X53391573Y9765181D02*
X53582049Y9765181D01*
X53582049Y9765181D02*
X53677287Y9812800D01*
X53677287Y9812800D02*
X53724906Y9860420D01*
X53724906Y9860420D02*
X53772525Y9955658D01*
X53772525Y9955658D02*
X53772525Y10765181D01*
X54010621Y9669943D02*
X54772525Y9669943D01*
X55582049Y9765181D02*
X55248716Y10241372D01*
X55010621Y9765181D02*
X55010621Y10765181D01*
X55010621Y10765181D02*
X55391573Y10765181D01*
X55391573Y10765181D02*
X55486811Y10717562D01*
X55486811Y10717562D02*
X55534430Y10669943D01*
X55534430Y10669943D02*
X55582049Y10574705D01*
X55582049Y10574705D02*
X55582049Y10431848D01*
X55582049Y10431848D02*
X55534430Y10336610D01*
X55534430Y10336610D02*
X55486811Y10288991D01*
X55486811Y10288991D02*
X55391573Y10241372D01*
X55391573Y10241372D02*
X55010621Y10241372D01*
X55963002Y9812800D02*
X56105859Y9765181D01*
X56105859Y9765181D02*
X56343954Y9765181D01*
X56343954Y9765181D02*
X56439192Y9812800D01*
X56439192Y9812800D02*
X56486811Y9860420D01*
X56486811Y9860420D02*
X56534430Y9955658D01*
X56534430Y9955658D02*
X56534430Y10050896D01*
X56534430Y10050896D02*
X56486811Y10146134D01*
X56486811Y10146134D02*
X56439192Y10193753D01*
X56439192Y10193753D02*
X56343954Y10241372D01*
X56343954Y10241372D02*
X56153478Y10288991D01*
X56153478Y10288991D02*
X56058240Y10336610D01*
X56058240Y10336610D02*
X56010621Y10384229D01*
X56010621Y10384229D02*
X55963002Y10479467D01*
X55963002Y10479467D02*
X55963002Y10574705D01*
X55963002Y10574705D02*
X56010621Y10669943D01*
X56010621Y10669943D02*
X56058240Y10717562D01*
X56058240Y10717562D02*
X56153478Y10765181D01*
X56153478Y10765181D02*
X56391573Y10765181D01*
X56391573Y10765181D02*
X56534430Y10717562D01*
X56915383Y10669943D02*
X56963002Y10717562D01*
X56963002Y10717562D02*
X57058240Y10765181D01*
X57058240Y10765181D02*
X57296335Y10765181D01*
X57296335Y10765181D02*
X57391573Y10717562D01*
X57391573Y10717562D02*
X57439192Y10669943D01*
X57439192Y10669943D02*
X57486811Y10574705D01*
X57486811Y10574705D02*
X57486811Y10479467D01*
X57486811Y10479467D02*
X57439192Y10336610D01*
X57439192Y10336610D02*
X56867764Y9765181D01*
X56867764Y9765181D02*
X57486811Y9765181D01*
X57820145Y10765181D02*
X58439192Y10765181D01*
X58439192Y10765181D02*
X58105859Y10384229D01*
X58105859Y10384229D02*
X58248716Y10384229D01*
X58248716Y10384229D02*
X58343954Y10336610D01*
X58343954Y10336610D02*
X58391573Y10288991D01*
X58391573Y10288991D02*
X58439192Y10193753D01*
X58439192Y10193753D02*
X58439192Y9955658D01*
X58439192Y9955658D02*
X58391573Y9860420D01*
X58391573Y9860420D02*
X58343954Y9812800D01*
X58343954Y9812800D02*
X58248716Y9765181D01*
X58248716Y9765181D02*
X57963002Y9765181D01*
X57963002Y9765181D02*
X57867764Y9812800D01*
X57867764Y9812800D02*
X57820145Y9860420D01*
X58820145Y10669943D02*
X58867764Y10717562D01*
X58867764Y10717562D02*
X58963002Y10765181D01*
X58963002Y10765181D02*
X59201097Y10765181D01*
X59201097Y10765181D02*
X59296335Y10717562D01*
X59296335Y10717562D02*
X59343954Y10669943D01*
X59343954Y10669943D02*
X59391573Y10574705D01*
X59391573Y10574705D02*
X59391573Y10479467D01*
X59391573Y10479467D02*
X59343954Y10336610D01*
X59343954Y10336610D02*
X58772526Y9765181D01*
X58772526Y9765181D02*
X59391573Y9765181D01*
X59582050Y9669943D02*
X60343954Y9669943D01*
X61105859Y9765181D02*
X60534431Y9765181D01*
X60820145Y9765181D02*
X60820145Y10765181D01*
X60820145Y10765181D02*
X60724907Y10622324D01*
X60724907Y10622324D02*
X60629669Y10527086D01*
X60629669Y10527086D02*
X60534431Y10479467D01*
X13884819Y14748096D02*
X14694342Y14748096D01*
X14694342Y14748096D02*
X14789580Y14795715D01*
X14789580Y14795715D02*
X14837200Y14843334D01*
X14837200Y14843334D02*
X14884819Y14938572D01*
X14884819Y14938572D02*
X14884819Y15129048D01*
X14884819Y15129048D02*
X14837200Y15224286D01*
X14837200Y15224286D02*
X14789580Y15271905D01*
X14789580Y15271905D02*
X14694342Y15319524D01*
X14694342Y15319524D02*
X13884819Y15319524D01*
X14884819Y16319524D02*
X14884819Y15748096D01*
X14884819Y16033810D02*
X13884819Y16033810D01*
X13884819Y16033810D02*
X14027676Y15938572D01*
X14027676Y15938572D02*
X14122914Y15843334D01*
X14122914Y15843334D02*
X14170533Y15748096D01*
X40144819Y15431906D02*
X39144819Y15431906D01*
X39144819Y15431906D02*
X39144819Y15670001D01*
X39144819Y15670001D02*
X39192438Y15812858D01*
X39192438Y15812858D02*
X39287676Y15908096D01*
X39287676Y15908096D02*
X39382914Y15955715D01*
X39382914Y15955715D02*
X39573390Y16003334D01*
X39573390Y16003334D02*
X39716247Y16003334D01*
X39716247Y16003334D02*
X39906723Y15955715D01*
X39906723Y15955715D02*
X40001961Y15908096D01*
X40001961Y15908096D02*
X40097200Y15812858D01*
X40097200Y15812858D02*
X40144819Y15670001D01*
X40144819Y15670001D02*
X40144819Y15431906D01*
X39240057Y16384287D02*
X39192438Y16431906D01*
X39192438Y16431906D02*
X39144819Y16527144D01*
X39144819Y16527144D02*
X39144819Y16765239D01*
X39144819Y16765239D02*
X39192438Y16860477D01*
X39192438Y16860477D02*
X39240057Y16908096D01*
X39240057Y16908096D02*
X39335295Y16955715D01*
X39335295Y16955715D02*
X39430533Y16955715D01*
X39430533Y16955715D02*
X39573390Y16908096D01*
X39573390Y16908096D02*
X40144819Y16336668D01*
X40144819Y16336668D02*
X40144819Y16955715D01*
X43954580Y19827143D02*
X44002200Y19779524D01*
X44002200Y19779524D02*
X44049819Y19636667D01*
X44049819Y19636667D02*
X44049819Y19541429D01*
X44049819Y19541429D02*
X44002200Y19398572D01*
X44002200Y19398572D02*
X43906961Y19303334D01*
X43906961Y19303334D02*
X43811723Y19255715D01*
X43811723Y19255715D02*
X43621247Y19208096D01*
X43621247Y19208096D02*
X43478390Y19208096D01*
X43478390Y19208096D02*
X43287914Y19255715D01*
X43287914Y19255715D02*
X43192676Y19303334D01*
X43192676Y19303334D02*
X43097438Y19398572D01*
X43097438Y19398572D02*
X43049819Y19541429D01*
X43049819Y19541429D02*
X43049819Y19636667D01*
X43049819Y19636667D02*
X43097438Y19779524D01*
X43097438Y19779524D02*
X43145057Y19827143D01*
X44049819Y20779524D02*
X44049819Y20208096D01*
X44049819Y20493810D02*
X43049819Y20493810D01*
X43049819Y20493810D02*
X43192676Y20398572D01*
X43192676Y20398572D02*
X43287914Y20303334D01*
X43287914Y20303334D02*
X43335533Y20208096D01*
X43049819Y21636667D02*
X43049819Y21446191D01*
X43049819Y21446191D02*
X43097438Y21350953D01*
X43097438Y21350953D02*
X43145057Y21303334D01*
X43145057Y21303334D02*
X43287914Y21208096D01*
X43287914Y21208096D02*
X43478390Y21160477D01*
X43478390Y21160477D02*
X43859342Y21160477D01*
X43859342Y21160477D02*
X43954580Y21208096D01*
X43954580Y21208096D02*
X44002200Y21255715D01*
X44002200Y21255715D02*
X44049819Y21350953D01*
X44049819Y21350953D02*
X44049819Y21541429D01*
X44049819Y21541429D02*
X44002200Y21636667D01*
X44002200Y21636667D02*
X43954580Y21684286D01*
X43954580Y21684286D02*
X43859342Y21731905D01*
X43859342Y21731905D02*
X43621247Y21731905D01*
X43621247Y21731905D02*
X43526009Y21684286D01*
X43526009Y21684286D02*
X43478390Y21636667D01*
X43478390Y21636667D02*
X43430771Y21541429D01*
X43430771Y21541429D02*
X43430771Y21350953D01*
X43430771Y21350953D02*
X43478390Y21255715D01*
X43478390Y21255715D02*
X43526009Y21208096D01*
X43526009Y21208096D02*
X43621247Y21160477D01*
X55547142Y24285181D02*
X55213809Y24761372D01*
X54975714Y24285181D02*
X54975714Y25285181D01*
X54975714Y25285181D02*
X55356666Y25285181D01*
X55356666Y25285181D02*
X55451904Y25237562D01*
X55451904Y25237562D02*
X55499523Y25189943D01*
X55499523Y25189943D02*
X55547142Y25094705D01*
X55547142Y25094705D02*
X55547142Y24951848D01*
X55547142Y24951848D02*
X55499523Y24856610D01*
X55499523Y24856610D02*
X55451904Y24808991D01*
X55451904Y24808991D02*
X55356666Y24761372D01*
X55356666Y24761372D02*
X54975714Y24761372D01*
X56499523Y24285181D02*
X55928095Y24285181D01*
X56213809Y24285181D02*
X56213809Y25285181D01*
X56213809Y25285181D02*
X56118571Y25142324D01*
X56118571Y25142324D02*
X56023333Y25047086D01*
X56023333Y25047086D02*
X55928095Y24999467D01*
X57118571Y25285181D02*
X57213809Y25285181D01*
X57213809Y25285181D02*
X57309047Y25237562D01*
X57309047Y25237562D02*
X57356666Y25189943D01*
X57356666Y25189943D02*
X57404285Y25094705D01*
X57404285Y25094705D02*
X57451904Y24904229D01*
X57451904Y24904229D02*
X57451904Y24666134D01*
X57451904Y24666134D02*
X57404285Y24475658D01*
X57404285Y24475658D02*
X57356666Y24380420D01*
X57356666Y24380420D02*
X57309047Y24332800D01*
X57309047Y24332800D02*
X57213809Y24285181D01*
X57213809Y24285181D02*
X57118571Y24285181D01*
X57118571Y24285181D02*
X57023333Y24332800D01*
X57023333Y24332800D02*
X56975714Y24380420D01*
X56975714Y24380420D02*
X56928095Y24475658D01*
X56928095Y24475658D02*
X56880476Y24666134D01*
X56880476Y24666134D02*
X56880476Y24904229D01*
X56880476Y24904229D02*
X56928095Y25094705D01*
X56928095Y25094705D02*
X56975714Y25189943D01*
X56975714Y25189943D02*
X57023333Y25237562D01*
X57023333Y25237562D02*
X57118571Y25285181D01*
X29122142Y30650420D02*
X29074523Y30602800D01*
X29074523Y30602800D02*
X28931666Y30555181D01*
X28931666Y30555181D02*
X28836428Y30555181D01*
X28836428Y30555181D02*
X28693571Y30602800D01*
X28693571Y30602800D02*
X28598333Y30698039D01*
X28598333Y30698039D02*
X28550714Y30793277D01*
X28550714Y30793277D02*
X28503095Y30983753D01*
X28503095Y30983753D02*
X28503095Y31126610D01*
X28503095Y31126610D02*
X28550714Y31317086D01*
X28550714Y31317086D02*
X28598333Y31412324D01*
X28598333Y31412324D02*
X28693571Y31507562D01*
X28693571Y31507562D02*
X28836428Y31555181D01*
X28836428Y31555181D02*
X28931666Y31555181D01*
X28931666Y31555181D02*
X29074523Y31507562D01*
X29074523Y31507562D02*
X29122142Y31459943D01*
X30074523Y30555181D02*
X29503095Y30555181D01*
X29788809Y30555181D02*
X29788809Y31555181D01*
X29788809Y31555181D02*
X29693571Y31412324D01*
X29693571Y31412324D02*
X29598333Y31317086D01*
X29598333Y31317086D02*
X29503095Y31269467D01*
X30693571Y31555181D02*
X30788809Y31555181D01*
X30788809Y31555181D02*
X30884047Y31507562D01*
X30884047Y31507562D02*
X30931666Y31459943D01*
X30931666Y31459943D02*
X30979285Y31364705D01*
X30979285Y31364705D02*
X31026904Y31174229D01*
X31026904Y31174229D02*
X31026904Y30936134D01*
X31026904Y30936134D02*
X30979285Y30745658D01*
X30979285Y30745658D02*
X30931666Y30650420D01*
X30931666Y30650420D02*
X30884047Y30602800D01*
X30884047Y30602800D02*
X30788809Y30555181D01*
X30788809Y30555181D02*
X30693571Y30555181D01*
X30693571Y30555181D02*
X30598333Y30602800D01*
X30598333Y30602800D02*
X30550714Y30650420D01*
X30550714Y30650420D02*
X30503095Y30745658D01*
X30503095Y30745658D02*
X30455476Y30936134D01*
X30455476Y30936134D02*
X30455476Y31174229D01*
X30455476Y31174229D02*
X30503095Y31364705D01*
X30503095Y31364705D02*
X30550714Y31459943D01*
X30550714Y31459943D02*
X30598333Y31507562D01*
X30598333Y31507562D02*
X30693571Y31555181D01*
X40704580Y20057143D02*
X40752200Y20009524D01*
X40752200Y20009524D02*
X40799819Y19866667D01*
X40799819Y19866667D02*
X40799819Y19771429D01*
X40799819Y19771429D02*
X40752200Y19628572D01*
X40752200Y19628572D02*
X40656961Y19533334D01*
X40656961Y19533334D02*
X40561723Y19485715D01*
X40561723Y19485715D02*
X40371247Y19438096D01*
X40371247Y19438096D02*
X40228390Y19438096D01*
X40228390Y19438096D02*
X40037914Y19485715D01*
X40037914Y19485715D02*
X39942676Y19533334D01*
X39942676Y19533334D02*
X39847438Y19628572D01*
X39847438Y19628572D02*
X39799819Y19771429D01*
X39799819Y19771429D02*
X39799819Y19866667D01*
X39799819Y19866667D02*
X39847438Y20009524D01*
X39847438Y20009524D02*
X39895057Y20057143D01*
X40799819Y21009524D02*
X40799819Y20438096D01*
X40799819Y20723810D02*
X39799819Y20723810D01*
X39799819Y20723810D02*
X39942676Y20628572D01*
X39942676Y20628572D02*
X40037914Y20533334D01*
X40037914Y20533334D02*
X40085533Y20438096D01*
X39799819Y21914286D02*
X39799819Y21438096D01*
X39799819Y21438096D02*
X40276009Y21390477D01*
X40276009Y21390477D02*
X40228390Y21438096D01*
X40228390Y21438096D02*
X40180771Y21533334D01*
X40180771Y21533334D02*
X40180771Y21771429D01*
X40180771Y21771429D02*
X40228390Y21866667D01*
X40228390Y21866667D02*
X40276009Y21914286D01*
X40276009Y21914286D02*
X40371247Y21961905D01*
X40371247Y21961905D02*
X40609342Y21961905D01*
X40609342Y21961905D02*
X40704580Y21914286D01*
X40704580Y21914286D02*
X40752200Y21866667D01*
X40752200Y21866667D02*
X40799819Y21771429D01*
X40799819Y21771429D02*
X40799819Y21533334D01*
X40799819Y21533334D02*
X40752200Y21438096D01*
X40752200Y21438096D02*
X40704580Y21390477D01*
X44064819Y1243334D02*
X43588628Y910001D01*
X44064819Y671906D02*
X43064819Y671906D01*
X43064819Y671906D02*
X43064819Y1052858D01*
X43064819Y1052858D02*
X43112438Y1148096D01*
X43112438Y1148096D02*
X43160057Y1195715D01*
X43160057Y1195715D02*
X43255295Y1243334D01*
X43255295Y1243334D02*
X43398152Y1243334D01*
X43398152Y1243334D02*
X43493390Y1195715D01*
X43493390Y1195715D02*
X43541009Y1148096D01*
X43541009Y1148096D02*
X43588628Y1052858D01*
X43588628Y1052858D02*
X43588628Y671906D01*
X43064819Y1576668D02*
X43064819Y2243334D01*
X43064819Y2243334D02*
X44064819Y1814763D01*
X35326667Y6142800D02*
X35469524Y6095181D01*
X35469524Y6095181D02*
X35707619Y6095181D01*
X35707619Y6095181D02*
X35802857Y6142800D01*
X35802857Y6142800D02*
X35850476Y6190420D01*
X35850476Y6190420D02*
X35898095Y6285658D01*
X35898095Y6285658D02*
X35898095Y6380896D01*
X35898095Y6380896D02*
X35850476Y6476134D01*
X35850476Y6476134D02*
X35802857Y6523753D01*
X35802857Y6523753D02*
X35707619Y6571372D01*
X35707619Y6571372D02*
X35517143Y6618991D01*
X35517143Y6618991D02*
X35421905Y6666610D01*
X35421905Y6666610D02*
X35374286Y6714229D01*
X35374286Y6714229D02*
X35326667Y6809467D01*
X35326667Y6809467D02*
X35326667Y6904705D01*
X35326667Y6904705D02*
X35374286Y6999943D01*
X35374286Y6999943D02*
X35421905Y7047562D01*
X35421905Y7047562D02*
X35517143Y7095181D01*
X35517143Y7095181D02*
X35755238Y7095181D01*
X35755238Y7095181D02*
X35898095Y7047562D01*
X36231429Y7095181D02*
X36469524Y6095181D01*
X36469524Y6095181D02*
X36660000Y6809467D01*
X36660000Y6809467D02*
X36850476Y6095181D01*
X36850476Y6095181D02*
X37088572Y7095181D01*
X37993333Y6095181D02*
X37421905Y6095181D01*
X37707619Y6095181D02*
X37707619Y7095181D01*
X37707619Y7095181D02*
X37612381Y6952324D01*
X37612381Y6952324D02*
X37517143Y6857086D01*
X37517143Y6857086D02*
X37421905Y6809467D01*
X36629580Y27537143D02*
X36677200Y27489524D01*
X36677200Y27489524D02*
X36724819Y27346667D01*
X36724819Y27346667D02*
X36724819Y27251429D01*
X36724819Y27251429D02*
X36677200Y27108572D01*
X36677200Y27108572D02*
X36581961Y27013334D01*
X36581961Y27013334D02*
X36486723Y26965715D01*
X36486723Y26965715D02*
X36296247Y26918096D01*
X36296247Y26918096D02*
X36153390Y26918096D01*
X36153390Y26918096D02*
X35962914Y26965715D01*
X35962914Y26965715D02*
X35867676Y27013334D01*
X35867676Y27013334D02*
X35772438Y27108572D01*
X35772438Y27108572D02*
X35724819Y27251429D01*
X35724819Y27251429D02*
X35724819Y27346667D01*
X35724819Y27346667D02*
X35772438Y27489524D01*
X35772438Y27489524D02*
X35820057Y27537143D01*
X36724819Y28489524D02*
X36724819Y27918096D01*
X36724819Y28203810D02*
X35724819Y28203810D01*
X35724819Y28203810D02*
X35867676Y28108572D01*
X35867676Y28108572D02*
X35962914Y28013334D01*
X35962914Y28013334D02*
X36010533Y27918096D01*
X36058152Y29346667D02*
X36724819Y29346667D01*
X35677200Y29108572D02*
X36391485Y28870477D01*
X36391485Y28870477D02*
X36391485Y29489524D01*
X56437142Y22760420D02*
X56389523Y22712800D01*
X56389523Y22712800D02*
X56246666Y22665181D01*
X56246666Y22665181D02*
X56151428Y22665181D01*
X56151428Y22665181D02*
X56008571Y22712800D01*
X56008571Y22712800D02*
X55913333Y22808039D01*
X55913333Y22808039D02*
X55865714Y22903277D01*
X55865714Y22903277D02*
X55818095Y23093753D01*
X55818095Y23093753D02*
X55818095Y23236610D01*
X55818095Y23236610D02*
X55865714Y23427086D01*
X55865714Y23427086D02*
X55913333Y23522324D01*
X55913333Y23522324D02*
X56008571Y23617562D01*
X56008571Y23617562D02*
X56151428Y23665181D01*
X56151428Y23665181D02*
X56246666Y23665181D01*
X56246666Y23665181D02*
X56389523Y23617562D01*
X56389523Y23617562D02*
X56437142Y23569943D01*
X56818095Y23569943D02*
X56865714Y23617562D01*
X56865714Y23617562D02*
X56960952Y23665181D01*
X56960952Y23665181D02*
X57199047Y23665181D01*
X57199047Y23665181D02*
X57294285Y23617562D01*
X57294285Y23617562D02*
X57341904Y23569943D01*
X57341904Y23569943D02*
X57389523Y23474705D01*
X57389523Y23474705D02*
X57389523Y23379467D01*
X57389523Y23379467D02*
X57341904Y23236610D01*
X57341904Y23236610D02*
X56770476Y22665181D01*
X56770476Y22665181D02*
X57389523Y22665181D01*
X58294285Y23665181D02*
X57818095Y23665181D01*
X57818095Y23665181D02*
X57770476Y23188991D01*
X57770476Y23188991D02*
X57818095Y23236610D01*
X57818095Y23236610D02*
X57913333Y23284229D01*
X57913333Y23284229D02*
X58151428Y23284229D01*
X58151428Y23284229D02*
X58246666Y23236610D01*
X58246666Y23236610D02*
X58294285Y23188991D01*
X58294285Y23188991D02*
X58341904Y23093753D01*
X58341904Y23093753D02*
X58341904Y22855658D01*
X58341904Y22855658D02*
X58294285Y22760420D01*
X58294285Y22760420D02*
X58246666Y22712800D01*
X58246666Y22712800D02*
X58151428Y22665181D01*
X58151428Y22665181D02*
X57913333Y22665181D01*
X57913333Y22665181D02*
X57818095Y22712800D01*
X57818095Y22712800D02*
X57770476Y22760420D01*
X58237142Y25965181D02*
X57903809Y26441372D01*
X57665714Y25965181D02*
X57665714Y26965181D01*
X57665714Y26965181D02*
X58046666Y26965181D01*
X58046666Y26965181D02*
X58141904Y26917562D01*
X58141904Y26917562D02*
X58189523Y26869943D01*
X58189523Y26869943D02*
X58237142Y26774705D01*
X58237142Y26774705D02*
X58237142Y26631848D01*
X58237142Y26631848D02*
X58189523Y26536610D01*
X58189523Y26536610D02*
X58141904Y26488991D01*
X58141904Y26488991D02*
X58046666Y26441372D01*
X58046666Y26441372D02*
X57665714Y26441372D01*
X59189523Y25965181D02*
X58618095Y25965181D01*
X58903809Y25965181D02*
X58903809Y26965181D01*
X58903809Y26965181D02*
X58808571Y26822324D01*
X58808571Y26822324D02*
X58713333Y26727086D01*
X58713333Y26727086D02*
X58618095Y26679467D01*
X60141904Y25965181D02*
X59570476Y25965181D01*
X59856190Y25965181D02*
X59856190Y26965181D01*
X59856190Y26965181D02*
X59760952Y26822324D01*
X59760952Y26822324D02*
X59665714Y26727086D01*
X59665714Y26727086D02*
X59570476Y26679467D01*
X33559580Y16337143D02*
X33607200Y16289524D01*
X33607200Y16289524D02*
X33654819Y16146667D01*
X33654819Y16146667D02*
X33654819Y16051429D01*
X33654819Y16051429D02*
X33607200Y15908572D01*
X33607200Y15908572D02*
X33511961Y15813334D01*
X33511961Y15813334D02*
X33416723Y15765715D01*
X33416723Y15765715D02*
X33226247Y15718096D01*
X33226247Y15718096D02*
X33083390Y15718096D01*
X33083390Y15718096D02*
X32892914Y15765715D01*
X32892914Y15765715D02*
X32797676Y15813334D01*
X32797676Y15813334D02*
X32702438Y15908572D01*
X32702438Y15908572D02*
X32654819Y16051429D01*
X32654819Y16051429D02*
X32654819Y16146667D01*
X32654819Y16146667D02*
X32702438Y16289524D01*
X32702438Y16289524D02*
X32750057Y16337143D01*
X33654819Y17289524D02*
X33654819Y16718096D01*
X33654819Y17003810D02*
X32654819Y17003810D01*
X32654819Y17003810D02*
X32797676Y16908572D01*
X32797676Y16908572D02*
X32892914Y16813334D01*
X32892914Y16813334D02*
X32940533Y16718096D01*
X32654819Y17622858D02*
X32654819Y18289524D01*
X32654819Y18289524D02*
X33654819Y17860953D01*
X8728095Y30315181D02*
X8728095Y31315181D01*
X8728095Y30838991D02*
X9299523Y30838991D01*
X9299523Y30315181D02*
X9299523Y31315181D01*
X10299523Y30315181D02*
X9728095Y30315181D01*
X10013809Y30315181D02*
X10013809Y31315181D01*
X10013809Y31315181D02*
X9918571Y31172324D01*
X9918571Y31172324D02*
X9823333Y31077086D01*
X9823333Y31077086D02*
X9728095Y31029467D01*
X37428095Y19285181D02*
X37428095Y18475658D01*
X37428095Y18475658D02*
X37475714Y18380420D01*
X37475714Y18380420D02*
X37523333Y18332800D01*
X37523333Y18332800D02*
X37618571Y18285181D01*
X37618571Y18285181D02*
X37809047Y18285181D01*
X37809047Y18285181D02*
X37904285Y18332800D01*
X37904285Y18332800D02*
X37951904Y18380420D01*
X37951904Y18380420D02*
X37999523Y18475658D01*
X37999523Y18475658D02*
X37999523Y19285181D01*
X38428095Y19189943D02*
X38475714Y19237562D01*
X38475714Y19237562D02*
X38570952Y19285181D01*
X38570952Y19285181D02*
X38809047Y19285181D01*
X38809047Y19285181D02*
X38904285Y19237562D01*
X38904285Y19237562D02*
X38951904Y19189943D01*
X38951904Y19189943D02*
X38999523Y19094705D01*
X38999523Y19094705D02*
X38999523Y18999467D01*
X38999523Y18999467D02*
X38951904Y18856610D01*
X38951904Y18856610D02*
X38380476Y18285181D01*
X38380476Y18285181D02*
X38999523Y18285181D01*
X28189580Y14057143D02*
X28237200Y14009524D01*
X28237200Y14009524D02*
X28284819Y13866667D01*
X28284819Y13866667D02*
X28284819Y13771429D01*
X28284819Y13771429D02*
X28237200Y13628572D01*
X28237200Y13628572D02*
X28141961Y13533334D01*
X28141961Y13533334D02*
X28046723Y13485715D01*
X28046723Y13485715D02*
X27856247Y13438096D01*
X27856247Y13438096D02*
X27713390Y13438096D01*
X27713390Y13438096D02*
X27522914Y13485715D01*
X27522914Y13485715D02*
X27427676Y13533334D01*
X27427676Y13533334D02*
X27332438Y13628572D01*
X27332438Y13628572D02*
X27284819Y13771429D01*
X27284819Y13771429D02*
X27284819Y13866667D01*
X27284819Y13866667D02*
X27332438Y14009524D01*
X27332438Y14009524D02*
X27380057Y14057143D01*
X28284819Y15009524D02*
X28284819Y14438096D01*
X28284819Y14723810D02*
X27284819Y14723810D01*
X27284819Y14723810D02*
X27427676Y14628572D01*
X27427676Y14628572D02*
X27522914Y14533334D01*
X27522914Y14533334D02*
X27570533Y14438096D01*
X27713390Y15580953D02*
X27665771Y15485715D01*
X27665771Y15485715D02*
X27618152Y15438096D01*
X27618152Y15438096D02*
X27522914Y15390477D01*
X27522914Y15390477D02*
X27475295Y15390477D01*
X27475295Y15390477D02*
X27380057Y15438096D01*
X27380057Y15438096D02*
X27332438Y15485715D01*
X27332438Y15485715D02*
X27284819Y15580953D01*
X27284819Y15580953D02*
X27284819Y15771429D01*
X27284819Y15771429D02*
X27332438Y15866667D01*
X27332438Y15866667D02*
X27380057Y15914286D01*
X27380057Y15914286D02*
X27475295Y15961905D01*
X27475295Y15961905D02*
X27522914Y15961905D01*
X27522914Y15961905D02*
X27618152Y15914286D01*
X27618152Y15914286D02*
X27665771Y15866667D01*
X27665771Y15866667D02*
X27713390Y15771429D01*
X27713390Y15771429D02*
X27713390Y15580953D01*
X27713390Y15580953D02*
X27761009Y15485715D01*
X27761009Y15485715D02*
X27808628Y15438096D01*
X27808628Y15438096D02*
X27903866Y15390477D01*
X27903866Y15390477D02*
X28094342Y15390477D01*
X28094342Y15390477D02*
X28189580Y15438096D01*
X28189580Y15438096D02*
X28237200Y15485715D01*
X28237200Y15485715D02*
X28284819Y15580953D01*
X28284819Y15580953D02*
X28284819Y15771429D01*
X28284819Y15771429D02*
X28237200Y15866667D01*
X28237200Y15866667D02*
X28189580Y15914286D01*
X28189580Y15914286D02*
X28094342Y15961905D01*
X28094342Y15961905D02*
X27903866Y15961905D01*
X27903866Y15961905D02*
X27808628Y15914286D01*
X27808628Y15914286D02*
X27761009Y15866667D01*
X27761009Y15866667D02*
X27713390Y15771429D01*
X35459580Y15193334D02*
X35507200Y15145715D01*
X35507200Y15145715D02*
X35554819Y15002858D01*
X35554819Y15002858D02*
X35554819Y14907620D01*
X35554819Y14907620D02*
X35507200Y14764763D01*
X35507200Y14764763D02*
X35411961Y14669525D01*
X35411961Y14669525D02*
X35316723Y14621906D01*
X35316723Y14621906D02*
X35126247Y14574287D01*
X35126247Y14574287D02*
X34983390Y14574287D01*
X34983390Y14574287D02*
X34792914Y14621906D01*
X34792914Y14621906D02*
X34697676Y14669525D01*
X34697676Y14669525D02*
X34602438Y14764763D01*
X34602438Y14764763D02*
X34554819Y14907620D01*
X34554819Y14907620D02*
X34554819Y15002858D01*
X34554819Y15002858D02*
X34602438Y15145715D01*
X34602438Y15145715D02*
X34650057Y15193334D01*
X34554819Y16098096D02*
X34554819Y15621906D01*
X34554819Y15621906D02*
X35031009Y15574287D01*
X35031009Y15574287D02*
X34983390Y15621906D01*
X34983390Y15621906D02*
X34935771Y15717144D01*
X34935771Y15717144D02*
X34935771Y15955239D01*
X34935771Y15955239D02*
X34983390Y16050477D01*
X34983390Y16050477D02*
X35031009Y16098096D01*
X35031009Y16098096D02*
X35126247Y16145715D01*
X35126247Y16145715D02*
X35364342Y16145715D01*
X35364342Y16145715D02*
X35459580Y16098096D01*
X35459580Y16098096D02*
X35507200Y16050477D01*
X35507200Y16050477D02*
X35554819Y15955239D01*
X35554819Y15955239D02*
X35554819Y15717144D01*
X35554819Y15717144D02*
X35507200Y15621906D01*
X35507200Y15621906D02*
X35459580Y15574287D01*
X45668095Y27295181D02*
X45668095Y28295181D01*
X45668095Y27818991D02*
X46239523Y27818991D01*
X46239523Y27295181D02*
X46239523Y28295181D01*
X46620476Y28295181D02*
X47239523Y28295181D01*
X47239523Y28295181D02*
X46906190Y27914229D01*
X46906190Y27914229D02*
X47049047Y27914229D01*
X47049047Y27914229D02*
X47144285Y27866610D01*
X47144285Y27866610D02*
X47191904Y27818991D01*
X47191904Y27818991D02*
X47239523Y27723753D01*
X47239523Y27723753D02*
X47239523Y27485658D01*
X47239523Y27485658D02*
X47191904Y27390420D01*
X47191904Y27390420D02*
X47144285Y27342800D01*
X47144285Y27342800D02*
X47049047Y27295181D01*
X47049047Y27295181D02*
X46763333Y27295181D01*
X46763333Y27295181D02*
X46668095Y27342800D01*
X46668095Y27342800D02*
X46620476Y27390420D01*
X62155238Y4018991D02*
X61821905Y4018991D01*
X61821905Y3495181D02*
X61821905Y4495181D01*
X61821905Y4495181D02*
X62298095Y4495181D01*
X62679048Y3495181D02*
X62679048Y4495181D01*
X62679048Y4495181D02*
X63012381Y3780896D01*
X63012381Y3780896D02*
X63345714Y4495181D01*
X63345714Y4495181D02*
X63345714Y3495181D01*
X63726667Y4495181D02*
X64345714Y4495181D01*
X64345714Y4495181D02*
X64012381Y4114229D01*
X64012381Y4114229D02*
X64155238Y4114229D01*
X64155238Y4114229D02*
X64250476Y4066610D01*
X64250476Y4066610D02*
X64298095Y4018991D01*
X64298095Y4018991D02*
X64345714Y3923753D01*
X64345714Y3923753D02*
X64345714Y3685658D01*
X64345714Y3685658D02*
X64298095Y3590420D01*
X64298095Y3590420D02*
X64250476Y3542800D01*
X64250476Y3542800D02*
X64155238Y3495181D01*
X64155238Y3495181D02*
X63869524Y3495181D01*
X63869524Y3495181D02*
X63774286Y3542800D01*
X63774286Y3542800D02*
X63726667Y3590420D01*
X6763333Y15345181D02*
X6430000Y15821372D01*
X6191905Y15345181D02*
X6191905Y16345181D01*
X6191905Y16345181D02*
X6572857Y16345181D01*
X6572857Y16345181D02*
X6668095Y16297562D01*
X6668095Y16297562D02*
X6715714Y16249943D01*
X6715714Y16249943D02*
X6763333Y16154705D01*
X6763333Y16154705D02*
X6763333Y16011848D01*
X6763333Y16011848D02*
X6715714Y15916610D01*
X6715714Y15916610D02*
X6668095Y15868991D01*
X6668095Y15868991D02*
X6572857Y15821372D01*
X6572857Y15821372D02*
X6191905Y15821372D01*
X7144286Y16249943D02*
X7191905Y16297562D01*
X7191905Y16297562D02*
X7287143Y16345181D01*
X7287143Y16345181D02*
X7525238Y16345181D01*
X7525238Y16345181D02*
X7620476Y16297562D01*
X7620476Y16297562D02*
X7668095Y16249943D01*
X7668095Y16249943D02*
X7715714Y16154705D01*
X7715714Y16154705D02*
X7715714Y16059467D01*
X7715714Y16059467D02*
X7668095Y15916610D01*
X7668095Y15916610D02*
X7096667Y15345181D01*
X7096667Y15345181D02*
X7715714Y15345181D01*
D11*
X44580952Y21966391D02*
X44247619Y21966391D01*
X44247619Y21442581D02*
X44247619Y22442581D01*
X44247619Y22442581D02*
X44723809Y22442581D01*
X45580952Y21442581D02*
X45104762Y21442581D01*
X45104762Y21442581D02*
X45104762Y22442581D01*
X45771429Y22442581D02*
X46342857Y22442581D01*
X46057143Y21442581D02*
X46057143Y22442581D01*
X47200000Y21442581D02*
X46628572Y21442581D01*
X46914286Y21442581D02*
X46914286Y22442581D01*
X46914286Y22442581D02*
X46819048Y22299724D01*
X46819048Y22299724D02*
X46723810Y22204486D01*
X46723810Y22204486D02*
X46628572Y22156867D01*
D10*
X6764819Y7896667D02*
X7479104Y7896667D01*
X7479104Y7896667D02*
X7621961Y7849048D01*
X7621961Y7849048D02*
X7717200Y7753810D01*
X7717200Y7753810D02*
X7764819Y7610953D01*
X7764819Y7610953D02*
X7764819Y7515715D01*
X6860057Y8325239D02*
X6812438Y8372858D01*
X6812438Y8372858D02*
X6764819Y8468096D01*
X6764819Y8468096D02*
X6764819Y8706191D01*
X6764819Y8706191D02*
X6812438Y8801429D01*
X6812438Y8801429D02*
X6860057Y8849048D01*
X6860057Y8849048D02*
X6955295Y8896667D01*
X6955295Y8896667D02*
X7050533Y8896667D01*
X7050533Y8896667D02*
X7193390Y8849048D01*
X7193390Y8849048D02*
X7764819Y8277620D01*
X7764819Y8277620D02*
X7764819Y8896667D01*
X46729580Y5327143D02*
X46777200Y5279524D01*
X46777200Y5279524D02*
X46824819Y5136667D01*
X46824819Y5136667D02*
X46824819Y5041429D01*
X46824819Y5041429D02*
X46777200Y4898572D01*
X46777200Y4898572D02*
X46681961Y4803334D01*
X46681961Y4803334D02*
X46586723Y4755715D01*
X46586723Y4755715D02*
X46396247Y4708096D01*
X46396247Y4708096D02*
X46253390Y4708096D01*
X46253390Y4708096D02*
X46062914Y4755715D01*
X46062914Y4755715D02*
X45967676Y4803334D01*
X45967676Y4803334D02*
X45872438Y4898572D01*
X45872438Y4898572D02*
X45824819Y5041429D01*
X45824819Y5041429D02*
X45824819Y5136667D01*
X45824819Y5136667D02*
X45872438Y5279524D01*
X45872438Y5279524D02*
X45920057Y5327143D01*
X46824819Y6279524D02*
X46824819Y5708096D01*
X46824819Y5993810D02*
X45824819Y5993810D01*
X45824819Y5993810D02*
X45967676Y5898572D01*
X45967676Y5898572D02*
X46062914Y5803334D01*
X46062914Y5803334D02*
X46110533Y5708096D01*
X46824819Y6755715D02*
X46824819Y6946191D01*
X46824819Y6946191D02*
X46777200Y7041429D01*
X46777200Y7041429D02*
X46729580Y7089048D01*
X46729580Y7089048D02*
X46586723Y7184286D01*
X46586723Y7184286D02*
X46396247Y7231905D01*
X46396247Y7231905D02*
X46015295Y7231905D01*
X46015295Y7231905D02*
X45920057Y7184286D01*
X45920057Y7184286D02*
X45872438Y7136667D01*
X45872438Y7136667D02*
X45824819Y7041429D01*
X45824819Y7041429D02*
X45824819Y6850953D01*
X45824819Y6850953D02*
X45872438Y6755715D01*
X45872438Y6755715D02*
X45920057Y6708096D01*
X45920057Y6708096D02*
X46015295Y6660477D01*
X46015295Y6660477D02*
X46253390Y6660477D01*
X46253390Y6660477D02*
X46348628Y6708096D01*
X46348628Y6708096D02*
X46396247Y6755715D01*
X46396247Y6755715D02*
X46443866Y6850953D01*
X46443866Y6850953D02*
X46443866Y7041429D01*
X46443866Y7041429D02*
X46396247Y7136667D01*
X46396247Y7136667D02*
X46348628Y7184286D01*
X46348628Y7184286D02*
X46253390Y7231905D01*
X51969249Y19227143D02*
X52016869Y19179524D01*
X52016869Y19179524D02*
X52064488Y19036667D01*
X52064488Y19036667D02*
X52064488Y18941429D01*
X52064488Y18941429D02*
X52016869Y18798572D01*
X52016869Y18798572D02*
X51921630Y18703334D01*
X51921630Y18703334D02*
X51826392Y18655715D01*
X51826392Y18655715D02*
X51635916Y18608096D01*
X51635916Y18608096D02*
X51493059Y18608096D01*
X51493059Y18608096D02*
X51302583Y18655715D01*
X51302583Y18655715D02*
X51207345Y18703334D01*
X51207345Y18703334D02*
X51112107Y18798572D01*
X51112107Y18798572D02*
X51064488Y18941429D01*
X51064488Y18941429D02*
X51064488Y19036667D01*
X51064488Y19036667D02*
X51112107Y19179524D01*
X51112107Y19179524D02*
X51159726Y19227143D01*
X51159726Y19608096D02*
X51112107Y19655715D01*
X51112107Y19655715D02*
X51064488Y19750953D01*
X51064488Y19750953D02*
X51064488Y19989048D01*
X51064488Y19989048D02*
X51112107Y20084286D01*
X51112107Y20084286D02*
X51159726Y20131905D01*
X51159726Y20131905D02*
X51254964Y20179524D01*
X51254964Y20179524D02*
X51350202Y20179524D01*
X51350202Y20179524D02*
X51493059Y20131905D01*
X51493059Y20131905D02*
X52064488Y19560477D01*
X52064488Y19560477D02*
X52064488Y20179524D01*
X51159726Y20560477D02*
X51112107Y20608096D01*
X51112107Y20608096D02*
X51064488Y20703334D01*
X51064488Y20703334D02*
X51064488Y20941429D01*
X51064488Y20941429D02*
X51112107Y21036667D01*
X51112107Y21036667D02*
X51159726Y21084286D01*
X51159726Y21084286D02*
X51254964Y21131905D01*
X51254964Y21131905D02*
X51350202Y21131905D01*
X51350202Y21131905D02*
X51493059Y21084286D01*
X51493059Y21084286D02*
X52064488Y20512858D01*
X52064488Y20512858D02*
X52064488Y21131905D01*
X17354819Y2591429D02*
X18069104Y2591429D01*
X18069104Y2591429D02*
X18211961Y2543810D01*
X18211961Y2543810D02*
X18307200Y2448572D01*
X18307200Y2448572D02*
X18354819Y2305715D01*
X18354819Y2305715D02*
X18354819Y2210477D01*
X18450057Y2829524D02*
X18450057Y3591429D01*
X18354819Y3829525D02*
X17354819Y3829525D01*
X17450057Y4258096D02*
X17402438Y4305715D01*
X17402438Y4305715D02*
X17354819Y4400953D01*
X17354819Y4400953D02*
X17354819Y4639048D01*
X17354819Y4639048D02*
X17402438Y4734286D01*
X17402438Y4734286D02*
X17450057Y4781905D01*
X17450057Y4781905D02*
X17545295Y4829524D01*
X17545295Y4829524D02*
X17640533Y4829524D01*
X17640533Y4829524D02*
X17783390Y4781905D01*
X17783390Y4781905D02*
X18354819Y4210477D01*
X18354819Y4210477D02*
X18354819Y4829524D01*
X18259580Y5829524D02*
X18307200Y5781905D01*
X18307200Y5781905D02*
X18354819Y5639048D01*
X18354819Y5639048D02*
X18354819Y5543810D01*
X18354819Y5543810D02*
X18307200Y5400953D01*
X18307200Y5400953D02*
X18211961Y5305715D01*
X18211961Y5305715D02*
X18116723Y5258096D01*
X18116723Y5258096D02*
X17926247Y5210477D01*
X17926247Y5210477D02*
X17783390Y5210477D01*
X17783390Y5210477D02*
X17592914Y5258096D01*
X17592914Y5258096D02*
X17497676Y5305715D01*
X17497676Y5305715D02*
X17402438Y5400953D01*
X17402438Y5400953D02*
X17354819Y5543810D01*
X17354819Y5543810D02*
X17354819Y5639048D01*
X17354819Y5639048D02*
X17402438Y5781905D01*
X17402438Y5781905D02*
X17450057Y5829524D01*
X18354819Y6781905D02*
X18354819Y6210477D01*
X18354819Y6496191D02*
X17354819Y6496191D01*
X17354819Y6496191D02*
X17497676Y6400953D01*
X17497676Y6400953D02*
X17592914Y6305715D01*
X17592914Y6305715D02*
X17640533Y6210477D01*
X26719580Y11767143D02*
X26767200Y11719524D01*
X26767200Y11719524D02*
X26814819Y11576667D01*
X26814819Y11576667D02*
X26814819Y11481429D01*
X26814819Y11481429D02*
X26767200Y11338572D01*
X26767200Y11338572D02*
X26671961Y11243334D01*
X26671961Y11243334D02*
X26576723Y11195715D01*
X26576723Y11195715D02*
X26386247Y11148096D01*
X26386247Y11148096D02*
X26243390Y11148096D01*
X26243390Y11148096D02*
X26052914Y11195715D01*
X26052914Y11195715D02*
X25957676Y11243334D01*
X25957676Y11243334D02*
X25862438Y11338572D01*
X25862438Y11338572D02*
X25814819Y11481429D01*
X25814819Y11481429D02*
X25814819Y11576667D01*
X25814819Y11576667D02*
X25862438Y11719524D01*
X25862438Y11719524D02*
X25910057Y11767143D01*
X26814819Y12719524D02*
X26814819Y12148096D01*
X26814819Y12433810D02*
X25814819Y12433810D01*
X25814819Y12433810D02*
X25957676Y12338572D01*
X25957676Y12338572D02*
X26052914Y12243334D01*
X26052914Y12243334D02*
X26100533Y12148096D01*
X25814819Y13052858D02*
X25814819Y13671905D01*
X25814819Y13671905D02*
X26195771Y13338572D01*
X26195771Y13338572D02*
X26195771Y13481429D01*
X26195771Y13481429D02*
X26243390Y13576667D01*
X26243390Y13576667D02*
X26291009Y13624286D01*
X26291009Y13624286D02*
X26386247Y13671905D01*
X26386247Y13671905D02*
X26624342Y13671905D01*
X26624342Y13671905D02*
X26719580Y13624286D01*
X26719580Y13624286D02*
X26767200Y13576667D01*
X26767200Y13576667D02*
X26814819Y13481429D01*
X26814819Y13481429D02*
X26814819Y13195715D01*
X26814819Y13195715D02*
X26767200Y13100477D01*
X26767200Y13100477D02*
X26719580Y13052858D01*
X26809580Y19913334D02*
X26857200Y19865715D01*
X26857200Y19865715D02*
X26904819Y19722858D01*
X26904819Y19722858D02*
X26904819Y19627620D01*
X26904819Y19627620D02*
X26857200Y19484763D01*
X26857200Y19484763D02*
X26761961Y19389525D01*
X26761961Y19389525D02*
X26666723Y19341906D01*
X26666723Y19341906D02*
X26476247Y19294287D01*
X26476247Y19294287D02*
X26333390Y19294287D01*
X26333390Y19294287D02*
X26142914Y19341906D01*
X26142914Y19341906D02*
X26047676Y19389525D01*
X26047676Y19389525D02*
X25952438Y19484763D01*
X25952438Y19484763D02*
X25904819Y19627620D01*
X25904819Y19627620D02*
X25904819Y19722858D01*
X25904819Y19722858D02*
X25952438Y19865715D01*
X25952438Y19865715D02*
X26000057Y19913334D01*
X26904819Y20389525D02*
X26904819Y20580001D01*
X26904819Y20580001D02*
X26857200Y20675239D01*
X26857200Y20675239D02*
X26809580Y20722858D01*
X26809580Y20722858D02*
X26666723Y20818096D01*
X26666723Y20818096D02*
X26476247Y20865715D01*
X26476247Y20865715D02*
X26095295Y20865715D01*
X26095295Y20865715D02*
X26000057Y20818096D01*
X26000057Y20818096D02*
X25952438Y20770477D01*
X25952438Y20770477D02*
X25904819Y20675239D01*
X25904819Y20675239D02*
X25904819Y20484763D01*
X25904819Y20484763D02*
X25952438Y20389525D01*
X25952438Y20389525D02*
X26000057Y20341906D01*
X26000057Y20341906D02*
X26095295Y20294287D01*
X26095295Y20294287D02*
X26333390Y20294287D01*
X26333390Y20294287D02*
X26428628Y20341906D01*
X26428628Y20341906D02*
X26476247Y20389525D01*
X26476247Y20389525D02*
X26523866Y20484763D01*
X26523866Y20484763D02*
X26523866Y20675239D01*
X26523866Y20675239D02*
X26476247Y20770477D01*
X26476247Y20770477D02*
X26428628Y20818096D01*
X26428628Y20818096D02*
X26333390Y20865715D01*
X34243333Y31005181D02*
X33767143Y31005181D01*
X33767143Y31005181D02*
X33767143Y32005181D01*
X34529048Y31909943D02*
X34576667Y31957562D01*
X34576667Y31957562D02*
X34671905Y32005181D01*
X34671905Y32005181D02*
X34910000Y32005181D01*
X34910000Y32005181D02*
X35005238Y31957562D01*
X35005238Y31957562D02*
X35052857Y31909943D01*
X35052857Y31909943D02*
X35100476Y31814705D01*
X35100476Y31814705D02*
X35100476Y31719467D01*
X35100476Y31719467D02*
X35052857Y31576610D01*
X35052857Y31576610D02*
X34481429Y31005181D01*
X34481429Y31005181D02*
X35100476Y31005181D01*
X38613333Y20420420D02*
X38565714Y20372800D01*
X38565714Y20372800D02*
X38422857Y20325181D01*
X38422857Y20325181D02*
X38327619Y20325181D01*
X38327619Y20325181D02*
X38184762Y20372800D01*
X38184762Y20372800D02*
X38089524Y20468039D01*
X38089524Y20468039D02*
X38041905Y20563277D01*
X38041905Y20563277D02*
X37994286Y20753753D01*
X37994286Y20753753D02*
X37994286Y20896610D01*
X37994286Y20896610D02*
X38041905Y21087086D01*
X38041905Y21087086D02*
X38089524Y21182324D01*
X38089524Y21182324D02*
X38184762Y21277562D01*
X38184762Y21277562D02*
X38327619Y21325181D01*
X38327619Y21325181D02*
X38422857Y21325181D01*
X38422857Y21325181D02*
X38565714Y21277562D01*
X38565714Y21277562D02*
X38613333Y21229943D01*
X39184762Y20896610D02*
X39089524Y20944229D01*
X39089524Y20944229D02*
X39041905Y20991848D01*
X39041905Y20991848D02*
X38994286Y21087086D01*
X38994286Y21087086D02*
X38994286Y21134705D01*
X38994286Y21134705D02*
X39041905Y21229943D01*
X39041905Y21229943D02*
X39089524Y21277562D01*
X39089524Y21277562D02*
X39184762Y21325181D01*
X39184762Y21325181D02*
X39375238Y21325181D01*
X39375238Y21325181D02*
X39470476Y21277562D01*
X39470476Y21277562D02*
X39518095Y21229943D01*
X39518095Y21229943D02*
X39565714Y21134705D01*
X39565714Y21134705D02*
X39565714Y21087086D01*
X39565714Y21087086D02*
X39518095Y20991848D01*
X39518095Y20991848D02*
X39470476Y20944229D01*
X39470476Y20944229D02*
X39375238Y20896610D01*
X39375238Y20896610D02*
X39184762Y20896610D01*
X39184762Y20896610D02*
X39089524Y20848991D01*
X39089524Y20848991D02*
X39041905Y20801372D01*
X39041905Y20801372D02*
X38994286Y20706134D01*
X38994286Y20706134D02*
X38994286Y20515658D01*
X38994286Y20515658D02*
X39041905Y20420420D01*
X39041905Y20420420D02*
X39089524Y20372800D01*
X39089524Y20372800D02*
X39184762Y20325181D01*
X39184762Y20325181D02*
X39375238Y20325181D01*
X39375238Y20325181D02*
X39470476Y20372800D01*
X39470476Y20372800D02*
X39518095Y20420420D01*
X39518095Y20420420D02*
X39565714Y20515658D01*
X39565714Y20515658D02*
X39565714Y20706134D01*
X39565714Y20706134D02*
X39518095Y20801372D01*
X39518095Y20801372D02*
X39470476Y20848991D01*
X39470476Y20848991D02*
X39375238Y20896610D01*
X9638333Y18410420D02*
X9590714Y18362800D01*
X9590714Y18362800D02*
X9447857Y18315181D01*
X9447857Y18315181D02*
X9352619Y18315181D01*
X9352619Y18315181D02*
X9209762Y18362800D01*
X9209762Y18362800D02*
X9114524Y18458039D01*
X9114524Y18458039D02*
X9066905Y18553277D01*
X9066905Y18553277D02*
X9019286Y18743753D01*
X9019286Y18743753D02*
X9019286Y18886610D01*
X9019286Y18886610D02*
X9066905Y19077086D01*
X9066905Y19077086D02*
X9114524Y19172324D01*
X9114524Y19172324D02*
X9209762Y19267562D01*
X9209762Y19267562D02*
X9352619Y19315181D01*
X9352619Y19315181D02*
X9447857Y19315181D01*
X9447857Y19315181D02*
X9590714Y19267562D01*
X9590714Y19267562D02*
X9638333Y19219943D01*
X10590714Y18315181D02*
X10019286Y18315181D01*
X10305000Y18315181D02*
X10305000Y19315181D01*
X10305000Y19315181D02*
X10209762Y19172324D01*
X10209762Y19172324D02*
X10114524Y19077086D01*
X10114524Y19077086D02*
X10019286Y19029467D01*
X19519580Y6677143D02*
X19567200Y6629524D01*
X19567200Y6629524D02*
X19614819Y6486667D01*
X19614819Y6486667D02*
X19614819Y6391429D01*
X19614819Y6391429D02*
X19567200Y6248572D01*
X19567200Y6248572D02*
X19471961Y6153334D01*
X19471961Y6153334D02*
X19376723Y6105715D01*
X19376723Y6105715D02*
X19186247Y6058096D01*
X19186247Y6058096D02*
X19043390Y6058096D01*
X19043390Y6058096D02*
X18852914Y6105715D01*
X18852914Y6105715D02*
X18757676Y6153334D01*
X18757676Y6153334D02*
X18662438Y6248572D01*
X18662438Y6248572D02*
X18614819Y6391429D01*
X18614819Y6391429D02*
X18614819Y6486667D01*
X18614819Y6486667D02*
X18662438Y6629524D01*
X18662438Y6629524D02*
X18710057Y6677143D01*
X18710057Y7058096D02*
X18662438Y7105715D01*
X18662438Y7105715D02*
X18614819Y7200953D01*
X18614819Y7200953D02*
X18614819Y7439048D01*
X18614819Y7439048D02*
X18662438Y7534286D01*
X18662438Y7534286D02*
X18710057Y7581905D01*
X18710057Y7581905D02*
X18805295Y7629524D01*
X18805295Y7629524D02*
X18900533Y7629524D01*
X18900533Y7629524D02*
X19043390Y7581905D01*
X19043390Y7581905D02*
X19614819Y7010477D01*
X19614819Y7010477D02*
X19614819Y7629524D01*
X18614819Y8248572D02*
X18614819Y8343810D01*
X18614819Y8343810D02*
X18662438Y8439048D01*
X18662438Y8439048D02*
X18710057Y8486667D01*
X18710057Y8486667D02*
X18805295Y8534286D01*
X18805295Y8534286D02*
X18995771Y8581905D01*
X18995771Y8581905D02*
X19233866Y8581905D01*
X19233866Y8581905D02*
X19424342Y8534286D01*
X19424342Y8534286D02*
X19519580Y8486667D01*
X19519580Y8486667D02*
X19567200Y8439048D01*
X19567200Y8439048D02*
X19614819Y8343810D01*
X19614819Y8343810D02*
X19614819Y8248572D01*
X19614819Y8248572D02*
X19567200Y8153334D01*
X19567200Y8153334D02*
X19519580Y8105715D01*
X19519580Y8105715D02*
X19424342Y8058096D01*
X19424342Y8058096D02*
X19233866Y8010477D01*
X19233866Y8010477D02*
X18995771Y8010477D01*
X18995771Y8010477D02*
X18805295Y8058096D01*
X18805295Y8058096D02*
X18710057Y8105715D01*
X18710057Y8105715D02*
X18662438Y8153334D01*
X18662438Y8153334D02*
X18614819Y8248572D01*
X41384819Y16163334D02*
X40908628Y15830001D01*
X41384819Y15591906D02*
X40384819Y15591906D01*
X40384819Y15591906D02*
X40384819Y15972858D01*
X40384819Y15972858D02*
X40432438Y16068096D01*
X40432438Y16068096D02*
X40480057Y16115715D01*
X40480057Y16115715D02*
X40575295Y16163334D01*
X40575295Y16163334D02*
X40718152Y16163334D01*
X40718152Y16163334D02*
X40813390Y16115715D01*
X40813390Y16115715D02*
X40861009Y16068096D01*
X40861009Y16068096D02*
X40908628Y15972858D01*
X40908628Y15972858D02*
X40908628Y15591906D01*
X40384819Y17068096D02*
X40384819Y16591906D01*
X40384819Y16591906D02*
X40861009Y16544287D01*
X40861009Y16544287D02*
X40813390Y16591906D01*
X40813390Y16591906D02*
X40765771Y16687144D01*
X40765771Y16687144D02*
X40765771Y16925239D01*
X40765771Y16925239D02*
X40813390Y17020477D01*
X40813390Y17020477D02*
X40861009Y17068096D01*
X40861009Y17068096D02*
X40956247Y17115715D01*
X40956247Y17115715D02*
X41194342Y17115715D01*
X41194342Y17115715D02*
X41289580Y17068096D01*
X41289580Y17068096D02*
X41337200Y17020477D01*
X41337200Y17020477D02*
X41384819Y16925239D01*
X41384819Y16925239D02*
X41384819Y16687144D01*
X41384819Y16687144D02*
X41337200Y16591906D01*
X41337200Y16591906D02*
X41289580Y16544287D01*
X22804819Y7263334D02*
X22328628Y6930001D01*
X22804819Y6691906D02*
X21804819Y6691906D01*
X21804819Y6691906D02*
X21804819Y7072858D01*
X21804819Y7072858D02*
X21852438Y7168096D01*
X21852438Y7168096D02*
X21900057Y7215715D01*
X21900057Y7215715D02*
X21995295Y7263334D01*
X21995295Y7263334D02*
X22138152Y7263334D01*
X22138152Y7263334D02*
X22233390Y7215715D01*
X22233390Y7215715D02*
X22281009Y7168096D01*
X22281009Y7168096D02*
X22328628Y7072858D01*
X22328628Y7072858D02*
X22328628Y6691906D01*
X22233390Y7834763D02*
X22185771Y7739525D01*
X22185771Y7739525D02*
X22138152Y7691906D01*
X22138152Y7691906D02*
X22042914Y7644287D01*
X22042914Y7644287D02*
X21995295Y7644287D01*
X21995295Y7644287D02*
X21900057Y7691906D01*
X21900057Y7691906D02*
X21852438Y7739525D01*
X21852438Y7739525D02*
X21804819Y7834763D01*
X21804819Y7834763D02*
X21804819Y8025239D01*
X21804819Y8025239D02*
X21852438Y8120477D01*
X21852438Y8120477D02*
X21900057Y8168096D01*
X21900057Y8168096D02*
X21995295Y8215715D01*
X21995295Y8215715D02*
X22042914Y8215715D01*
X22042914Y8215715D02*
X22138152Y8168096D01*
X22138152Y8168096D02*
X22185771Y8120477D01*
X22185771Y8120477D02*
X22233390Y8025239D01*
X22233390Y8025239D02*
X22233390Y7834763D01*
X22233390Y7834763D02*
X22281009Y7739525D01*
X22281009Y7739525D02*
X22328628Y7691906D01*
X22328628Y7691906D02*
X22423866Y7644287D01*
X22423866Y7644287D02*
X22614342Y7644287D01*
X22614342Y7644287D02*
X22709580Y7691906D01*
X22709580Y7691906D02*
X22757200Y7739525D01*
X22757200Y7739525D02*
X22804819Y7834763D01*
X22804819Y7834763D02*
X22804819Y8025239D01*
X22804819Y8025239D02*
X22757200Y8120477D01*
X22757200Y8120477D02*
X22709580Y8168096D01*
X22709580Y8168096D02*
X22614342Y8215715D01*
X22614342Y8215715D02*
X22423866Y8215715D01*
X22423866Y8215715D02*
X22328628Y8168096D01*
X22328628Y8168096D02*
X22281009Y8120477D01*
X22281009Y8120477D02*
X22233390Y8025239D01*
X20596666Y27535181D02*
X20596666Y26820896D01*
X20596666Y26820896D02*
X20549047Y26678039D01*
X20549047Y26678039D02*
X20453809Y26582800D01*
X20453809Y26582800D02*
X20310952Y26535181D01*
X20310952Y26535181D02*
X20215714Y26535181D01*
X20977619Y27535181D02*
X21596666Y27535181D01*
X21596666Y27535181D02*
X21263333Y27154229D01*
X21263333Y27154229D02*
X21406190Y27154229D01*
X21406190Y27154229D02*
X21501428Y27106610D01*
X21501428Y27106610D02*
X21549047Y27058991D01*
X21549047Y27058991D02*
X21596666Y26963753D01*
X21596666Y26963753D02*
X21596666Y26725658D01*
X21596666Y26725658D02*
X21549047Y26630420D01*
X21549047Y26630420D02*
X21501428Y26582800D01*
X21501428Y26582800D02*
X21406190Y26535181D01*
X21406190Y26535181D02*
X21120476Y26535181D01*
X21120476Y26535181D02*
X21025238Y26582800D01*
X21025238Y26582800D02*
X20977619Y26630420D01*
X51939249Y15667143D02*
X51986869Y15619524D01*
X51986869Y15619524D02*
X52034488Y15476667D01*
X52034488Y15476667D02*
X52034488Y15381429D01*
X52034488Y15381429D02*
X51986869Y15238572D01*
X51986869Y15238572D02*
X51891630Y15143334D01*
X51891630Y15143334D02*
X51796392Y15095715D01*
X51796392Y15095715D02*
X51605916Y15048096D01*
X51605916Y15048096D02*
X51463059Y15048096D01*
X51463059Y15048096D02*
X51272583Y15095715D01*
X51272583Y15095715D02*
X51177345Y15143334D01*
X51177345Y15143334D02*
X51082107Y15238572D01*
X51082107Y15238572D02*
X51034488Y15381429D01*
X51034488Y15381429D02*
X51034488Y15476667D01*
X51034488Y15476667D02*
X51082107Y15619524D01*
X51082107Y15619524D02*
X51129726Y15667143D01*
X51129726Y16048096D02*
X51082107Y16095715D01*
X51082107Y16095715D02*
X51034488Y16190953D01*
X51034488Y16190953D02*
X51034488Y16429048D01*
X51034488Y16429048D02*
X51082107Y16524286D01*
X51082107Y16524286D02*
X51129726Y16571905D01*
X51129726Y16571905D02*
X51224964Y16619524D01*
X51224964Y16619524D02*
X51320202Y16619524D01*
X51320202Y16619524D02*
X51463059Y16571905D01*
X51463059Y16571905D02*
X52034488Y16000477D01*
X52034488Y16000477D02*
X52034488Y16619524D01*
X51367821Y17476667D02*
X52034488Y17476667D01*
X50986869Y17238572D02*
X51701154Y17000477D01*
X51701154Y17000477D02*
X51701154Y17619524D01*
D12*
%TO.C,C4*%
X27447836Y24040000D02*
X27232164Y24040000D01*
X27447836Y23320000D02*
X27232164Y23320000D01*
%TO.C,C21*%
X53747505Y28135000D02*
X53531833Y28135000D01*
X53747505Y27415000D02*
X53531833Y27415000D01*
%TO.C,R4*%
X37190000Y16666359D02*
X37190000Y16973641D01*
X37950000Y16666359D02*
X37950000Y16973641D01*
%TO.C,C6*%
X28460000Y20052164D02*
X28460000Y20267836D01*
X29180000Y20052164D02*
X29180000Y20267836D01*
%TO.C,R3*%
X35910000Y16646359D02*
X35910000Y16953641D01*
X36670000Y16646359D02*
X36670000Y16953641D01*
%TO.C,R9*%
X25640000Y7276359D02*
X25640000Y7583641D01*
X26400000Y7276359D02*
X26400000Y7583641D01*
%TO.C,C26*%
X51931833Y14645000D02*
X52147505Y14645000D01*
X51931833Y13925000D02*
X52147505Y13925000D01*
%TO.C,J4*%
X48005000Y25090000D02*
X48005000Y24450000D01*
X48005000Y24450000D02*
X47375000Y24450000D01*
X48005000Y22290000D02*
X48005000Y22930000D01*
X50725000Y25040000D02*
X50725000Y22340000D01*
%TO.C,C2*%
X12285580Y13340000D02*
X12004420Y13340000D01*
X12285580Y12320000D02*
X12004420Y12320000D01*
%TO.C,J5*%
X64115331Y22050000D02*
X64548344Y21800000D01*
X64115331Y21550000D02*
X64115331Y22050000D01*
X64548344Y21800000D02*
X64115331Y21550000D01*
X65009669Y31745000D02*
X74589669Y31745000D01*
X65009669Y775000D02*
X65009669Y31745000D01*
X74589669Y775000D02*
X65009669Y775000D01*
%TO.C,C7*%
X30867836Y28650000D02*
X30652164Y28650000D01*
X30867836Y27930000D02*
X30652164Y27930000D01*
%TO.C,X1*%
X28920000Y14630000D02*
X31440000Y14630000D01*
X31440000Y16350000D02*
X28920000Y16350000D01*
X31440000Y14630000D02*
X31440000Y16350000D01*
%TO.C,D1*%
X11110000Y23490000D02*
X12930000Y23490000D01*
X11110000Y23440000D02*
X11110000Y23490000D01*
X11110000Y20370000D02*
X11110000Y20420000D01*
X12930000Y23490000D02*
X12930000Y23440000D01*
X12930000Y20420000D02*
X12930000Y20370000D01*
X12930000Y20370000D02*
X11110000Y20370000D01*
X10570000Y23440000D02*
X10330000Y23770000D01*
X10810000Y23770000D01*
X10570000Y23440000D01*
G36*
X10570000Y23440000D02*
G01*
X10330000Y23770000D01*
X10810000Y23770000D01*
X10570000Y23440000D01*
G37*
%TO.C,C12*%
X38205000Y24915336D02*
X38205000Y24699664D01*
X38925000Y24915336D02*
X38925000Y24699664D01*
%TO.C,C11*%
X30867836Y27630000D02*
X30652164Y27630000D01*
X30867836Y26910000D02*
X30652164Y26910000D01*
%TO.C,C23*%
X61492164Y21050000D02*
X61707836Y21050000D01*
X61492164Y20330000D02*
X61707836Y20330000D01*
%TO.C,C3*%
X26980000Y17755580D02*
X26980000Y17474420D01*
X28000000Y17755580D02*
X28000000Y17474420D01*
%TO.C,J_UART1*%
X52939669Y28775000D02*
X52939669Y30155000D01*
X54319669Y28775000D02*
X52939669Y28775000D01*
X55589669Y31535000D02*
X63319669Y31535000D01*
X55589669Y28775000D02*
X55589669Y31535000D01*
X55589669Y28775000D02*
X63319669Y28775000D01*
X63319669Y28775000D02*
X63319669Y31535000D01*
%TO.C,R6*%
X44833641Y5720000D02*
X44526359Y5720000D01*
X44833641Y4960000D02*
X44526359Y4960000D01*
%TO.C,J1*%
X3620000Y26600000D02*
X5320000Y26600000D01*
X3620000Y17260000D02*
X5320000Y17260000D01*
%TO.C,R1*%
X6416359Y28320000D02*
X6723641Y28320000D01*
X6416359Y27560000D02*
X6723641Y27560000D01*
%TO.C,X2*%
X37650000Y26800000D02*
X40070000Y26800000D01*
X40070000Y26800000D02*
X40070000Y29620000D01*
%TO.C,U_RS232_1*%
X54939669Y21272500D02*
X59059669Y21272500D01*
X54939669Y21217500D02*
X54939669Y21272500D01*
X54939669Y11152500D02*
X54939669Y11207500D01*
X59059669Y21272500D02*
X59059669Y21217500D01*
X59059669Y11207500D02*
X59059669Y11152500D01*
X59059669Y11152500D02*
X54939669Y11152500D01*
X54399669Y21222500D02*
X54159669Y21552500D01*
X54639669Y21552500D01*
X54399669Y21222500D01*
G36*
X54399669Y21222500D02*
G01*
X54159669Y21552500D01*
X54639669Y21552500D01*
X54399669Y21222500D01*
G37*
%TO.C,U1*%
X10420000Y16532500D02*
X10470000Y16532500D01*
X10420000Y14712500D02*
X10420000Y16532500D01*
X10470000Y14712500D02*
X10420000Y14712500D01*
X12370000Y14712500D02*
X11590000Y14712500D01*
X13490000Y16532500D02*
X13540000Y16532500D01*
X13540000Y16532500D02*
X13540000Y14712500D01*
X13540000Y14712500D02*
X13490000Y14712500D01*
X13820000Y16832500D02*
X13490000Y17072500D01*
X13820000Y17312500D01*
X13820000Y16832500D01*
G36*
X13820000Y16832500D02*
G01*
X13490000Y17072500D01*
X13820000Y17312500D01*
X13820000Y16832500D01*
G37*
D11*
%TO.C,D2*%
X39630000Y17180000D02*
G75*
G02*
X39530000Y17180000I-50000J0D01*
G01*
X39530000Y17180000D02*
G75*
G02*
X39630000Y17180000I50000J0D01*
G01*
D12*
%TO.C,C16*%
X43235000Y23307836D02*
X43235000Y23092164D01*
X43955000Y23307836D02*
X43955000Y23092164D01*
%TO.C,R10*%
X56503641Y26220000D02*
X56196359Y26220000D01*
X56503641Y25460000D02*
X56196359Y25460000D01*
%TO.C,C10*%
X30075580Y30140000D02*
X29794420Y30140000D01*
X30075580Y29120000D02*
X29794420Y29120000D01*
%TO.C,C15*%
X40235000Y23327836D02*
X40235000Y23112164D01*
X40955000Y23327836D02*
X40955000Y23112164D01*
%TO.C,R7*%
X43130000Y3383641D02*
X43130000Y3076359D01*
X43890000Y3383641D02*
X43890000Y3076359D01*
%TO.C,SW1*%
X34880000Y5780000D02*
X41000000Y5780000D01*
X34880000Y2080000D02*
X34880000Y5780000D01*
X41000000Y5780000D02*
X41000000Y2080000D01*
X41000000Y2080000D02*
X34880000Y2080000D01*
%TO.C,C14*%
X34129420Y28190000D02*
X34410580Y28190000D01*
X34129420Y27170000D02*
X34410580Y27170000D01*
%TO.C,C25*%
X57027836Y22340000D02*
X56812164Y22340000D01*
X57027836Y21620000D02*
X56812164Y21620000D01*
%TO.C,R11*%
X58726359Y25630000D02*
X59033641Y25630000D01*
X58726359Y24870000D02*
X59033641Y24870000D01*
%TO.C,C17*%
X31272164Y17600000D02*
X31487836Y17600000D01*
X31272164Y16880000D02*
X31487836Y16880000D01*
%TO.C,U2*%
X29910000Y26040000D02*
X30385000Y26040000D01*
X29910000Y25565000D02*
X29910000Y26040000D01*
X29910000Y18820000D02*
X29910000Y19295000D01*
X30385000Y18820000D02*
X29910000Y18820000D01*
X36655000Y26040000D02*
X37130000Y26040000D01*
X37130000Y26040000D02*
X37130000Y25565000D01*
X37130000Y19295000D02*
X37130000Y18820000D01*
X37130000Y18820000D02*
X36655000Y18820000D01*
X31010000Y17960000D02*
X30530000Y17960000D01*
X30770000Y18290000D01*
X31010000Y17960000D01*
G36*
X31010000Y17960000D02*
G01*
X30530000Y17960000D01*
X30770000Y18290000D01*
X31010000Y17960000D01*
G37*
%TO.C,C18*%
X29427836Y17590000D02*
X29212164Y17590000D01*
X29427836Y16870000D02*
X29212164Y16870000D01*
%TO.C,C5*%
X34900000Y17327836D02*
X34900000Y17112164D01*
X35620000Y17327836D02*
X35620000Y17112164D01*
%TO.C,R2*%
X4773641Y16360000D02*
X4466359Y16360000D01*
X4773641Y15600000D02*
X4466359Y15600000D01*
D11*
%TO.C,FLT1*%
X44500000Y24172500D02*
X44500000Y23972500D01*
X44500000Y23972500D02*
X44500000Y23922500D01*
X44500000Y23922500D02*
X44500000Y24022500D01*
X44500000Y23172500D02*
X44500000Y23422500D01*
X44500000Y23172500D02*
X44700000Y23172500D01*
X44500000Y23172500D02*
X44700000Y23172500D01*
X44700000Y24172500D02*
X44500000Y24172500D01*
X44700000Y24172500D02*
X46700000Y24172500D01*
X44700000Y23172500D02*
X44500000Y23172500D01*
X44700000Y23172500D02*
X44500000Y23172500D01*
X44700000Y23172500D02*
X44600000Y23172500D01*
X46700000Y24172500D02*
X46700000Y23172500D01*
X46700000Y23172500D02*
X44700000Y23172500D01*
X44600000Y23672500D02*
G75*
G02*
X44400000Y23672500I-100000J0D01*
G01*
X44400000Y23672500D02*
G75*
G02*
X44600000Y23672500I100000J0D01*
G01*
D12*
%TO.C,J2*%
X600000Y14715000D02*
X600000Y11230000D01*
X600000Y7745000D02*
X600000Y11230000D01*
X6020000Y13645000D02*
X6320000Y13645000D01*
X6020000Y11230000D02*
X6020000Y13645000D01*
X6020000Y11230000D02*
X6020000Y8815000D01*
X6020000Y8815000D02*
X6320000Y8815000D01*
X6310000Y13355000D02*
X6610000Y13355000D01*
X6320000Y14715000D02*
X600000Y14715000D01*
X6320000Y13645000D02*
X6320000Y14715000D01*
X6320000Y8815000D02*
X6320000Y7745000D01*
X6320000Y7745000D02*
X600000Y7745000D01*
X6610000Y13355000D02*
X6610000Y13855000D01*
%TO.C,C19*%
X44650000Y3377836D02*
X44650000Y3162164D01*
X45370000Y3377836D02*
X45370000Y3162164D01*
%TO.C,C22*%
X52409669Y19762164D02*
X52409669Y19977836D01*
X53129669Y19762164D02*
X53129669Y19977836D01*
%TO.C,J_I2C1*%
X18900000Y3140000D02*
X18900000Y4520000D01*
X20280000Y3140000D02*
X18900000Y3140000D01*
X21550000Y5900000D02*
X29280000Y5900000D01*
X21550000Y3140000D02*
X21550000Y5900000D01*
X21550000Y3140000D02*
X29280000Y3140000D01*
X29280000Y3140000D02*
X29280000Y5900000D01*
%TO.C,C13*%
X27160000Y12302164D02*
X27160000Y12517836D01*
X27880000Y12302164D02*
X27880000Y12517836D01*
%TO.C,C9*%
X27160000Y20022164D02*
X27160000Y20237836D01*
X27880000Y20022164D02*
X27880000Y20237836D01*
%TO.C,L2*%
X32932878Y30490000D02*
X33732122Y30490000D01*
X32932878Y29370000D02*
X33732122Y29370000D01*
%TO.C,C8*%
X38932164Y23300000D02*
X39147836Y23300000D01*
X38932164Y22580000D02*
X39147836Y22580000D01*
%TO.C,C1*%
X12320580Y19040000D02*
X12039420Y19040000D01*
X12320580Y18020000D02*
X12039420Y18020000D01*
%TO.C,C20*%
X19960000Y7212164D02*
X19960000Y7427836D01*
X20680000Y7212164D02*
X20680000Y7427836D01*
%TO.C,R5*%
X40570000Y18136359D02*
X40570000Y18443641D01*
X41330000Y18136359D02*
X41330000Y18443641D01*
%TO.C,R8*%
X23140000Y7276359D02*
X23140000Y7583641D01*
X23900000Y7276359D02*
X23900000Y7583641D01*
%TO.C,J3*%
X19710000Y23970000D02*
X20345000Y23970000D01*
X19710000Y23335000D02*
X19710000Y23970000D01*
%TO.C,C24*%
X52379669Y16202164D02*
X52379669Y16417836D01*
X53099669Y16202164D02*
X53099669Y16417836D01*
%TD*%
M02*
