%TF.GenerationSoftware,KiCad,Pcbnew,9.0.7*%
%TF.CreationDate,2026-04-14T21:13:42+05:30*%
%TF.ProjectId,Version1_IOB,56657273-696f-46e3-915f-494f422e6b69,rev?*%
%TF.SameCoordinates,PX22ca400PY5825eb0*%
%TF.FileFunction,Soldermask,Top*%
%TF.FilePolarity,Negative*%
%FSLAX46Y46*%
G04 Gerber Fmt 4.6, Leading zero omitted, Abs format (unit mm)*
G04 Created by KiCad (PCBNEW 9.0.7) date 2026-04-14 21:13:42*
%MOMM*%
%LPD*%
G01*
G04 APERTURE LIST*
G04 Aperture macros list*
%AMRoundRect*
0 Rectangle with rounded corners*
0 $1 Rounding radius*
0 $2 $3 $4 $5 $6 $7 $8 $9 X,Y pos of 4 corners*
0 Add a 4 corners polygon primitive as box body*
4,1,4,$2,$3,$4,$5,$6,$7,$8,$9,$2,$3,0*
0 Add four circle primitives for the rounded corners*
1,1,$1+$1,$2,$3*
1,1,$1+$1,$4,$5*
1,1,$1+$1,$6,$7*
1,1,$1+$1,$8,$9*
0 Add four rect primitives between the rounded corners*
20,1,$1+$1,$2,$3,$4,$5,0*
20,1,$1+$1,$4,$5,$6,$7,0*
20,1,$1+$1,$6,$7,$8,$9,0*
20,1,$1+$1,$8,$9,$2,$3,0*%
G04 Aperture macros list end*
%ADD10RoundRect,0.140000X0.140000X0.170000X-0.140000X0.170000X-0.140000X-0.170000X0.140000X-0.170000X0*%
%ADD11RoundRect,0.135000X0.185000X-0.135000X0.185000X0.135000X-0.185000X0.135000X-0.185000X-0.135000X0*%
%ADD12RoundRect,0.140000X0.170000X-0.140000X0.170000X0.140000X-0.170000X0.140000X-0.170000X-0.140000X0*%
%ADD13RoundRect,0.147500X-0.147500X-0.172500X0.147500X-0.172500X0.147500X0.172500X-0.147500X0.172500X0*%
%ADD14RoundRect,0.140000X-0.140000X-0.170000X0.140000X-0.170000X0.140000X0.170000X-0.140000X0.170000X0*%
%ADD15C,2.000000*%
%ADD16RoundRect,0.147500X0.172500X-0.147500X0.172500X0.147500X-0.172500X0.147500X-0.172500X-0.147500X0*%
%ADD17C,0.700000*%
%ADD18C,4.400000*%
%ADD19RoundRect,0.250000X-0.275000X-0.250000X0.275000X-0.250000X0.275000X0.250000X-0.275000X0.250000X0*%
%ADD20RoundRect,0.250000X-0.850000X-0.275000X0.850000X-0.275000X0.850000X0.275000X-0.850000X0.275000X0*%
%ADD21RoundRect,0.225000X0.225000X0.250000X-0.225000X0.250000X-0.225000X-0.250000X0.225000X-0.250000X0*%
%ADD22C,4.000000*%
%ADD23R,1.600000X1.600000*%
%ADD24C,1.600000*%
%ADD25RoundRect,0.150000X0.150000X0.400000X-0.150000X0.400000X-0.150000X-0.400000X0.150000X-0.400000X0*%
%ADD26RoundRect,0.150000X-0.512500X-0.150000X0.512500X-0.150000X0.512500X0.150000X-0.512500X0.150000X0*%
%ADD27RoundRect,0.140000X-0.170000X0.140000X-0.170000X-0.140000X0.170000X-0.140000X0.170000X0.140000X0*%
%ADD28RoundRect,0.225000X-0.250000X0.225000X-0.250000X-0.225000X0.250000X-0.225000X0.250000X0.225000X0*%
%ADD29R,1.700000X1.700000*%
%ADD30C,1.700000*%
%ADD31RoundRect,0.135000X0.135000X0.185000X-0.135000X0.185000X-0.135000X-0.185000X0.135000X-0.185000X0*%
%ADD32C,0.650000*%
%ADD33RoundRect,0.150000X-0.425000X0.150000X-0.425000X-0.150000X0.425000X-0.150000X0.425000X0.150000X0*%
%ADD34RoundRect,0.075000X-0.500000X0.075000X-0.500000X-0.075000X0.500000X-0.075000X0.500000X0.075000X0*%
%ADD35O,2.100000X1.000000*%
%ADD36O,1.800000X1.000000*%
%ADD37RoundRect,0.135000X-0.135000X-0.185000X0.135000X-0.185000X0.135000X0.185000X-0.135000X0.185000X0*%
%ADD38RoundRect,0.200000X0.200000X-0.250000X0.200000X0.250000X-0.200000X0.250000X-0.200000X-0.250000X0*%
%ADD39RoundRect,0.150000X-0.825000X-0.150000X0.825000X-0.150000X0.825000X0.150000X-0.825000X0.150000X0*%
%ADD40RoundRect,0.150000X-0.150000X0.512500X-0.150000X-0.512500X0.150000X-0.512500X0.150000X0.512500X0*%
%ADD41RoundRect,0.135000X-0.185000X0.135000X-0.185000X-0.135000X0.185000X-0.135000X0.185000X0.135000X0*%
%ADD42R,1.500000X1.500000*%
%ADD43RoundRect,0.225000X-0.225000X-0.250000X0.225000X-0.250000X0.225000X0.250000X-0.225000X0.250000X0*%
%ADD44RoundRect,0.062500X0.062500X-0.375000X0.062500X0.375000X-0.062500X0.375000X-0.062500X-0.375000X0*%
%ADD45RoundRect,0.062500X0.375000X-0.062500X0.375000X0.062500X-0.375000X0.062500X-0.375000X-0.062500X0*%
%ADD46R,5.600000X5.600000*%
%ADD47RoundRect,0.068750X-0.068750X-0.281250X0.068750X-0.281250X0.068750X0.281250X-0.068750X0.281250X0*%
%ADD48RoundRect,0.061250X-0.163750X-0.061250X0.163750X-0.061250X0.163750X0.061250X-0.163750X0.061250X0*%
%ADD49RoundRect,0.200000X-0.450000X0.200000X-0.450000X-0.200000X0.450000X-0.200000X0.450000X0.200000X0*%
%ADD50O,1.300000X0.800000*%
%ADD51RoundRect,0.218750X-0.218750X-0.381250X0.218750X-0.381250X0.218750X0.381250X-0.218750X0.381250X0*%
%ADD52C,2.374900*%
%ADD53C,0.990600*%
%ADD54C,0.787400*%
G04 APERTURE END LIST*
%TO.C,J4*%
G36*
X48375000Y24630000D02*
G01*
X50465000Y24630000D01*
X50465000Y22750000D01*
X48375000Y22750000D01*
X48375000Y24630000D01*
G37*
%TD*%
D10*
%TO.C,C4*%
X27820000Y23680000D03*
X26860000Y23680000D03*
%TD*%
%TO.C,C21*%
X54119669Y27775000D03*
X53159669Y27775000D03*
%TD*%
D11*
%TO.C,R4*%
X37570000Y16310000D03*
X37570000Y17330000D03*
%TD*%
D12*
%TO.C,C6*%
X28820000Y19680000D03*
X28820000Y20640000D03*
%TD*%
D11*
%TO.C,R3*%
X36290000Y16290000D03*
X36290000Y17310000D03*
%TD*%
%TO.C,R9*%
X26020000Y6920000D03*
X26020000Y7940000D03*
%TD*%
D13*
%TO.C,L3*%
X41595000Y23700000D03*
X42565000Y23700000D03*
%TD*%
D14*
%TO.C,C26*%
X51559669Y14285000D03*
X52519669Y14285000D03*
%TD*%
D15*
%TO.C,FM1*%
X6480000Y30530000D03*
%TD*%
D16*
%TO.C,L1*%
X32270000Y27430000D03*
X32270000Y28400000D03*
%TD*%
D17*
%TO.C,H2*%
X1753274Y3116726D03*
X2236548Y4283452D03*
X2236548Y1950000D03*
X3403274Y4766726D03*
D18*
X3403274Y3116726D03*
D17*
X3403274Y1466726D03*
X4570000Y4283452D03*
X4570000Y1950000D03*
X5053274Y3116726D03*
%TD*%
D19*
%TO.C,J4*%
X47840000Y23690000D03*
D20*
X49365000Y25165000D03*
X49365000Y22215000D03*
%TD*%
D21*
%TO.C,C2*%
X12920000Y12830000D03*
X11370000Y12830000D03*
%TD*%
D17*
%TO.C,H4*%
X47270000Y3100000D03*
X47753274Y4266726D03*
X47753274Y1933274D03*
X48920000Y4750000D03*
D18*
X48920000Y3100000D03*
D17*
X48920000Y1450000D03*
X50086726Y4266726D03*
X50086726Y1933274D03*
X50570000Y3100000D03*
%TD*%
D22*
%TO.C,J5*%
X69709669Y3760000D03*
X69709669Y28760000D03*
D23*
X66869669Y21800000D03*
D24*
X66869669Y19030000D03*
X66869669Y16260000D03*
X66869669Y13490000D03*
X66869669Y10720000D03*
X69709669Y20415000D03*
X69709669Y17645000D03*
X69709669Y14875000D03*
X69709669Y12105000D03*
%TD*%
D10*
%TO.C,C7*%
X31240000Y28290000D03*
X30280000Y28290000D03*
%TD*%
D15*
%TO.C,FM2*%
X44860000Y29520000D03*
%TD*%
D25*
%TO.C,X1*%
X30880000Y15490000D03*
X29480000Y15490000D03*
%TD*%
D26*
%TO.C,D1*%
X10882500Y22880000D03*
X10882500Y21930000D03*
X10882500Y20980000D03*
X13157500Y20980000D03*
X13157500Y21930000D03*
X13157500Y22880000D03*
%TD*%
D27*
%TO.C,C12*%
X38565000Y25287500D03*
X38565000Y24327500D03*
%TD*%
D10*
%TO.C,C11*%
X31240000Y27270000D03*
X30280000Y27270000D03*
%TD*%
D14*
%TO.C,C23*%
X61120000Y20690000D03*
X62080000Y20690000D03*
%TD*%
D28*
%TO.C,C3*%
X27490000Y18390000D03*
X27490000Y16840000D03*
%TD*%
D29*
%TO.C,J_UART1*%
X54319669Y30155000D03*
D30*
X56859669Y30155000D03*
X59399669Y30155000D03*
X61939669Y30155000D03*
%TD*%
D31*
%TO.C,R6*%
X45190000Y5340000D03*
X44170000Y5340000D03*
%TD*%
D32*
%TO.C,J1*%
X6125000Y24820000D03*
X6125000Y19040000D03*
D33*
X7200000Y25130000D03*
X7200000Y24330000D03*
D34*
X7200000Y23180000D03*
X7200000Y22180000D03*
X7200000Y21680000D03*
X7200000Y20680000D03*
D33*
X7200000Y19530000D03*
X7200000Y18730000D03*
X7200000Y18730000D03*
X7200000Y19530000D03*
D34*
X7200000Y20180000D03*
X7200000Y21180000D03*
X7200000Y22680000D03*
X7200000Y23680000D03*
D33*
X7200000Y24330000D03*
X7200000Y25130000D03*
D35*
X6625000Y26250000D03*
D36*
X2445000Y26250000D03*
D35*
X6625000Y17610000D03*
D36*
X2445000Y17610000D03*
%TD*%
D37*
%TO.C,R1*%
X6060000Y27940000D03*
X7080000Y27940000D03*
%TD*%
D38*
%TO.C,X2*%
X39410000Y27510000D03*
X39410000Y28910000D03*
X38310000Y28910000D03*
X38310000Y27510000D03*
%TD*%
D39*
%TO.C,U_RS232_1*%
X54524669Y20657500D03*
X54524669Y19387500D03*
X54524669Y18117500D03*
X54524669Y16847500D03*
X54524669Y15577500D03*
X54524669Y14307500D03*
X54524669Y13037500D03*
X54524669Y11767500D03*
X59474669Y11767500D03*
X59474669Y13037500D03*
X59474669Y14307500D03*
X59474669Y15577500D03*
X59474669Y16847500D03*
X59474669Y18117500D03*
X59474669Y19387500D03*
X59474669Y20657500D03*
%TD*%
D40*
%TO.C,U1*%
X12930000Y16760000D03*
X11980000Y16760000D03*
X11030000Y16760000D03*
X11030000Y14485000D03*
X12930000Y14485000D03*
%TD*%
D16*
%TO.C,D2*%
X39580000Y17785000D03*
X39580000Y18755000D03*
%TD*%
D27*
%TO.C,C16*%
X43595000Y23680000D03*
X43595000Y22720000D03*
%TD*%
D31*
%TO.C,R10*%
X56860000Y25840000D03*
X55840000Y25840000D03*
%TD*%
D21*
%TO.C,C10*%
X30710000Y29630000D03*
X29160000Y29630000D03*
%TD*%
D27*
%TO.C,C15*%
X40595000Y23700000D03*
X40595000Y22740000D03*
%TD*%
D41*
%TO.C,R7*%
X43510000Y3740000D03*
X43510000Y2720000D03*
%TD*%
D42*
%TO.C,SW1*%
X41840000Y3930000D03*
X34040000Y3930000D03*
%TD*%
D43*
%TO.C,C14*%
X33495000Y27680000D03*
X35045000Y27680000D03*
%TD*%
D10*
%TO.C,C25*%
X57400000Y21980000D03*
X56440000Y21980000D03*
%TD*%
D37*
%TO.C,R11*%
X58370000Y25250000D03*
X59390000Y25250000D03*
%TD*%
D14*
%TO.C,C17*%
X30900000Y17240000D03*
X31860000Y17240000D03*
%TD*%
D17*
%TO.C,H1*%
X10823274Y29296726D03*
X11306548Y30463452D03*
X11306548Y28130000D03*
X12473274Y30946726D03*
D18*
X12473274Y29296726D03*
D17*
X12473274Y27646726D03*
X13640000Y30463452D03*
X13640000Y28130000D03*
X14123274Y29296726D03*
%TD*%
D44*
%TO.C,U2*%
X30770000Y18992500D03*
X31270000Y18992500D03*
X31770000Y18992500D03*
X32270000Y18992500D03*
X32770000Y18992500D03*
X33270000Y18992500D03*
X33770000Y18992500D03*
X34270000Y18992500D03*
X34770000Y18992500D03*
X35270000Y18992500D03*
X35770000Y18992500D03*
X36270000Y18992500D03*
D45*
X36957500Y19680000D03*
X36957500Y20180000D03*
X36957500Y20680000D03*
X36957500Y21180000D03*
X36957500Y21680000D03*
X36957500Y22180000D03*
X36957500Y22680000D03*
X36957500Y23180000D03*
X36957500Y23680000D03*
X36957500Y24180000D03*
X36957500Y24680000D03*
X36957500Y25180000D03*
D44*
X36270000Y25867500D03*
X35770000Y25867500D03*
X35270000Y25867500D03*
X34770000Y25867500D03*
X34270000Y25867500D03*
X33770000Y25867500D03*
X33270000Y25867500D03*
X32770000Y25867500D03*
X32270000Y25867500D03*
X31770000Y25867500D03*
X31270000Y25867500D03*
X30770000Y25867500D03*
D45*
X30082500Y25180000D03*
X30082500Y24680000D03*
X30082500Y24180000D03*
X30082500Y23680000D03*
X30082500Y23180000D03*
X30082500Y22680000D03*
X30082500Y22180000D03*
X30082500Y21680000D03*
X30082500Y21180000D03*
X30082500Y20680000D03*
X30082500Y20180000D03*
X30082500Y19680000D03*
D46*
X33520000Y22430000D03*
%TD*%
D10*
%TO.C,C18*%
X29800000Y17230000D03*
X28840000Y17230000D03*
%TD*%
D27*
%TO.C,C5*%
X35260000Y17700000D03*
X35260000Y16740000D03*
%TD*%
D17*
%TO.C,H3*%
X47776726Y29593274D03*
X48260000Y30760000D03*
X48260000Y28426548D03*
X49426726Y31243274D03*
D18*
X49426726Y29593274D03*
D17*
X49426726Y27943274D03*
X50593452Y30760000D03*
X50593452Y28426548D03*
X51076726Y29593274D03*
%TD*%
D15*
%TO.C,FM3*%
X63060000Y2000000D03*
%TD*%
D31*
%TO.C,R2*%
X5130000Y15980000D03*
X4110000Y15980000D03*
%TD*%
D47*
%TO.C,FLT1*%
X45087500Y23672500D03*
D48*
X45700000Y23445000D03*
D47*
X46312500Y23672500D03*
D48*
X45700000Y23900000D03*
%TD*%
D49*
%TO.C,J2*%
X5160000Y13105000D03*
D50*
X5160000Y11855000D03*
X5160000Y10605000D03*
X5160000Y9355000D03*
%TD*%
D27*
%TO.C,C19*%
X45010000Y3750000D03*
X45010000Y2790000D03*
%TD*%
D12*
%TO.C,C22*%
X52769669Y19390000D03*
X52769669Y20350000D03*
%TD*%
D29*
%TO.C,J_I2C1*%
X20280000Y4520000D03*
D30*
X22820000Y4520000D03*
X25360000Y4520000D03*
X27900000Y4520000D03*
%TD*%
D12*
%TO.C,C13*%
X27520000Y11930000D03*
X27520000Y12890000D03*
%TD*%
%TO.C,C9*%
X27520000Y19650000D03*
X27520000Y20610000D03*
%TD*%
D51*
%TO.C,L2*%
X32270000Y29930000D03*
X34395000Y29930000D03*
%TD*%
D14*
%TO.C,C8*%
X38560000Y22940000D03*
X39520000Y22940000D03*
%TD*%
D21*
%TO.C,C1*%
X12955000Y18530000D03*
X11405000Y18530000D03*
%TD*%
D12*
%TO.C,C20*%
X20320000Y6840000D03*
X20320000Y7800000D03*
%TD*%
D11*
%TO.C,R5*%
X40950000Y17780000D03*
X40950000Y18800000D03*
%TD*%
%TO.C,R8*%
X23520000Y6920000D03*
X23520000Y7940000D03*
%TD*%
D52*
%TO.C,J3*%
X23520000Y24605000D03*
D53*
X20980000Y24605000D03*
D52*
X18440000Y24605000D03*
X23520000Y21430000D03*
X18440000Y21430000D03*
D53*
X21996000Y19525000D03*
X19964000Y19525000D03*
D54*
X20345000Y23335000D03*
X21615000Y23335000D03*
X20345000Y22065000D03*
X21615000Y22065000D03*
X20345000Y20795000D03*
X21615000Y20795000D03*
%TD*%
D12*
%TO.C,C24*%
X52739669Y15830000D03*
X52739669Y16790000D03*
%TD*%
M02*
